<svg version="1.1" id="Layer_1" xmlns="http://www.w3.org/2000/svg" xmlns:xlink="http://www.w3.org/1999/xlink" x="0px" y="0px"
	 width="100%" viewBox="0 0 1662 1322" enable-background="new 0 0 1662 1322" xml:space="preserve">
<path fill="#000000" opacity="000000" stroke="none" 
	d="
M423.000000,1323.000000 
	C282.344177,1323.000000 141.688385,1323.000000 1.016287,1323.000000 
	C1.016287,882.378235 1.016287,441.756409 1.016287,1.067308 
	C554.912354,1.067308 1108.824707,1.067308 1662.868530,1.067308 
	C1662.868530,441.544983 1662.868530,882.089966 1662.868530,1323.000000 
	C1480.302612,1323.000000 1297.604858,1323.000000 1114.257080,1322.604248 
	C1119.305420,1321.139404 1124.966187,1319.759766 1130.709839,1319.065186 
	C1143.395752,1317.531250 1156.125610,1316.365601 1168.832642,1315.002441 
	C1174.505737,1314.393799 1180.178955,1313.015259 1185.831177,1313.119019 
	C1205.199463,1313.474854 1224.555176,1314.455322 1243.922119,1314.950195 
	C1254.579590,1315.222412 1265.251099,1315.102295 1275.913452,1314.955688 
	C1281.015625,1314.885498 1286.126343,1313.919922 1291.206543,1314.102783 
	C1301.081909,1314.458008 1310.932129,1315.735840 1320.804321,1315.889893 
	C1331.061035,1316.050049 1341.331787,1315.340210 1351.595947,1314.998901 
	C1384.271484,1313.912720 1417.040283,1317.345703 1449.646973,1312.991943 
	C1457.724731,1311.913452 1465.989990,1311.497681 1473.816895,1309.438721 
	C1488.988647,1305.447754 1503.966553,1300.681030 1518.911377,1295.882446 
	C1525.869751,1293.648193 1530.008301,1288.164673 1530.855347,1281.083862 
	C1531.792847,1273.246582 1531.203369,1265.032959 1523.187134,1260.847046 
	C1516.710449,1257.464966 1509.625366,1254.835938 1502.505615,1253.191162 
	C1491.100708,1250.556030 1479.509888,1248.364258 1467.876099,1247.175171 
	C1454.265503,1245.784180 1440.531006,1245.369995 1426.838623,1245.078369 
	C1411.015869,1244.741333 1395.179443,1244.878784 1379.350830,1245.028564 
	C1355.754883,1245.251831 1332.157349,1245.514282 1308.566895,1246.047607 
	C1289.532349,1246.477783 1270.512085,1247.583740 1251.477051,1247.928223 
	C1233.135742,1248.260132 1214.782837,1248.081421 1196.436401,1247.953979 
	C1190.335815,1247.911743 1184.241333,1247.283569 1178.140137,1247.011963 
	C1169.544312,1246.629272 1160.942627,1246.377930 1152.347900,1245.976440 
	C1146.912109,1245.722412 1141.411499,1245.736816 1136.068604,1244.853516 
	C1126.133057,1243.210815 1116.365967,1240.383545 1106.392334,1239.177002 
	C1093.006226,1237.557739 1079.504761,1236.692993 1066.026489,1236.098755 
	C1055.017578,1235.613525 1043.968140,1236.129395 1032.940186,1235.963745 
	C1021.840149,1235.797119 1010.742249,1235.396729 999.647339,1234.991699 
	C982.782471,1234.376343 965.925842,1233.457886 949.056458,1233.065674 
	C935.200867,1232.743530 921.330933,1233.099976 907.468872,1232.978271 
	C882.116028,1232.755371 856.794128,1232.675659 831.421814,1231.380737 
	C800.176575,1229.786377 768.787842,1231.068481 737.461670,1230.946899 
	C730.535950,1230.920044 723.596008,1230.407959 716.692993,1229.783203 
	C708.550720,1229.046143 700.460693,1227.652832 692.310364,1227.114136 
	C687.753357,1226.812866 683.117249,1227.986084 678.521362,1227.947632 
	C651.426331,1227.720947 624.333191,1227.176758 597.238098,1227.072754 
	C585.482361,1227.027710 573.723450,1227.777710 561.632751,1227.995605 
	C560.187439,1223.897827 559.075378,1219.971069 558.408203,1216.013184 
	C560.518250,1215.978027 562.310303,1216.353638 563.808960,1215.852295 
	C565.048828,1215.437378 566.764771,1214.063599 566.865540,1212.983765 
	C568.364075,1196.912964 569.666809,1180.823242 570.929504,1164.731445 
	C571.420288,1158.477539 571.533508,1152.191895 572.108459,1145.947388 
	C572.936462,1136.954590 574.267151,1128.004272 574.949951,1119.002930 
	C575.861694,1106.984497 576.164307,1094.919678 577.082947,1082.901855 
	C578.174072,1068.628662 579.744690,1054.392578 580.912048,1040.124390 
	C581.773376,1029.596069 582.228577,1019.035095 583.048950,1008.502991 
	C583.456360,1003.272522 584.430725,998.087097 584.870300,992.857910 
	C585.325012,987.448364 586.076355,981.945923 585.531494,976.603027 
	C584.972961,971.126465 582.979919,965.799255 581.652039,960.397522 
	C572.321655,922.440979 563.048462,884.470398 553.657104,846.528992 
	C548.902222,827.319031 543.850403,808.182495 539.096008,788.972412 
	C534.572388,770.695007 530.358643,752.340820 525.813049,734.068970 
	C523.726501,725.681519 521.172119,717.410461 518.918213,708.697876 
	C519.619568,706.449890 521.066162,704.414185 520.716003,702.758667 
	C517.332886,686.765381 513.554626,670.856323 510.068268,654.884094 
	C502.635315,620.831299 495.326996,586.751404 487.933655,552.689941 
	C480.992401,520.711243 473.886566,488.767426 467.171997,456.741425 
	C466.162567,451.926880 465.037598,445.643738 467.220062,441.976410 
	C471.253815,435.198212 477.239532,429.335968 483.243256,424.033203 
	C492.312103,416.023132 502.093536,408.819763 511.189453,401.578186 
	C510.197601,398.343750 509.212341,395.130737 508.509094,391.777008 
	C517.605469,383.732635 526.498474,375.914398 535.209900,367.898834 
	C542.439575,361.246582 549.507996,354.654633 552.847595,344.726654 
	C557.938904,329.591125 563.978027,314.774597 569.603516,299.818451 
	C573.731384,288.843872 577.948425,277.901245 581.932678,266.874664 
	C587.025024,252.781494 591.913452,238.614746 596.908569,224.486343 
	C599.950867,215.881348 602.893250,207.237411 606.138184,198.709000 
	C608.252319,193.152649 609.784546,186.924088 613.397522,182.474518 
	C623.684448,169.805573 635.484314,158.352020 641.130920,142.433350 
	C644.695740,132.383316 648.800903,122.524925 652.663757,112.580574 
	C652.062744,112.267586 651.461792,111.954605 650.860779,111.641624 
	C649.648376,113.228653 648.201904,114.689934 647.268921,116.427017 
	C644.758911,121.099915 642.565735,125.943947 640.020996,130.596512 
	C639.394165,131.742477 637.905518,132.417053 636.813049,133.308334 
	C639.158997,121.485123 642.178101,110.647278 644.999146,99.758118 
	C645.465393,97.958298 645.064819,95.933891 645.064819,94.013275 
	C644.363647,93.935822 643.662476,93.858368 642.961304,93.780922 
	C640.855164,99.788216 638.948486,105.875313 636.585938,111.780029 
	C634.297852,117.498444 633.347839,124.080185 627.427856,127.925156 
	C630.405396,113.804977 636.144592,100.289566 633.335815,84.140717 
	C631.920349,87.605385 630.543213,89.827141 630.120361,92.217690 
	C628.593933,100.848495 626.873596,109.259537 622.269653,117.034615 
	C620.686707,119.707924 619.700439,120.179596 617.585938,119.757225 
	C618.625977,107.435776 619.644836,95.365082 620.663696,83.294380 
	C620.053589,83.178345 619.443542,83.062302 618.833435,82.946259 
	C618.219910,83.959129 617.295288,84.901237 617.045959,85.996971 
	C615.900391,91.032249 615.520081,96.315720 613.805481,101.132912 
	C609.490723,113.254951 604.695618,125.211411 599.761658,137.096649 
	C599.394714,137.980515 595.838318,138.631210 594.705933,137.910782 
	C590.595154,135.295471 588.712830,131.375458 591.176147,126.611115 
	C592.908447,123.260529 591.711853,121.431175 588.584656,119.817307 
	C584.834229,126.907753 580.746765,133.733780 582.082947,141.986557 
	C582.924805,147.185806 584.710754,152.227798 585.656250,157.416306 
	C586.212402,160.468597 586.911072,164.031525 585.888367,166.738739 
	C582.158691,176.611633 578.023743,186.359726 573.496399,195.896103 
	C567.365601,208.810028 560.659424,221.449417 554.331421,234.271454 
	C544.120422,254.961426 534.310059,275.855652 523.731689,296.354675 
	C519.120361,305.290710 515.980591,315.355591 507.002594,321.608795 
	C501.481598,325.454132 496.411072,329.946259 490.795593,334.008606 
	C489.018524,330.506653 486.873505,332.378204 485.276154,333.424011 
	C464.579712,346.974396 443.966095,360.651276 423.276886,374.212769 
	C414.943787,379.675018 406.477234,384.933685 397.648438,390.168854 
	C396.426605,386.362762 395.627686,382.672882 394.886658,378.570435 
	C394.565491,374.796753 394.186432,371.435608 393.992676,367.709412 
	C407.652771,366.007721 415.857025,359.016388 418.250427,345.397552 
	C420.355896,333.417236 421.393982,321.562347 420.226959,309.272644 
	C418.535645,291.461700 415.052612,274.580963 404.022400,259.580933 
	C405.040924,257.446442 405.838745,255.462784 407.201935,254.009460 
	C414.536835,246.189774 413.698151,231.362762 404.788818,226.506348 
	C394.219940,220.745331 383.715790,216.133316 370.363251,219.526505 
	C358.876068,222.445648 348.753204,227.905350 338.452423,232.745010 
	C326.594604,238.316238 318.119568,248.729202 310.603516,259.708832 
	C303.739532,269.735962 299.873657,279.868622 301.780212,292.404480 
	C303.380310,302.924927 307.923920,311.584991 313.434875,320.371490 
	C319.853241,330.604706 330.059052,336.730316 337.972443,345.286682 
	C343.277832,351.023132 346.375732,357.572998 348.064331,365.435547 
	C346.932159,375.750732 345.984924,385.618164 344.754395,395.450104 
	C344.346802,398.706696 343.209991,401.872040 342.019714,405.051239 
	C339.257538,403.624878 336.926147,402.144836 334.500305,400.840424 
	C309.123169,387.194916 283.730927,373.577545 258.342896,359.952362 
	C258.223145,360.501404 258.103424,361.050476 257.983673,361.599518 
	C256.986023,362.426819 255.988373,363.254089 254.596497,364.050598 
	C253.098419,363.806549 251.849091,363.856628 250.912979,363.339630 
	C240.425903,357.547638 229.854935,351.888336 219.589005,345.722992 
	C214.160690,342.462982 208.123581,340.063141 204.107925,334.549652 
	C192.729156,318.926575 181.046906,303.524780 169.515060,288.012909 
	C160.161591,275.431213 150.898026,262.782532 141.512161,250.225159 
	C131.194778,236.421494 120.675270,222.767105 110.509209,208.853760 
	C108.620270,206.268539 107.643028,203.324570 108.665955,199.292557 
	C112.218018,185.291550 110.349716,172.310287 98.626587,162.260941 
	C95.265572,163.861206 96.305695,166.011703 97.118469,168.750473 
	C98.021126,171.792145 98.117348,175.212631 97.826714,178.400909 
	C97.708992,179.692307 95.725754,181.640152 94.436218,181.772064 
	C93.072090,181.911591 91.021011,180.591553 90.138542,179.310684 
	C85.266998,172.239777 80.296593,165.192612 76.067444,157.736130 
	C71.944031,150.466019 68.706863,142.695831 64.991371,135.189346 
	C64.358025,133.909775 63.276211,132.852173 62.401577,131.692032 
	C61.690857,132.037354 60.980137,132.382660 60.269417,132.727966 
	C63.752365,144.340759 67.235313,155.953552 70.788300,167.799850 
	C66.600075,168.722809 64.604195,165.755264 63.092316,163.046875 
	C59.176651,156.032318 55.704586,148.771271 51.986702,141.644485 
	C50.923626,139.606689 49.625801,137.691360 48.435619,135.719864 
	C48.079613,146.595306 52.848324,155.525909 57.031033,164.747375 
	C58.912361,168.895096 63.876804,172.233688 61.139355,178.946518 
	C51.680862,169.147461 47.862545,156.184402 38.749821,145.383209 
	C38.749821,147.788300 38.315868,149.281525 38.818146,150.323364 
	C43.013416,159.025497 47.404026,167.633179 51.682667,176.295547 
	C52.993958,178.950333 54.140759,181.686371 55.362888,184.385193 
	C54.905632,184.690201 54.448380,184.995209 53.991123,185.300217 
	C45.665234,181.404556 44.298271,170.603622 35.497940,164.976959 
	C36.202282,166.980759 36.306660,167.568146 36.592392,168.047379 
	C41.578896,176.410919 46.947105,184.570724 51.499218,193.163239 
	C57.015594,203.575882 65.367744,211.030899 74.369934,218.236420 
	C81.596390,224.020630 89.405449,229.091141 93.892365,238.130249 
	C100.055405,250.545975 107.606316,262.283875 114.761383,274.192749 
	C121.022743,284.614166 127.659538,294.809723 133.944214,305.217529 
	C139.847778,314.994141 145.375793,324.998108 151.307632,334.756958 
	C158.842316,347.152710 167.410599,358.991669 174.059692,371.833618 
	C180.356766,383.995789 190.516632,390.875122 201.666763,397.353882 
	C211.971344,403.341339 221.950897,409.888184 232.069794,416.575317 
	C230.716171,420.751434 229.366348,424.540894 228.192963,427.835052 
	C241.749619,435.868469 254.858994,443.942688 268.266235,451.487610 
	C279.546539,457.835632 285.889557,467.181976 288.186768,479.790741 
	C289.208435,485.398346 291.384155,490.785034 292.726715,496.346680 
	C297.871765,517.660767 303.139587,538.950073 307.879517,560.355469 
	C311.704407,577.628418 314.845581,595.052979 318.272583,612.413757 
	C323.568207,639.240723 328.857513,666.068848 334.132965,692.899780 
	C337.797852,711.539062 341.377106,730.195557 345.160339,748.810730 
	C345.616760,751.056458 347.109680,753.091553 348.094482,755.650452 
	C348.373932,758.835510 348.567200,761.612915 349.011963,764.349426 
	C349.951202,770.128418 351.031311,775.884338 352.036560,781.652710 
	C353.686096,791.117798 355.308594,800.587646 356.968842,810.050781 
	C357.953339,815.662048 359.012543,821.260315 359.995361,826.871826 
	C361.707977,836.649902 363.372528,846.436340 365.086700,856.214111 
	C366.041901,861.662903 367.091644,867.095093 368.036682,872.545593 
	C369.727661,882.298523 371.324615,892.067993 373.055054,901.813843 
	C373.936340,906.776917 375.138336,911.683777 375.993408,916.650757 
	C378.259003,929.811523 380.390411,942.995178 382.624451,956.161438 
	C383.713989,962.582703 384.887146,968.990112 386.069061,975.395264 
	C387.896759,985.300232 389.838776,995.184998 391.564392,1005.107483 
	C392.013733,1007.691223 392.283844,1010.454041 391.873718,1013.012451 
	C390.432159,1022.004883 388.617493,1030.936768 387.021454,1039.905273 
	C384.994476,1051.295288 383.018799,1062.694702 381.065491,1074.097534 
	C379.359375,1084.057373 377.673828,1094.021118 376.054688,1103.995361 
	C374.409363,1114.130737 372.925232,1124.292603 371.243439,1134.421631 
	C369.588409,1144.389648 367.718811,1154.321777 366.044800,1164.286743 
	C364.317383,1174.569580 362.703552,1184.871704 361.056519,1195.167969 
	C359.964722,1201.993530 358.902008,1208.823730 357.882446,1215.295410 
	C361.540314,1215.981201 364.351013,1216.508301 367.089722,1217.491699 
	C367.037567,1223.956787 367.057373,1229.965454 366.923340,1236.286133 
	C362.764221,1240.143311 361.382843,1244.824463 360.598267,1249.974365 
	C357.715607,1250.675293 355.265472,1251.589844 352.736084,1251.954468 
	C343.845093,1253.236450 334.695984,1253.445068 326.071594,1255.696045 
	C312.251129,1259.303223 298.515350,1257.607300 284.765717,1256.748535 
	C273.337921,1256.035034 261.982727,1253.338013 250.580627,1253.240356 
	C236.260040,1253.117432 221.936478,1252.019043 207.501266,1254.638062 
	C197.730042,1256.411011 187.835464,1256.787476 178.795258,1261.556152 
	C176.862335,1262.575928 174.394592,1262.776489 172.140961,1262.961426 
	C159.041122,1264.037231 145.945801,1265.403198 132.820740,1265.859741 
	C122.977921,1266.201904 114.035469,1268.897461 105.253395,1272.973389 
	C98.681404,1276.023438 95.807526,1283.500610 100.609764,1286.884521 
	C105.643562,1290.431519 111.231682,1293.345703 116.896294,1295.801025 
	C122.729797,1298.329346 128.905319,1300.111206 135.010651,1301.956909 
	C140.116165,1303.500488 145.281052,1305.478882 150.516724,1305.834229 
	C162.907791,1306.675293 175.363159,1306.512939 187.779999,1307.047607 
	C197.951965,1307.485596 208.106003,1308.341553 218.267258,1309.022949 
	C218.757446,1309.055786 219.245682,1309.171997 219.726227,1309.285767 
	C227.012100,1311.009644 233.976685,1313.430420 241.834030,1313.247559 
	C253.806152,1312.968994 265.831177,1314.142822 277.806030,1315.060913 
	C287.229218,1315.783203 296.864410,1316.087280 305.906830,1318.469727 
	C310.657867,1319.721436 314.865509,1318.102905 319.269348,1319.077881 
	C323.376282,1319.987061 327.594727,1320.894409 331.768921,1320.917236 
	C360.583191,1321.074585 389.398865,1320.968018 418.213531,1321.085205 
	C419.811584,1321.091675 421.404633,1322.333374 423.000000,1323.000000 
M1453.066406,757.872681 
	C1450.043823,762.244080 1447.267700,766.813843 1443.944336,770.943176 
	C1438.116699,778.183960 1431.953613,785.154663 1425.174194,792.113647 
	C1422.644653,791.736511 1419.296387,790.137268 1417.724976,791.190125 
	C1410.233643,796.209473 1403.304565,802.057373 1396.029541,807.412292 
	C1376.209106,822.001587 1356.327271,836.507935 1336.415283,850.971924 
	C1335.385254,851.720093 1333.845947,851.767151 1332.195190,852.240662 
	C1332.101685,850.439026 1331.935303,849.290283 1331.999512,848.154541 
	C1332.624512,837.106567 1333.837646,826.060669 1333.835327,815.014343 
	C1333.828857,784.897156 1333.693604,754.769348 1332.840454,724.667480 
	C1332.411743,709.542053 1331.189819,694.321228 1328.764771,679.397339 
	C1324.918945,655.730408 1313.790283,635.688232 1295.233765,620.068115 
	C1284.637207,611.148376 1273.365601,602.896240 1265.923950,590.216309 
	C1266.972412,589.274719 1267.873901,588.021851 1269.094849,587.445496 
	C1274.329224,584.974731 1275.210327,579.928955 1275.839844,575.239807 
	C1277.519287,562.727844 1278.703247,550.147705 1279.984375,537.584534 
	C1281.366333,524.032227 1282.645020,510.469269 1283.949829,496.909180 
	C1284.987305,486.126343 1285.844727,475.322754 1287.121948,464.568787 
	C1287.452881,461.781616 1288.506592,457.224915 1290.166138,456.748444 
	C1302.013306,453.347321 1314.068481,450.631042 1326.128662,448.026733 
	C1333.760254,446.378784 1341.524658,445.351593 1349.200195,443.892242 
	C1350.075684,443.725769 1351.116333,442.709076 1351.469482,441.838776 
	C1352.498901,439.301453 1353.218506,436.638428 1354.937988,433.992554 
	C1364.278931,432.642487 1373.655151,431.497223 1382.953979,429.901611 
	C1405.507324,426.031738 1428.052002,422.098511 1450.547852,417.910278 
	C1467.984619,414.663940 1484.085693,407.527344 1499.758911,399.544952 
	C1509.729004,394.467102 1519.371582,388.715515 1528.973022,382.952789 
	C1539.385742,376.703094 1549.437012,369.843842 1559.929077,363.736908 
	C1565.339233,360.587891 1571.150146,357.605347 1577.167358,356.158569 
	C1584.087891,354.494568 1591.717285,355.614624 1598.530029,353.707611 
	C1607.612915,351.165192 1615.814819,352.590546 1624.220337,355.587952 
	C1627.186890,356.645874 1630.292236,357.314392 1633.334229,358.160675 
	C1633.468628,357.749603 1633.603027,357.338501 1633.737427,356.927429 
	C1627.714844,353.958679 1621.642090,351.084290 1615.711914,347.941223 
	C1614.533325,347.316528 1613.453857,345.746613 1613.210083,344.447174 
	C1613.093994,343.828003 1614.946655,342.305298 1616.079590,342.087616 
	C1619.270142,341.474609 1622.554565,341.365112 1625.793457,340.985016 
	C1630.739380,340.404510 1635.678223,339.763611 1640.619995,339.148346 
	C1640.629395,338.647919 1640.638794,338.147461 1640.648193,337.647034 
	C1638.848999,337.099518 1637.082642,336.264374 1635.244873,336.055542 
	C1628.250854,335.260895 1621.223022,334.757019 1614.236084,333.911774 
	C1613.093140,333.773529 1612.091919,332.463287 1611.025269,331.694641 
	C1611.865479,330.853546 1612.565674,329.563812 1613.570557,329.250153 
	C1617.575073,328.000122 1621.698730,327.138031 1625.733032,325.975128 
	C1631.189087,324.402374 1636.603394,322.685089 1642.035645,321.029816 
	C1641.850830,320.248199 1641.666016,319.466553 1641.481323,318.684906 
	C1629.386108,317.219940 1618.287109,325.150513 1605.863037,323.068970 
	C1614.258667,314.512512 1628.169800,315.334717 1636.572510,305.169312 
	C1632.543823,306.015137 1629.339844,306.457153 1626.276367,307.370880 
	C1612.697876,311.420959 1599.178345,315.668793 1585.598633,319.714752 
	C1579.459106,321.543976 1576.331543,319.389069 1577.057861,313.937439 
	C1577.417603,311.237183 1578.291382,308.598511 1579.020142,305.956085 
	C1580.000854,302.400177 1581.065918,298.867584 1582.094727,295.324951 
	C1581.416260,294.867706 1580.737793,294.410461 1580.059326,293.953186 
	C1579.446777,295.119110 1578.752197,296.249878 1578.234985,297.456543 
	C1574.807129,305.452637 1571.439819,313.474701 1568.008911,321.469452 
	C1564.784424,328.983246 1563.395142,338.047333 1552.951294,339.560608 
	C1551.493652,339.771851 1549.973999,339.784363 1548.587036,340.219788 
	C1533.051758,345.096436 1517.651123,350.444336 1501.985596,354.853241 
	C1484.777588,359.696320 1467.417114,364.082214 1449.963013,367.944122 
	C1432.729980,371.757141 1415.301025,374.688416 1397.940430,377.912292 
	C1396.983887,378.089966 1395.867188,377.405212 1394.951782,376.410919 
	C1395.272461,375.843414 1395.459839,375.105927 1395.934082,374.733856 
	C1403.438110,368.845734 1409.867065,362.065826 1414.902832,353.862915 
	C1416.268921,351.637695 1419.157593,349.781342 1421.732300,348.955109 
	C1439.291748,343.320190 1455.004395,335.136902 1466.160034,319.720123 
	C1478.808594,302.240082 1480.493042,282.849060 1475.585449,262.760712 
	C1468.856445,235.216293 1454.556396,212.853958 1428.707275,199.191086 
	C1417.266968,193.144196 1405.229004,191.434952 1392.579956,193.978775 
	C1380.557129,196.396652 1370.767090,202.943619 1362.611328,211.656982 
	C1359.319336,215.174194 1357.151489,215.030396 1353.304810,213.230911 
	C1338.315186,206.218918 1322.810303,204.849380 1306.879150,209.926041 
	C1295.702637,213.487610 1286.406128,219.704559 1278.662964,228.559143 
	C1277.349976,230.060577 1273.863281,230.773376 1271.746094,230.280899 
	C1256.828613,226.811020 1242.408691,228.250870 1228.730835,234.774841 
	C1210.338379,243.547455 1198.901733,258.677032 1192.084473,277.483124 
	C1186.203613,293.706299 1185.982666,309.532227 1195.767334,324.695984 
	C1198.202148,328.469147 1199.572876,332.961914 1201.203125,337.212006 
	C1202.801758,341.380341 1203.661743,345.885803 1205.652710,349.836639 
	C1208.307251,355.103821 1211.741333,359.978088 1214.996826,365.819824 
	C1217.427368,370.723969 1214.765259,374.872345 1212.216797,379.015259 
	C1204.400391,378.708130 1198.957764,373.672455 1194.034180,368.718872 
	C1184.256470,358.881897 1175.174316,348.353760 1165.776123,337.355713 
	C1163.851807,333.124451 1161.810425,328.942017 1160.023560,324.653473 
	C1152.390381,306.333649 1144.794556,287.997955 1137.259888,269.637390 
	C1132.250488,257.429871 1126.951050,245.318283 1122.542358,232.893768 
	C1117.914917,219.853058 1114.045288,206.534561 1110.117676,193.256622 
	C1105.311890,177.009781 1100.694092,160.704849 1096.275635,144.349228 
	C1095.766968,142.466019 1096.485474,139.728195 1097.601074,138.016129 
	C1103.786743,128.523026 1110.329834,119.263733 1116.610474,109.831009 
	C1118.110107,107.578560 1119.074951,104.969864 1120.285645,102.524979 
	C1119.848145,102.258911 1119.410645,101.992836 1118.973267,101.726768 
	C1115.055664,106.246597 1111.329712,110.952576 1107.168457,115.235672 
	C1102.718994,119.815643 1098.948242,118.883415 1097.075317,112.809875 
	C1093.893921,102.492645 1091.061890,92.068146 1087.947998,81.729385 
	C1085.948730,75.091576 1083.708008,68.526566 1081.575562,61.928928 
	C1077.616577,73.703682 1084.425171,84.360992 1083.960327,97.188560 
	C1081.835449,95.666153 1080.170532,95.062744 1079.533447,93.897430 
	C1078.086548,91.250572 1077.151855,88.324577 1075.996582,85.517181 
	C1073.367920,79.129623 1070.784546,72.722252 1068.026733,66.390945 
	C1067.712891,65.670700 1066.402710,65.384552 1065.554443,64.897133 
	C1065.262939,65.207870 1064.971436,65.518608 1064.679810,65.829346 
	C1067.695679,76.065331 1070.711548,86.301315 1073.727295,96.537308 
	C1073.148926,96.901169 1072.570557,97.265030 1071.992188,97.628899 
	C1070.661499,96.751587 1069.025513,96.127571 1068.052002,94.953987 
	C1063.363403,89.301514 1058.911621,83.452812 1054.226685,77.797104 
	C1053.386108,76.782326 1051.846069,76.346840 1049.713013,75.114861 
	C1053.261719,85.657272 1061.890869,92.320213 1062.072144,102.591133 
	C1061.634033,103.073830 1061.195923,103.556526 1060.757812,104.039223 
	C1053.976562,100.377892 1047.195312,96.716560 1039.251709,92.427643 
	C1040.302612,94.247337 1040.508179,95.148422 1041.055054,95.470749 
	C1056.866577,104.790840 1063.843872,120.889847 1070.227661,136.499771 
	C1073.912354,145.509949 1073.337402,156.416748 1073.904297,166.513428 
	C1074.914551,184.503052 1074.956055,202.550858 1076.144287,220.525299 
	C1076.884644,231.722870 1077.795044,243.160202 1080.766357,253.898514 
	C1084.880615,268.767731 1090.587158,283.249481 1096.378784,297.587341 
	C1102.956177,313.870636 1110.466309,329.775055 1117.390015,345.921783 
	C1119.932251,351.850739 1121.957520,358.001465 1124.060425,364.768066 
	C1123.610229,365.782349 1123.439697,367.206787 1122.660156,367.738373 
	C1119.622314,369.810181 1120.743896,372.003662 1122.082031,374.341736 
	C1128.422974,385.421753 1135.136841,396.311768 1140.942749,407.665802 
	C1144.377075,414.381866 1147.632690,421.650024 1148.708862,429.000763 
	C1150.233521,439.415588 1149.666992,450.135834 1150.006348,460.725128 
	C1150.329834,470.817261 1150.534546,480.915649 1151.040161,490.998810 
	C1151.526489,500.700592 1152.110229,510.407776 1153.046631,520.074280 
	C1154.529663,535.383850 1156.289795,550.667358 1158.030762,565.950745 
	C1159.623535,579.932556 1160.993896,593.955933 1163.214722,607.840576 
	C1163.932617,612.328369 1162.303467,617.884277 1167.075195,621.974976 
	C1167.027710,622.644531 1166.980225,623.314026 1166.322998,624.254822 
	C1158.949341,632.937988 1151.510864,641.567139 1144.217041,650.316833 
	C1132.927490,663.859741 1121.567993,677.349854 1110.550415,691.112183 
	C1098.814575,705.771484 1087.400757,720.689697 1075.920044,735.551697 
	C1058.481323,758.126587 1041.093384,780.763977 1027.116943,805.716553 
	C1024.478760,810.426392 1022.026978,816.294006 1022.375732,821.431396 
	C1023.556641,838.826477 1025.871094,856.154114 1028.065186,873.467896 
	C1029.927612,888.164673 1031.819092,902.879150 1034.438477,917.452637 
	C1037.141357,932.490784 1040.711670,947.374023 1043.951294,962.314514 
	C1049.410278,987.489746 1056.714355,1012.064392 1067.165649,1035.684814 
	C1068.886108,1039.573120 1070.610840,1041.756104 1074.990601,1041.865234 
	C1077.666382,1053.019043 1080.417480,1064.155518 1082.992432,1075.332520 
	C1084.803345,1083.193604 1086.374512,1091.109985 1087.950562,1099.728149 
	C1087.893433,1100.220093 1088.025635,1100.898193 1087.751465,1101.176758 
	C1078.820679,1110.250732 1073.607056,1121.578735 1069.139893,1133.157227 
	C1065.829468,1141.738159 1063.479736,1150.727295 1061.295654,1159.679443 
	C1060.737427,1161.968018 1061.694458,1165.638306 1063.347168,1167.098877 
	C1064.452637,1168.075806 1068.470459,1166.925903 1070.397461,1165.590820 
	C1076.767334,1161.177856 1083.213257,1156.711548 1088.849243,1151.432251 
	C1106.721069,1134.691406 1124.275391,1117.610229 1141.869507,1100.575073 
	C1146.230591,1096.352539 1146.170044,1093.834351 1141.959961,1089.493042 
	C1137.212891,1084.597900 1132.609009,1079.502686 1127.408203,1075.130371 
	C1123.985718,1072.253052 1119.618164,1070.499756 1114.896606,1068.041992 
	C1112.876953,1055.772827 1110.857300,1043.503662 1109.087769,1030.559204 
	C1109.780029,1029.844849 1110.344727,1028.866943 1111.185791,1028.460205 
	C1115.812378,1026.223145 1117.414673,1022.689026 1117.053345,1017.576233 
	C1116.423706,1008.663757 1116.319336,999.715027 1115.946533,990.783447 
	C1115.283203,974.897339 1114.604004,959.011780 1113.888794,943.127930 
	C1113.628296,937.343079 1113.390137,931.551208 1112.889282,925.784424 
	C1111.648438,911.496216 1110.593262,897.179565 1108.830688,882.952820 
	C1107.379272,871.238953 1105.481934,859.534607 1102.916138,848.019043 
	C1100.860840,838.793701 1100.100952,838.683105 1107.606812,832.949829 
	C1125.649292,819.168152 1143.900146,805.659546 1162.028076,791.989197 
	C1173.847534,783.076172 1185.551758,774.009888 1197.404785,765.142151 
	C1201.813843,761.843689 1206.499756,758.915222 1211.681763,756.241028 
	C1213.141846,761.255371 1214.613281,766.266418 1216.060181,771.284607 
	C1222.721924,794.387939 1228.981689,817.616760 1236.155762,840.559814 
	C1242.202759,859.898865 1248.960205,879.037048 1256.054565,898.020752 
	C1261.889038,913.633240 1268.203857,929.203552 1278.092651,942.779297 
	C1287.547363,955.759033 1290.170654,957.682129 1302.229370,953.020752 
	C1315.313477,947.962830 1328.057983,941.784607 1340.379150,935.049316 
	C1359.453003,924.622742 1376.273560,910.914246 1392.194946,896.207642 
	C1412.278687,877.656494 1429.963379,856.938477 1445.020020,834.133484 
	C1448.397461,829.018005 1455.191162,824.234375 1451.626099,815.854004 
	C1458.439331,807.044556 1465.064453,798.080444 1472.133667,789.481445 
	C1476.660522,783.974915 1481.842651,779.007263 1487.460083,773.968628 
	C1489.704712,775.335388 1491.867798,776.864319 1494.207642,778.041931 
	C1506.854614,784.406555 1520.579590,786.653564 1534.452148,787.801147 
	C1540.563721,788.306763 1546.891357,787.958191 1552.940186,786.932434 
	C1558.132812,786.051758 1558.905640,782.956360 1555.823730,778.765381 
	C1554.654053,777.174866 1553.276978,775.626160 1551.695068,774.466980 
	C1537.697876,764.211243 1523.803589,753.801270 1509.534668,743.934692 
	C1498.229126,736.117065 1486.384155,729.083496 1474.896606,721.522644 
	C1471.102783,719.025574 1468.039062,719.280334 1465.588867,722.990479 
	C1463.678955,725.882568 1461.691406,728.886719 1460.611206,732.131653 
	C1457.865601,740.380005 1455.609741,748.791382 1453.066406,757.872681 
z"/>
<path fill="#50BEA1" opacity="1.000000" stroke="none" 
	d="
M561.966003,1228.166748 
	C573.723450,1227.777710 585.482361,1227.027710 597.238098,1227.072754 
	C624.333191,1227.176758 651.426331,1227.720947 678.521362,1227.947632 
	C683.117249,1227.986084 687.753357,1226.812866 692.310364,1227.114136 
	C700.460693,1227.652832 708.550720,1229.046143 716.692993,1229.783203 
	C723.596008,1230.407959 730.535950,1230.920044 737.461670,1230.946899 
	C768.787842,1231.068481 800.176575,1229.786377 831.421814,1231.380737 
	C856.794128,1232.675659 882.116028,1232.755371 907.468872,1232.978271 
	C921.330933,1233.099976 935.200867,1232.743530 949.056458,1233.065674 
	C965.925842,1233.457886 982.782471,1234.376343 999.647339,1234.991699 
	C1010.742249,1235.396729 1021.840149,1235.797119 1032.940186,1235.963745 
	C1043.968140,1236.129395 1055.017578,1235.613525 1066.026489,1236.098755 
	C1079.504761,1236.692993 1093.006226,1237.557739 1106.392334,1239.177002 
	C1116.365967,1240.383545 1126.133057,1243.210815 1136.068604,1244.853516 
	C1141.411499,1245.736816 1146.912109,1245.722412 1152.347900,1245.976440 
	C1160.942627,1246.377930 1169.544312,1246.629272 1178.140137,1247.011963 
	C1184.241333,1247.283569 1190.335815,1247.911743 1196.436401,1247.953979 
	C1214.782837,1248.081421 1233.135742,1248.260132 1251.477051,1247.928223 
	C1270.512085,1247.583740 1289.532349,1246.477783 1308.566895,1246.047607 
	C1332.157349,1245.514282 1355.754883,1245.251831 1379.350830,1245.028564 
	C1395.179443,1244.878784 1411.015869,1244.741333 1426.838623,1245.078369 
	C1440.531006,1245.369995 1454.265503,1245.784180 1467.876099,1247.175171 
	C1479.509888,1248.364258 1491.100708,1250.556030 1502.505615,1253.191162 
	C1509.625366,1254.835938 1516.710449,1257.464966 1523.187134,1260.847046 
	C1531.203369,1265.032959 1531.792847,1273.246582 1530.855347,1281.083862 
	C1530.008301,1288.164673 1525.869751,1293.648193 1518.911377,1295.882446 
	C1503.966553,1300.681030 1488.988647,1305.447754 1473.816895,1309.438721 
	C1465.989990,1311.497681 1457.724731,1311.913452 1449.646973,1312.991943 
	C1417.040283,1317.345703 1384.271484,1313.912720 1351.595947,1314.998901 
	C1341.331787,1315.340210 1331.061035,1316.050049 1320.804321,1315.889893 
	C1310.932129,1315.735840 1301.081909,1314.458008 1291.206543,1314.102783 
	C1286.126343,1313.919922 1281.015625,1314.885498 1275.913452,1314.955688 
	C1265.251099,1315.102295 1254.579590,1315.222412 1243.922119,1314.950195 
	C1224.555176,1314.455322 1205.199463,1313.474854 1185.831177,1313.119019 
	C1180.178955,1313.015259 1174.505737,1314.393799 1168.832642,1315.002441 
	C1156.125610,1316.365601 1143.395752,1317.531250 1130.709839,1319.065186 
	C1124.966187,1319.759766 1119.305420,1321.139404 1113.803467,1322.604248 
	C909.312439,1323.000000 704.624878,1323.000000 499.640564,1322.579102 
	C498.838135,1321.791016 498.334930,1321.107788 497.826477,1321.103882 
	C488.131927,1321.028931 478.436340,1320.999146 468.742584,1321.106812 
	C468.154755,1321.113281 467.580505,1322.340698 466.999969,1323.000000 
	C452.645782,1323.000000 438.291534,1323.000000 423.468658,1323.000000 
	C421.404633,1322.333374 419.811584,1321.091675 418.213531,1321.085205 
	C389.398865,1320.968018 360.583191,1321.074585 331.768921,1320.917236 
	C327.594727,1320.894409 323.376282,1319.987061 319.269348,1319.077881 
	C314.865509,1318.102905 310.657867,1319.721436 305.906830,1318.469727 
	C296.864410,1316.087280 287.229218,1315.783203 277.806030,1315.060913 
	C265.831177,1314.142822 253.806152,1312.968994 241.834030,1313.247559 
	C233.976685,1313.430420 227.012100,1311.009644 219.726227,1309.285767 
	C219.245682,1309.171997 218.757446,1309.055786 218.267258,1309.022949 
	C208.106003,1308.341553 197.951965,1307.485596 187.779999,1307.047607 
	C175.363159,1306.512939 162.907791,1306.675293 150.516724,1305.834229 
	C145.281052,1305.478882 140.116165,1303.500488 135.010651,1301.956909 
	C128.905319,1300.111206 122.729797,1298.329346 116.896294,1295.801025 
	C111.231682,1293.345703 105.643562,1290.431519 100.609764,1286.884521 
	C95.807526,1283.500610 98.681404,1276.023438 105.253395,1272.973389 
	C114.035469,1268.897461 122.977921,1266.201904 132.820740,1265.859741 
	C145.945801,1265.403198 159.041122,1264.037231 172.140961,1262.961426 
	C174.394592,1262.776489 176.862335,1262.575928 178.795258,1261.556152 
	C187.835464,1256.787476 197.730042,1256.411011 207.501266,1254.638062 
	C221.936478,1252.019043 236.260040,1253.117432 250.580627,1253.240356 
	C261.982727,1253.338013 273.337921,1256.035034 284.765717,1256.748535 
	C298.515350,1257.607300 312.251129,1259.303223 326.071594,1255.696045 
	C334.695984,1253.445068 343.845093,1253.236450 352.736084,1251.954468 
	C355.265472,1251.589844 357.715607,1250.675293 360.639557,1250.317505 
	C361.077026,1259.857910 361.077026,1269.093872 361.077026,1278.743408 
	C365.225037,1279.078979 369.983063,1279.695679 374.752594,1279.803345 
	C385.848511,1280.053833 396.950378,1280.028809 408.049103,1280.170044 
	C425.782867,1280.395630 443.517578,1280.902710 461.248596,1280.786133 
	C467.326263,1280.746216 473.393982,1279.191895 480.101410,1278.239258 
	C477.900665,1275.365356 476.630676,1273.425659 475.085876,1271.737305 
	C467.328918,1263.259766 458.651337,1256.124023 448.023743,1251.267578 
	C442.003601,1248.516479 436.634460,1244.340820 431.436218,1240.896362 
	C441.118134,1240.656006 450.339966,1240.409180 459.552338,1239.965210 
	C465.278564,1239.689453 471.020599,1239.350708 476.702179,1238.623535 
	C487.815338,1237.201538 498.891144,1235.487671 510.408630,1233.943481 
	C512.281616,1234.052979 513.728455,1234.113525 515.238647,1234.433594 
	C515.649963,1235.077148 515.997925,1235.461304 516.299805,1236.206543 
	C516.243774,1237.850464 516.735840,1239.458252 516.147583,1240.366333 
	C508.662140,1251.920532 512.430542,1265.526367 507.878204,1279.110962 
	C540.576172,1279.691040 572.009277,1280.418335 603.446228,1280.681274 
	C610.873352,1280.743530 618.356689,1279.520996 625.732788,1278.368408 
	C630.807617,1277.575562 631.644409,1275.782471 628.002197,1272.303223 
	C620.609070,1265.240723 613.179016,1257.757690 604.474243,1252.643433 
	C593.535095,1246.216431 581.303650,1241.989136 569.477173,1236.548096 
	C566.871704,1233.578003 564.418884,1230.872314 561.966003,1228.166748 
z"/>
<path fill="#000000" opacity="000000" stroke="none" 
	d="
M467.468628,1323.000000 
	C467.580505,1322.340698 468.154755,1321.113281 468.742584,1321.106812 
	C478.436340,1320.999146 488.131927,1321.028931 497.826477,1321.103882 
	C498.334930,1321.107788 498.838135,1321.791016 499.171875,1322.579102 
	C488.645782,1323.000000 478.291534,1323.000000 467.468628,1323.000000 
z"/>
<path fill="#466EB6" opacity="1.000000" stroke="none" 
	d="
M398.071411,390.285034 
	C406.477234,384.933685 414.943787,379.675018 423.276886,374.212769 
	C443.966095,360.651276 464.579712,346.974396 485.276154,333.424011 
	C486.873505,332.378204 489.018524,330.506653 490.799316,334.389191 
	C491.726715,336.977295 492.274353,339.055542 492.893982,341.112122 
	C497.997437,358.049591 503.114258,374.983063 508.227051,391.917725 
	C509.212341,395.130737 510.197601,398.343750 511.189453,401.578186 
	C502.093536,408.819763 492.312103,416.023132 483.243256,424.033203 
	C477.239532,429.335968 471.253815,435.198212 467.220062,441.976410 
	C465.037598,445.643738 466.162567,451.926880 467.171997,456.741425 
	C473.886566,488.767426 480.992401,520.711243 487.933655,552.689941 
	C495.326996,586.751404 502.635315,620.831299 510.068268,654.884094 
	C513.554626,670.856323 517.332886,686.765381 520.716003,702.758667 
	C521.066162,704.414185 519.619568,706.449890 518.569580,708.727905 
	C516.996216,709.763916 515.896240,710.462952 514.718140,710.985840 
	C504.079132,715.707214 493.406128,720.352356 482.788483,725.120911 
	C478.784882,726.919006 474.900085,728.981628 470.562683,730.910767 
	C462.632202,733.549744 455.196564,736.529236 447.546509,738.779968 
	C434.766235,742.540100 421.841522,745.807617 408.991272,749.332336 
	C395.586365,753.009155 382.010895,755.447632 368.049408,755.306580 
	C361.407410,755.239441 354.764618,755.249268 348.122192,755.224243 
	C347.109680,753.091553 345.616760,751.056458 345.160339,748.810730 
	C341.377106,730.195557 337.797852,711.539062 334.132965,692.899780 
	C328.857513,666.068848 323.568207,639.240723 318.272583,612.413757 
	C314.845581,595.052979 311.704407,577.628418 307.879517,560.355469 
	C303.139587,538.950073 297.871765,517.660767 292.726715,496.346680 
	C291.384155,490.785034 289.208435,485.398346 288.186768,479.790741 
	C285.889557,467.181976 279.546539,457.835632 268.266235,451.487610 
	C254.858994,443.942688 241.749619,435.868469 228.192963,427.835052 
	C229.366348,424.540894 230.716171,420.751434 232.299988,416.306702 
	C236.410202,407.626099 240.548920,399.714630 244.092331,391.544952 
	C248.009430,382.513733 251.381348,373.246063 254.990723,364.081360 
	C255.988373,363.254089 256.986023,362.426819 257.983673,361.599518 
	C258.103424,361.050476 258.223145,360.501404 258.342896,359.952362 
	C283.730927,373.577545 309.123169,387.194916 334.500305,400.840424 
	C336.926147,402.144836 339.257538,403.624878 342.055878,405.378723 
	C349.042664,416.777405 356.908478,426.770050 367.267365,434.462036 
	C381.013641,444.669189 392.697266,440.593018 397.785828,425.447021 
	C401.773651,413.577301 401.237030,402.030243 398.071411,390.285034 
z"/>
<path fill="#466EB6" opacity="1.000000" stroke="none" 
	d="
M1451.017700,816.261292 
	C1455.191162,824.234375 1448.397461,829.018005 1445.020020,834.133484 
	C1429.963379,856.938477 1412.278687,877.656494 1392.194946,896.207642 
	C1376.273560,910.914246 1359.453003,924.622742 1340.379150,935.049316 
	C1328.057983,941.784607 1315.313477,947.962830 1302.229370,953.020752 
	C1290.170654,957.682129 1287.547363,955.759033 1278.092651,942.779297 
	C1268.203857,929.203552 1261.889038,913.633240 1256.054565,898.020752 
	C1248.960205,879.037048 1242.202759,859.898865 1236.155762,840.559814 
	C1228.981689,817.616760 1222.721924,794.387939 1216.060181,771.284607 
	C1214.613281,766.266418 1213.141846,761.255371 1211.339844,755.649780 
	C1206.568359,737.559692 1202.096191,720.071594 1197.725220,702.558167 
	C1194.961670,691.485840 1193.650879,679.841125 1189.364380,669.408020 
	C1182.962036,653.824890 1174.511841,639.083191 1166.932861,623.983521 
	C1166.980225,623.314026 1167.027710,622.644531 1167.464600,621.653076 
	C1170.286377,621.647766 1172.860840,622.640442 1175.126587,622.164307 
	C1185.189087,620.049683 1195.300537,617.970154 1205.132202,615.008362 
	C1215.994873,611.736084 1226.691040,607.815674 1237.238159,603.620483 
	C1246.905273,599.775391 1256.277222,595.188110 1265.779175,590.927856 
	C1273.365601,602.896240 1284.637207,611.148376 1295.233765,620.068115 
	C1313.790283,635.688232 1324.918945,655.730408 1328.764771,679.397339 
	C1331.189819,694.321228 1332.411743,709.542053 1332.840454,724.667480 
	C1333.693604,754.769348 1333.828857,784.897156 1333.835327,815.014343 
	C1333.837646,826.060669 1332.624512,837.106567 1331.999512,848.154541 
	C1331.935303,849.290283 1332.101685,850.439026 1332.195190,852.240662 
	C1333.845947,851.767151 1335.385254,851.720093 1336.415283,850.971924 
	C1356.327271,836.507935 1376.209106,822.001587 1396.029541,807.412292 
	C1403.304565,802.057373 1410.233643,796.209473 1417.724976,791.190125 
	C1419.296387,790.137268 1422.644653,791.736511 1425.778442,792.415100 
	C1429.675903,795.716309 1433.036743,798.645569 1436.246460,801.732056 
	C1441.224487,806.518860 1446.099243,811.412781 1451.017700,816.261292 
z"/>
<path fill="#F37458" opacity="1.000000" stroke="none" 
	d="
M348.094482,755.650452 
	C354.764618,755.249268 361.407410,755.239441 368.049408,755.306580 
	C382.010895,755.447632 395.586365,753.009155 408.991272,749.332336 
	C421.841522,745.807617 434.766235,742.540100 447.546509,738.779968 
	C455.196564,736.529236 462.632202,733.549744 470.576080,731.310669 
	C473.696564,741.096069 477.227020,750.319580 476.038879,760.384888 
	C475.651031,763.670532 475.165314,766.962708 475.071625,770.261719 
	C474.661102,784.714844 474.330292,799.170776 474.059784,813.627319 
	C473.655304,835.243042 473.324860,856.860229 472.965271,878.476746 
	C472.915405,881.473145 472.878906,884.469727 472.649780,887.782104 
	C471.940826,909.056152 471.445190,930.015076 470.886230,950.972351 
	C470.526917,964.444641 471.298096,978.092834 469.366425,991.342041 
	C466.711700,1009.551025 462.031586,1027.468384 458.122375,1045.489746 
	C453.825989,1065.296143 449.415222,1085.077637 445.062622,1104.871826 
	C441.422791,1121.424438 437.795319,1137.979736 434.161621,1154.533691 
	C429.673309,1174.980835 425.184296,1195.427856 420.251343,1215.909180 
	C402.258667,1216.307373 384.710175,1216.671387 367.161682,1217.035278 
	C364.351013,1216.508301 361.540314,1215.981201 357.882446,1215.295410 
	C358.902008,1208.823730 359.964722,1201.993530 361.056519,1195.167969 
	C362.703552,1184.871704 364.317383,1174.569580 366.044800,1164.286743 
	C367.718811,1154.321777 369.588409,1144.389648 371.243439,1134.421631 
	C372.925232,1124.292603 374.409363,1114.130737 376.054688,1103.995361 
	C377.673828,1094.021118 379.359375,1084.057373 381.065491,1074.097534 
	C383.018799,1062.694702 384.994476,1051.295288 387.021454,1039.905273 
	C388.617493,1030.936768 390.432159,1022.004883 391.873718,1013.012451 
	C392.283844,1010.454041 392.013733,1007.691223 391.564392,1005.107483 
	C389.838776,995.184998 387.896759,985.300232 386.069061,975.395264 
	C384.887146,968.990112 383.713989,962.582703 382.624451,956.161438 
	C380.390411,942.995178 378.259003,929.811523 375.993408,916.650757 
	C375.138336,911.683777 373.936340,906.776917 373.055054,901.813843 
	C371.324615,892.067993 369.727661,882.298523 368.036682,872.545593 
	C367.091644,867.095093 366.041901,861.662903 365.086700,856.214111 
	C363.372528,846.436340 361.707977,836.649902 359.995361,826.871826 
	C359.012543,821.260315 357.953339,815.662048 356.968842,810.050781 
	C355.308594,800.587646 353.686096,791.117798 352.036560,781.652710 
	C351.031311,775.884338 349.951202,770.128418 349.011963,764.349426 
	C348.567200,761.612915 348.373932,758.835510 348.094482,755.650452 
z"/>
<path fill="#14375A" opacity="1.000000" stroke="none" 
	d="
M1214.840576,365.021118 
	C1211.741333,359.978088 1208.307251,355.103821 1205.652710,349.836639 
	C1203.661743,345.885803 1202.801758,341.380341 1201.203125,337.212006 
	C1199.572876,332.961914 1198.202148,328.469147 1195.767334,324.695984 
	C1185.982666,309.532227 1186.203613,293.706299 1192.084473,277.483124 
	C1198.901733,258.677032 1210.338379,243.547455 1228.730835,234.774841 
	C1242.408691,228.250870 1256.828613,226.811020 1271.746094,230.280899 
	C1273.863281,230.773376 1277.349976,230.060577 1278.662964,228.559143 
	C1286.406128,219.704559 1295.702637,213.487610 1306.879150,209.926041 
	C1322.810303,204.849380 1338.315186,206.218918 1353.304810,213.230911 
	C1357.151489,215.030396 1359.319336,215.174194 1362.611328,211.656982 
	C1370.767090,202.943619 1380.557129,196.396652 1392.579956,193.978775 
	C1405.229004,191.434952 1417.266968,193.144196 1428.707275,199.191086 
	C1454.556396,212.853958 1468.856445,235.216293 1475.585449,262.760712 
	C1480.493042,282.849060 1478.808594,302.240082 1466.160034,319.720123 
	C1455.004395,335.136902 1439.291748,343.320190 1421.732300,348.955109 
	C1419.157593,349.781342 1416.268921,351.637695 1414.902832,353.862915 
	C1409.867065,362.065826 1403.438110,368.845734 1395.934082,374.733856 
	C1395.459839,375.105927 1395.272461,375.843414 1394.510742,376.808167 
	C1380.648071,379.875641 1367.226440,382.545868 1353.416992,385.158142 
	C1351.721313,383.316345 1350.413696,381.532440 1348.431885,378.828644 
	C1314.797119,378.828644 1279.979004,378.828644 1245.111450,378.406799 
	C1245.671753,372.339996 1246.281494,366.695038 1247.007812,360.675781 
	C1247.718506,357.189148 1248.312622,354.076782 1249.226929,350.816101 
	C1255.289917,346.509277 1261.017944,342.330048 1266.790283,338.213043 
	C1267.740723,337.535248 1268.937744,336.589722 1269.933472,336.684479 
	C1279.102417,337.556732 1286.712158,330.807312 1286.744019,321.578491 
	C1286.760498,316.794525 1284.356201,314.326996 1279.702515,313.611450 
	C1277.935059,313.339691 1275.809570,312.414124 1274.759644,311.072540 
	C1272.528564,308.222168 1270.136597,305.124054 1269.153076,301.737640 
	C1265.498169,289.153107 1262.449707,276.393524 1258.995605,263.748291 
	C1258.544556,262.096497 1257.355835,259.811218 1256.004272,259.371979 
	C1244.958374,255.782196 1234.358032,256.790070 1225.832642,265.190430 
	C1220.697632,270.250214 1216.709351,276.473724 1212.140381,282.256989 
	C1206.722168,279.141083 1203.013184,280.618195 1202.089478,287.650696 
	C1201.569336,291.610260 1201.867432,296.136719 1203.355713,299.769165 
	C1204.791260,303.272888 1204.833252,306.274109 1204.371216,309.788086 
	C1202.871094,321.196625 1204.000000,332.444733 1211.375732,341.582703 
	C1215.514771,346.710602 1216.443359,351.617401 1215.549927,357.565338 
	C1215.179688,360.030518 1215.069214,362.534698 1214.840576,365.021118 
z"/>
<path fill="#F37458" opacity="1.000000" stroke="none" 
	d="
M1245.160889,378.828644 
	C1279.979004,378.828644 1314.797119,378.828644 1348.431885,378.828644 
	C1350.413696,381.532440 1351.721313,383.316345 1353.170166,385.385071 
	C1352.590698,386.717407 1351.195435,387.801788 1351.250244,388.806976 
	C1352.074219,403.885681 1353.089355,418.953949 1354.059448,434.024658 
	C1353.218506,436.638428 1352.498901,439.301453 1351.469482,441.838776 
	C1351.116333,442.709076 1350.075684,443.725769 1349.200195,443.892242 
	C1341.524658,445.351593 1333.760254,446.378784 1326.128662,448.026733 
	C1314.068481,450.631042 1302.013306,453.347321 1290.166138,456.748444 
	C1288.506592,457.224915 1287.452881,461.781616 1287.121948,464.568787 
	C1285.844727,475.322754 1284.987305,486.126343 1283.949829,496.909180 
	C1282.645020,510.469269 1281.366333,524.032227 1279.984375,537.584534 
	C1278.703247,550.147705 1277.519287,562.727844 1275.839844,575.239807 
	C1275.210327,579.928955 1274.329224,584.974731 1269.094849,587.445496 
	C1267.873901,588.021851 1266.972412,589.274719 1265.851562,590.572083 
	C1256.277222,595.188110 1246.905273,599.775391 1237.238159,603.620483 
	C1226.691040,607.815674 1215.994873,611.736084 1205.132202,615.008362 
	C1195.300537,617.970154 1185.189087,620.049683 1175.126587,622.164307 
	C1172.860840,622.640442 1170.286377,621.647766 1167.490356,621.317444 
	C1162.303467,617.884277 1163.932617,612.328369 1163.214722,607.840576 
	C1160.993896,593.955933 1159.623535,579.932556 1158.030762,565.950745 
	C1156.289795,550.667358 1154.529663,535.383850 1153.046631,520.074280 
	C1152.110229,510.407776 1151.526489,500.700592 1151.040161,490.998810 
	C1150.534546,480.915649 1150.329834,470.817261 1150.006348,460.725128 
	C1149.666992,450.135834 1150.233521,439.415588 1148.708862,429.000763 
	C1147.632690,421.650024 1144.377075,414.381866 1140.942749,407.665802 
	C1135.136841,396.311768 1128.422974,385.421753 1122.082031,374.341736 
	C1120.743896,372.003662 1119.622314,369.810181 1122.660156,367.738373 
	C1123.439697,367.206787 1123.610229,365.782349 1124.405640,364.221313 
	C1126.867554,361.586761 1128.848267,359.335876 1131.124146,357.439087 
	C1141.461060,348.823944 1151.548828,339.711151 1165.804810,338.111206 
	C1175.174316,348.353760 1184.256470,358.881897 1194.034180,368.718872 
	C1198.957764,373.672455 1204.400391,378.708130 1212.598633,379.468323 
	C1211.271118,385.975616 1209.243530,391.961639 1207.927734,398.100281 
	C1206.023193,406.986420 1203.569824,415.947357 1203.268555,424.940613 
	C1202.788452,439.272217 1212.386108,444.263824 1224.585327,438.314392 
	C1237.396606,432.066528 1240.340332,419.955170 1242.753174,408.030884 
	C1244.676880,398.523651 1244.439087,388.579071 1245.160889,378.828644 
z"/>
<path fill="#355389" opacity="1.000000" stroke="none" 
	d="
M1166.627930,624.119141 
	C1174.511841,639.083191 1182.962036,653.824890 1189.364380,669.408020 
	C1193.650879,679.841125 1194.961670,691.485840 1197.725220,702.558167 
	C1202.096191,720.071594 1206.568359,737.559692 1211.028564,755.438232 
	C1206.499756,758.915222 1201.813843,761.843689 1197.404785,765.142151 
	C1185.551758,774.009888 1173.847534,783.076172 1162.028076,791.989197 
	C1143.900146,805.659546 1125.649292,819.168152 1107.606812,832.949829 
	C1100.100952,838.683105 1100.860840,838.793701 1102.916138,848.019043 
	C1105.481934,859.534607 1107.379272,871.238953 1108.830688,882.952820 
	C1110.593262,897.179565 1111.648438,911.496216 1112.889282,925.784424 
	C1113.390137,931.551208 1113.628296,937.343079 1113.888794,943.127930 
	C1114.604004,959.011780 1115.283203,974.897339 1115.946533,990.783447 
	C1116.319336,999.715027 1116.423706,1008.663757 1117.053345,1017.576233 
	C1117.414673,1022.689026 1115.812378,1026.223145 1111.185791,1028.460205 
	C1110.344727,1028.866943 1109.780029,1029.844849 1108.618408,1030.943237 
	C1097.079590,1034.572998 1086.010132,1037.818848 1074.940674,1041.064697 
	C1070.610840,1041.756104 1068.886108,1039.573120 1067.165649,1035.684814 
	C1056.714355,1012.064392 1049.410278,987.489746 1043.951294,962.314514 
	C1040.711670,947.374023 1037.141357,932.490784 1034.438477,917.452637 
	C1031.819092,902.879150 1029.927612,888.164673 1028.065186,873.467896 
	C1025.871094,856.154114 1023.556641,838.826477 1022.375732,821.431396 
	C1022.026978,816.294006 1024.478760,810.426392 1027.116943,805.716553 
	C1041.093384,780.763977 1058.481323,758.126587 1075.920044,735.551697 
	C1087.400757,720.689697 1098.814575,705.771484 1110.550415,691.112183 
	C1121.567993,677.349854 1132.927490,663.859741 1144.217041,650.316833 
	C1151.510864,641.567139 1158.949341,632.937988 1166.627930,624.119141 
z"/>
<path fill="#B75742" opacity="1.000000" stroke="none" 
	d="
M472.836243,887.466248 
	C472.878906,884.469727 472.915405,881.473145 472.965271,878.476746 
	C473.324860,856.860229 473.655304,835.243042 474.059784,813.627319 
	C474.330292,799.170776 474.661102,784.714844 475.071625,770.261719 
	C475.165314,766.962708 475.651031,763.670532 476.038879,760.384888 
	C477.227020,750.319580 473.696564,741.096069 470.974548,731.323547 
	C474.900085,728.981628 478.784882,726.919006 482.788483,725.120911 
	C493.406128,720.352356 504.079132,715.707214 514.718140,710.985840 
	C515.896240,710.462952 516.996216,709.763916 518.481140,709.116577 
	C521.172119,717.410461 523.726501,725.681519 525.813049,734.068970 
	C530.358643,752.340820 534.572388,770.695007 539.096008,788.972412 
	C543.850403,808.182495 548.902222,827.319031 553.657104,846.528992 
	C563.048462,884.470398 572.321655,922.440979 581.652039,960.397522 
	C582.979919,965.799255 584.972961,971.126465 585.531494,976.603027 
	C586.076355,981.945923 585.325012,987.448364 584.870300,992.857910 
	C584.430725,998.087097 583.456360,1003.272522 583.048950,1008.502991 
	C582.228577,1019.035095 581.773376,1029.596069 580.912048,1040.124390 
	C579.744690,1054.392578 578.174072,1068.628662 577.082947,1082.901855 
	C576.164307,1094.919678 575.861694,1106.984497 574.949951,1119.002930 
	C574.267151,1128.004272 572.936462,1136.954590 572.108459,1145.947388 
	C571.533508,1152.191895 571.420288,1158.477539 570.929504,1164.731445 
	C569.666809,1180.823242 568.364075,1196.912964 566.865540,1212.983765 
	C566.764771,1214.063599 565.048828,1215.437378 563.808960,1215.852295 
	C562.310303,1216.353638 560.518250,1215.978027 557.944336,1216.033203 
	C543.636780,1216.484741 530.238159,1216.885132 516.402832,1217.211182 
	C514.584412,1216.980713 513.202576,1216.824463 511.805389,1216.666382 
	C511.805389,1214.738037 511.799255,1213.409180 511.806335,1212.080322 
	C512.172852,1143.332886 512.629639,1074.585693 512.781189,1005.837769 
	C512.797791,998.283203 512.473022,990.202820 509.900757,983.257385 
	C498.011536,951.154541 485.271423,919.366882 472.836243,887.466248 
z"/>
<path fill="#F8A393" opacity="1.000000" stroke="none" 
	d="
M254.596497,364.050598 
	C251.381348,373.246063 248.009430,382.513733 244.092331,391.544952 
	C240.548920,399.714630 236.410202,407.626099 232.303802,415.920044 
	C221.950897,409.888184 211.971344,403.341339 201.666763,397.353882 
	C190.516632,390.875122 180.356766,383.995789 174.059692,371.833618 
	C167.410599,358.991669 158.842316,347.152710 151.307632,334.756958 
	C145.375793,324.998108 139.847778,314.994141 133.944214,305.217529 
	C127.659538,294.809723 121.022743,284.614166 114.761383,274.192749 
	C107.606316,262.283875 100.055405,250.545975 93.892365,238.130249 
	C89.405449,229.091141 81.596390,224.020630 74.369934,218.236420 
	C65.367744,211.030899 57.015594,203.575882 51.499218,193.163239 
	C46.947105,184.570724 41.578896,176.410919 36.592392,168.047379 
	C36.306660,167.568146 36.202282,166.980759 35.497940,164.976959 
	C44.298271,170.603622 45.665234,181.404556 53.991123,185.300217 
	C54.448380,184.995209 54.905632,184.690201 55.362888,184.385193 
	C54.140759,181.686371 52.993958,178.950333 51.682667,176.295547 
	C47.404026,167.633179 43.013416,159.025497 38.818146,150.323364 
	C38.315868,149.281525 38.749821,147.788300 38.749821,145.383209 
	C47.862545,156.184402 51.680862,169.147461 61.139355,178.946518 
	C63.876804,172.233688 58.912361,168.895096 57.031033,164.747375 
	C52.848324,155.525909 48.079613,146.595306 48.435619,135.719864 
	C49.625801,137.691360 50.923626,139.606689 51.986702,141.644485 
	C55.704586,148.771271 59.176651,156.032318 63.092316,163.046875 
	C64.604195,165.755264 66.600075,168.722809 70.788300,167.799850 
	C67.235313,155.953552 63.752365,144.340759 60.269417,132.727966 
	C60.980137,132.382660 61.690857,132.037354 62.401577,131.692032 
	C63.276211,132.852173 64.358025,133.909775 64.991371,135.189346 
	C68.706863,142.695831 71.944031,150.466019 76.067444,157.736130 
	C80.296593,165.192612 85.266998,172.239777 90.138542,179.310684 
	C91.021011,180.591553 93.072090,181.911591 94.436218,181.772064 
	C95.725754,181.640152 97.708992,179.692307 97.826714,178.400909 
	C98.117348,175.212631 98.021126,171.792145 97.118469,168.750473 
	C96.305695,166.011703 95.265572,163.861206 98.626587,162.260941 
	C110.349716,172.310287 112.218018,185.291550 108.665955,199.292557 
	C107.643028,203.324570 108.620270,206.268539 110.509209,208.853760 
	C120.675270,222.767105 131.194778,236.421494 141.512161,250.225159 
	C150.898026,262.782532 160.161591,275.431213 169.515060,288.012909 
	C181.046906,303.524780 192.729156,318.926575 204.107925,334.549652 
	C208.123581,340.063141 214.160690,342.462982 219.589005,345.722992 
	C229.854935,351.888336 240.425903,357.547638 250.912979,363.339630 
	C251.849091,363.856628 253.098419,363.806549 254.596497,364.050598 
z"/>
<path fill="#F8A393" opacity="1.000000" stroke="none" 
	d="
M508.509094,391.777008 
	C503.114258,374.983063 497.997437,358.049591 492.893982,341.112122 
	C492.274353,339.055542 491.726715,336.977295 491.141998,334.528503 
	C496.411072,329.946259 501.481598,325.454132 507.002594,321.608795 
	C515.980591,315.355591 519.120361,305.290710 523.731689,296.354675 
	C534.310059,275.855652 544.120422,254.961426 554.331421,234.271454 
	C560.659424,221.449417 567.365601,208.810028 573.496399,195.896103 
	C578.023743,186.359726 582.158691,176.611633 585.888367,166.738739 
	C586.911072,164.031525 586.212402,160.468597 585.656250,157.416306 
	C584.710754,152.227798 582.924805,147.185806 582.082947,141.986557 
	C580.746765,133.733780 584.834229,126.907753 588.584656,119.817307 
	C591.711853,121.431175 592.908447,123.260529 591.176147,126.611115 
	C588.712830,131.375458 590.595154,135.295471 594.705933,137.910782 
	C595.838318,138.631210 599.394714,137.980515 599.761658,137.096649 
	C604.695618,125.211411 609.490723,113.254951 613.805481,101.132912 
	C615.520081,96.315720 615.900391,91.032249 617.045959,85.996971 
	C617.295288,84.901237 618.219910,83.959129 618.833435,82.946259 
	C619.443542,83.062302 620.053589,83.178345 620.663696,83.294380 
	C619.644836,95.365082 618.625977,107.435776 617.585938,119.757225 
	C619.700439,120.179596 620.686707,119.707924 622.269653,117.034615 
	C626.873596,109.259537 628.593933,100.848495 630.120361,92.217690 
	C630.543213,89.827141 631.920349,87.605385 633.335815,84.140717 
	C636.144592,100.289566 630.405396,113.804977 627.427856,127.925156 
	C633.347839,124.080185 634.297852,117.498444 636.585938,111.780029 
	C638.948486,105.875313 640.855164,99.788216 642.961304,93.780922 
	C643.662476,93.858368 644.363647,93.935822 645.064819,94.013275 
	C645.064819,95.933891 645.465393,97.958298 644.999146,99.758118 
	C642.178101,110.647278 639.158997,121.485123 636.813049,133.308334 
	C637.905518,132.417053 639.394165,131.742477 640.020996,130.596512 
	C642.565735,125.943947 644.758911,121.099915 647.268921,116.427017 
	C648.201904,114.689934 649.648376,113.228653 650.860779,111.641624 
	C651.461792,111.954605 652.062744,112.267586 652.663757,112.580574 
	C648.800903,122.524925 644.695740,132.383316 641.130920,142.433350 
	C635.484314,158.352020 623.684448,169.805573 613.397522,182.474518 
	C609.784546,186.924088 608.252319,193.152649 606.138184,198.709000 
	C602.893250,207.237411 599.950867,215.881348 596.908569,224.486343 
	C591.913452,238.614746 587.025024,252.781494 581.932678,266.874664 
	C577.948425,277.901245 573.731384,288.843872 569.603516,299.818451 
	C563.978027,314.774597 557.938904,329.591125 552.847595,344.726654 
	C549.507996,354.654633 542.439575,361.246582 535.209900,367.898834 
	C526.498474,375.914398 517.605469,383.732635 508.509094,391.777008 
z"/>
<path fill="#F8A392" opacity="1.000000" stroke="none" 
	d="
M1354.498779,434.008606 
	C1353.089355,418.953949 1352.074219,403.885681 1351.250244,388.806976 
	C1351.195435,387.801788 1352.590698,386.717407 1353.558228,385.442993 
	C1367.226440,382.545868 1380.648071,379.875641 1394.447266,377.163635 
	C1395.867188,377.405212 1396.983887,378.089966 1397.940430,377.912292 
	C1415.301025,374.688416 1432.729980,371.757141 1449.963013,367.944122 
	C1467.417114,364.082214 1484.777588,359.696320 1501.985596,354.853241 
	C1517.651123,350.444336 1533.051758,345.096436 1548.587036,340.219788 
	C1549.973999,339.784363 1551.493652,339.771851 1552.951294,339.560608 
	C1563.395142,338.047333 1564.784424,328.983246 1568.008911,321.469452 
	C1571.439819,313.474701 1574.807129,305.452637 1578.234985,297.456543 
	C1578.752197,296.249878 1579.446777,295.119110 1580.059326,293.953186 
	C1580.737793,294.410461 1581.416260,294.867706 1582.094727,295.324951 
	C1581.065918,298.867584 1580.000854,302.400177 1579.020142,305.956085 
	C1578.291382,308.598511 1577.417603,311.237183 1577.057861,313.937439 
	C1576.331543,319.389069 1579.459106,321.543976 1585.598633,319.714752 
	C1599.178345,315.668793 1612.697876,311.420959 1626.276367,307.370880 
	C1629.339844,306.457153 1632.543823,306.015137 1636.572510,305.169312 
	C1628.169800,315.334717 1614.258667,314.512512 1605.863037,323.068970 
	C1618.287109,325.150513 1629.386108,317.219940 1641.481323,318.684906 
	C1641.666016,319.466553 1641.850830,320.248199 1642.035645,321.029816 
	C1636.603394,322.685089 1631.189087,324.402374 1625.733032,325.975128 
	C1621.698730,327.138031 1617.575073,328.000122 1613.570557,329.250153 
	C1612.565674,329.563812 1611.865479,330.853546 1611.025269,331.694672 
	C1612.091919,332.463287 1613.093140,333.773529 1614.236084,333.911774 
	C1621.223022,334.757019 1628.250854,335.260895 1635.244873,336.055542 
	C1637.082642,336.264374 1638.848999,337.099518 1640.648193,337.647034 
	C1640.638794,338.147461 1640.629395,338.647919 1640.619995,339.148346 
	C1635.678223,339.763611 1630.739380,340.404510 1625.793457,340.985016 
	C1622.554565,341.365112 1619.270142,341.474609 1616.079590,342.087616 
	C1614.946655,342.305298 1613.093994,343.828003 1613.210083,344.447174 
	C1613.453857,345.746613 1614.533325,347.316528 1615.711914,347.941223 
	C1621.642090,351.084290 1627.714844,353.958679 1633.737427,356.927429 
	C1633.603027,357.338501 1633.468628,357.749603 1633.334229,358.160675 
	C1630.292236,357.314392 1627.186890,356.645874 1624.220337,355.587952 
	C1615.814819,352.590546 1607.612915,351.165192 1598.530029,353.707611 
	C1591.717285,355.614624 1584.087891,354.494568 1577.167358,356.158569 
	C1571.150146,357.605347 1565.339233,360.587891 1559.929077,363.736908 
	C1549.437012,369.843842 1539.385742,376.703094 1528.973022,382.952789 
	C1519.371582,388.715515 1509.729004,394.467102 1499.758911,399.544952 
	C1484.085693,407.527344 1467.984619,414.663940 1450.547852,417.910278 
	C1428.052002,422.098511 1405.507324,426.031738 1382.953979,429.901611 
	C1373.655151,431.497223 1364.278931,432.642487 1354.498779,434.008606 
z"/>
<path fill="#F8A493" opacity="1.000000" stroke="none" 
	d="
M1165.790527,337.733459 
	C1151.548828,339.711151 1141.461060,348.823944 1131.124146,357.439087 
	C1128.848267,359.335876 1126.867554,361.586761 1124.484619,363.862793 
	C1121.957520,358.001465 1119.932251,351.850739 1117.390015,345.921783 
	C1110.466309,329.775055 1102.956177,313.870636 1096.378784,297.587341 
	C1090.587158,283.249481 1084.880615,268.767731 1080.766357,253.898514 
	C1077.795044,243.160202 1076.884644,231.722870 1076.144287,220.525299 
	C1074.956055,202.550858 1074.914551,184.503052 1073.904297,166.513428 
	C1073.337402,156.416748 1073.912354,145.509949 1070.227661,136.499771 
	C1063.843872,120.889847 1056.866577,104.790840 1041.055054,95.470749 
	C1040.508179,95.148422 1040.302612,94.247337 1039.251709,92.427643 
	C1047.195312,96.716560 1053.976562,100.377892 1060.757812,104.039223 
	C1061.195923,103.556526 1061.634033,103.073830 1062.072144,102.591133 
	C1061.890869,92.320213 1053.261719,85.657272 1049.713013,75.114861 
	C1051.846069,76.346840 1053.386108,76.782326 1054.226685,77.797104 
	C1058.911621,83.452812 1063.363403,89.301514 1068.052002,94.953987 
	C1069.025513,96.127571 1070.661499,96.751587 1071.992188,97.628899 
	C1072.570557,97.265030 1073.148926,96.901169 1073.727295,96.537308 
	C1070.711548,86.301315 1067.695679,76.065331 1064.679810,65.829346 
	C1064.971436,65.518608 1065.262939,65.207870 1065.554443,64.897133 
	C1066.402710,65.384552 1067.712891,65.670700 1068.026733,66.390945 
	C1070.784546,72.722252 1073.367920,79.129623 1075.996582,85.517181 
	C1077.151855,88.324577 1078.086548,91.250572 1079.533447,93.897430 
	C1080.170532,95.062744 1081.835449,95.666153 1083.960327,97.188560 
	C1084.425171,84.360992 1077.616577,73.703682 1081.575562,61.928928 
	C1083.708008,68.526566 1085.948730,75.091576 1087.947998,81.729385 
	C1091.061890,92.068146 1093.893921,102.492645 1097.075317,112.809875 
	C1098.948242,118.883415 1102.718994,119.815643 1107.168457,115.235672 
	C1111.329712,110.952576 1115.055664,106.246597 1118.973267,101.726768 
	C1119.410645,101.992836 1119.848145,102.258911 1120.285645,102.524979 
	C1119.074951,104.969864 1118.110107,107.578560 1116.610474,109.831009 
	C1110.329834,119.263733 1103.786743,128.523026 1097.601074,138.016129 
	C1096.485474,139.728195 1095.766968,142.466019 1096.275635,144.349228 
	C1100.694092,160.704849 1105.311890,177.009781 1110.117676,193.256622 
	C1114.045288,206.534561 1117.914917,219.853058 1122.542358,232.893768 
	C1126.951050,245.318283 1132.250488,257.429871 1137.259888,269.637390 
	C1144.794556,287.997955 1152.390381,306.333649 1160.023560,324.653473 
	C1161.810425,328.942017 1163.851807,333.124451 1165.790527,337.733459 
z"/>
<path fill="#F7A392" opacity="1.000000" stroke="none" 
	d="
M1245.111450,378.406799 
	C1244.439087,388.579071 1244.676880,398.523651 1242.753174,408.030884 
	C1240.340332,419.955170 1237.396606,432.066528 1224.585327,438.314392 
	C1212.386108,444.263824 1202.788452,439.272217 1203.268555,424.940613 
	C1203.569824,415.947357 1206.023193,406.986420 1207.927734,398.100281 
	C1209.243530,391.961639 1211.271118,385.975616 1212.999146,379.538940 
	C1214.765259,374.872345 1217.427368,370.723969 1214.918701,365.420471 
	C1215.069214,362.534698 1215.179688,360.030518 1215.549927,357.565338 
	C1216.443359,351.617401 1215.514771,346.710602 1211.375732,341.582703 
	C1204.000000,332.444733 1202.871094,321.196625 1204.371216,309.788086 
	C1204.833252,306.274109 1204.791260,303.272888 1203.355713,299.769165 
	C1201.867432,296.136719 1201.569336,291.610260 1202.089478,287.650696 
	C1203.013184,280.618195 1206.722168,279.141083 1212.140381,282.256989 
	C1216.709351,276.473724 1220.697632,270.250214 1225.832642,265.190430 
	C1234.358032,256.790070 1244.958374,255.782196 1256.004272,259.371979 
	C1257.355835,259.811218 1258.544556,262.096497 1258.995605,263.748291 
	C1262.449707,276.393524 1265.498169,289.153107 1269.153076,301.737640 
	C1270.136597,305.124054 1272.528564,308.222168 1274.759644,311.072540 
	C1275.809570,312.414124 1277.935059,313.339691 1279.702515,313.611450 
	C1284.356201,314.326996 1286.760498,316.794525 1286.744019,321.578491 
	C1286.712158,330.807312 1279.102417,337.556732 1269.933472,336.684479 
	C1268.937744,336.589722 1267.740723,337.535248 1266.790283,338.213043 
	C1261.017944,342.330048 1255.289917,346.509277 1248.849121,350.877197 
	C1237.755981,354.885986 1227.523926,354.241699 1217.171631,349.790100 
	C1219.567383,352.865936 1222.131104,355.346771 1224.990967,357.419159 
	C1231.640991,362.237885 1239.328491,361.399811 1246.891113,361.050079 
	C1246.281494,366.695038 1245.671753,372.339996 1245.111450,378.406799 
z"/>
<path fill="#F7CC7F" opacity="1.000000" stroke="none" 
	d="
M348.138794,364.973907 
	C346.375732,357.572998 343.277832,351.023132 337.972443,345.286682 
	C330.059052,336.730316 319.853241,330.604706 313.434875,320.371490 
	C307.923920,311.584991 303.380310,302.924927 301.780212,292.404480 
	C299.873657,279.868622 303.739532,269.735962 310.603516,259.708832 
	C318.119568,248.729202 326.594604,238.316238 338.452423,232.745010 
	C348.753204,227.905350 358.876068,222.445648 370.363251,219.526505 
	C383.715790,216.133316 394.219940,220.745331 404.788818,226.506348 
	C413.698151,231.362762 414.536835,246.189774 407.201935,254.009460 
	C405.838745,255.462784 405.040924,257.446442 403.649872,259.624298 
	C396.642548,262.172577 390.087769,264.955170 383.253998,266.175537 
	C377.906403,267.130493 373.908447,269.511932 372.208466,274.045898 
	C369.807800,280.448730 368.072327,287.246216 367.185883,294.023285 
	C366.532715,299.016571 364.796509,303.004059 361.924744,306.905334 
	C355.345428,301.018524 349.819427,301.061523 347.592285,307.640961 
	C345.984589,312.390411 344.863403,319.125763 347.047333,322.979218 
	C352.526245,332.646454 353.609894,342.556885 353.021271,353.441498 
	C352.684235,355.159973 352.411835,356.532227 351.968994,358.246216 
	C350.578644,360.716644 349.358734,362.845276 348.138794,364.973907 
z"/>
<path fill="#F7A592" opacity="1.000000" stroke="none" 
	d="
M353.085876,353.095245 
	C353.609894,342.556885 352.526245,332.646454 347.047333,322.979218 
	C344.863403,319.125763 345.984589,312.390411 347.592285,307.640961 
	C349.819427,301.061523 355.345428,301.018524 361.924744,306.905334 
	C364.796509,303.004059 366.532715,299.016571 367.185883,294.023285 
	C368.072327,287.246216 369.807800,280.448730 372.208466,274.045898 
	C373.908447,269.511932 377.906403,267.130493 383.253998,266.175537 
	C390.087769,264.955170 396.642548,262.172577 403.690094,260.019897 
	C415.052612,274.580963 418.535645,291.461700 420.226959,309.272644 
	C421.393982,321.562347 420.355896,333.417236 418.250427,345.397552 
	C415.857025,359.016388 407.652771,366.007721 393.568542,367.686981 
	C388.080719,367.345703 383.162354,366.868652 378.332458,365.934296 
	C368.723480,364.075287 360.973877,358.417419 353.085876,353.095245 
z"/>
<path fill="#194855" opacity="1.000000" stroke="none" 
	d="
M430.972107,1240.806763 
	C436.634460,1244.340820 442.003601,1248.516479 448.023743,1251.267578 
	C458.651337,1256.124023 467.328918,1263.259766 475.085876,1271.737305 
	C476.630676,1273.425659 477.900665,1275.365356 480.101410,1278.239258 
	C473.393982,1279.191895 467.326263,1280.746216 461.248596,1280.786133 
	C443.517578,1280.902710 425.782867,1280.395630 408.049103,1280.170044 
	C396.950378,1280.028809 385.848511,1280.053833 374.752594,1279.803345 
	C369.983063,1279.695679 365.225037,1279.078979 361.077026,1278.743408 
	C361.077026,1269.093872 361.077026,1259.857910 361.035767,1250.278809 
	C361.382843,1244.824463 362.764221,1240.143311 367.305054,1236.352295 
	C372.068146,1237.513794 376.379822,1238.713013 380.502380,1240.380127 
	C385.964172,1242.588867 391.354614,1244.508789 397.369629,1242.881592 
	C405.209137,1240.760986 413.074005,1238.734009 421.319763,1236.755859 
	C424.471344,1237.582153 427.231140,1238.319336 430.134705,1239.269287 
	C430.509674,1239.923584 430.740875,1240.365234 430.972107,1240.806763 
z"/>
<path fill="#194654" opacity="1.000000" stroke="none" 
	d="
M1115.673950,1068.243042 
	C1119.618164,1070.499756 1123.985718,1072.253052 1127.408203,1075.130371 
	C1132.609009,1079.502686 1137.212891,1084.597900 1141.959961,1089.493042 
	C1146.170044,1093.834351 1146.230591,1096.352539 1141.869507,1100.575073 
	C1124.275391,1117.610229 1106.721069,1134.691406 1088.849243,1151.432251 
	C1083.213257,1156.711548 1076.767334,1161.177856 1070.397461,1165.590820 
	C1068.470459,1166.925903 1064.452637,1168.075806 1063.347168,1167.098877 
	C1061.694458,1165.638306 1060.737427,1161.968018 1061.295654,1159.679443 
	C1063.479736,1150.727295 1065.829468,1141.738159 1069.139893,1133.157227 
	C1073.607056,1121.578735 1078.820679,1110.250732 1087.751465,1101.176758 
	C1088.025635,1100.898193 1087.893433,1100.220093 1088.351807,1099.376465 
	C1101.338989,1091.923340 1109.133301,1080.631470 1115.673950,1068.243042 
z"/>
<path fill="#194654" opacity="1.000000" stroke="none" 
	d="
M1453.157959,757.137512 
	C1455.609741,748.791382 1457.865601,740.380005 1460.611206,732.131653 
	C1461.691406,728.886719 1463.678955,725.882568 1465.588867,722.990479 
	C1468.039062,719.280334 1471.102783,719.025574 1474.896606,721.522644 
	C1486.384155,729.083496 1498.229126,736.117065 1509.534668,743.934692 
	C1523.803589,753.801270 1537.697876,764.211243 1551.695068,774.466980 
	C1553.276978,775.626160 1554.654053,777.174866 1555.823730,778.765381 
	C1558.905640,782.956360 1558.132812,786.051758 1552.940186,786.932434 
	C1546.891357,787.958191 1540.563721,788.306763 1534.452148,787.801147 
	C1520.579590,786.653564 1506.854614,784.406555 1494.207642,778.041931 
	C1491.867798,776.864319 1489.704712,775.335388 1486.926514,773.623413 
	C1477.526611,763.343140 1465.444458,760.030029 1453.157959,757.137512 
z"/>
<path fill="#F5A493" opacity="1.000000" stroke="none" 
	d="
M348.064331,365.435547 
	C349.358734,362.845276 350.578644,360.716644 352.240845,358.426697 
	C364.036957,370.653137 378.257599,377.208923 394.828796,378.982971 
	C395.627686,382.672882 396.426605,386.362762 397.648438,390.168854 
	C401.237030,402.030243 401.773651,413.577301 397.785828,425.447021 
	C392.697266,440.593018 381.013641,444.669189 367.267365,434.462036 
	C356.908478,426.770050 349.042664,416.777405 342.442810,405.406616 
	C343.209991,401.872040 344.346802,398.706696 344.754395,395.450104 
	C345.984924,385.618164 346.932159,375.750732 348.064331,365.435547 
z"/>
<path fill="#F6A394" opacity="1.000000" stroke="none" 
	d="
M1453.112183,757.505127 
	C1465.444458,760.030029 1477.526611,763.343140 1486.562012,773.538086 
	C1481.842651,779.007263 1476.660522,783.974915 1472.133667,789.481445 
	C1465.064453,798.080444 1458.439331,807.044556 1451.321899,816.057617 
	C1446.099243,811.412781 1441.224487,806.518860 1436.246460,801.732056 
	C1433.036743,798.645569 1429.675903,795.716309 1426.156860,792.477539 
	C1431.953613,785.154663 1438.116699,778.183960 1443.944336,770.943176 
	C1447.267700,766.813843 1450.043823,762.244080 1453.112183,757.505127 
z"/>
<path fill="#F6A394" opacity="1.000000" stroke="none" 
	d="
M1115.285278,1068.142578 
	C1109.133301,1080.631470 1101.338989,1091.923340 1088.402832,1099.013184 
	C1086.374512,1091.109985 1084.803345,1083.193604 1082.992432,1075.332520 
	C1080.417480,1064.155518 1077.666382,1053.019043 1074.965576,1041.464966 
	C1086.010132,1037.818848 1097.079590,1034.572998 1108.493408,1031.280884 
	C1110.857300,1043.503662 1112.876953,1055.772827 1115.285278,1068.142578 
z"/>
<path fill="#F5A493" opacity="1.000000" stroke="none" 
	d="
M420.927979,1236.666870 
	C413.074005,1238.734009 405.209137,1240.760986 397.369629,1242.881592 
	C391.354614,1244.508789 385.964172,1242.588867 380.502380,1240.380127 
	C376.379822,1238.713013 372.068146,1237.513794 367.458923,1236.040161 
	C367.057373,1229.965454 367.037567,1223.956787 367.089722,1217.491699 
	C384.710175,1216.671387 402.258667,1216.307373 420.083191,1216.275513 
	C418.403076,1216.746216 416.447906,1216.986206 414.490662,1217.004517 
	C408.262207,1217.062744 406.579590,1219.415161 410.091034,1224.659912 
	C413.059204,1229.093506 417.268188,1232.696289 420.927979,1236.666870 
z"/>
<path fill="#F5A493" opacity="1.000000" stroke="none" 
	d="
M516.839539,1217.285400 
	C530.238159,1216.885132 543.636780,1216.484741 557.499329,1216.064331 
	C559.075378,1219.971069 560.187439,1223.897827 561.632751,1227.995605 
	C564.418884,1230.872314 566.871704,1233.578003 569.116821,1236.615234 
	C564.914429,1237.995850 560.863647,1238.869629 556.936035,1240.127930 
	C546.775024,1243.383057 537.018311,1243.680908 527.286926,1238.212646 
	C524.178040,1236.465942 520.022461,1236.581665 516.345825,1235.845337 
	C515.997925,1235.461304 515.649963,1235.077148 515.474121,1234.099121 
	C516.044067,1228.098633 516.441833,1222.692017 516.839539,1217.285400 
z"/>
<path fill="#F37458" opacity="1.000000" stroke="none" 
	d="
M394.886658,378.570435 
	C378.257599,377.208923 364.036957,370.653137 352.411255,358.084961 
	C352.411835,356.532227 352.684235,355.159973 353.021271,353.441498 
	C360.973877,358.417419 368.723480,364.075287 378.332458,365.934296 
	C383.162354,366.868652 388.080719,367.345703 393.383240,368.052002 
	C394.186432,371.435608 394.565491,374.796753 394.886658,378.570435 
z"/>
<path fill="#000000" opacity="000000" stroke="none" 
	d="
M431.436157,1240.896362 
	C430.740875,1240.365234 430.509674,1239.923584 430.141479,1238.885254 
	C430.713287,1237.078125 431.422089,1235.867920 431.845673,1235.144653 
	C427.757751,1232.845093 423.705292,1230.937744 420.083099,1228.413086 
	C417.051636,1226.300049 416.748444,1224.088867 420.569244,1221.648804 
	C424.593781,1219.078735 427.150391,1215.097900 428.060822,1210.121948 
	C429.159882,1204.115112 430.647705,1198.179199 431.972839,1192.213867 
	C434.311951,1181.683838 436.669250,1171.157715 438.993958,1160.624390 
	C443.262115,1141.285522 447.487762,1121.937134 451.777924,1102.603027 
	C454.811127,1088.933350 457.974884,1075.292603 460.982330,1061.617432 
	C463.991699,1047.933350 466.669281,1034.173218 469.871979,1020.535583 
	C474.130829,1002.400818 477.166779,984.149475 477.023132,965.455261 
	C476.946381,955.462524 476.895935,945.466797 477.065521,935.476318 
	C477.135956,931.325195 477.811676,927.184387 478.212158,923.038879 
	C478.723053,922.824829 479.233948,922.610779 479.744843,922.396729 
	C480.939087,924.191956 482.478149,925.847717 483.269989,927.805725 
	C487.472015,938.196228 490.992188,948.890076 495.668152,959.055847 
	C505.611633,980.673340 507.804596,1003.332031 507.134552,1026.774536 
	C506.468658,1050.073242 507.109161,1073.406616 506.960724,1096.723511 
	C506.734314,1132.286377 506.610413,1167.855469 505.728363,1203.404053 
	C505.565643,1209.961548 504.914185,1215.817993 509.460297,1221.098755 
	C510.079834,1221.818359 509.948456,1223.279785 509.969299,1224.401245 
	C510.028137,1227.564697 509.985199,1230.729980 509.982391,1233.894531 
	C498.891144,1235.487671 487.815338,1237.201538 476.702179,1238.623535 
	C471.020599,1239.350708 465.278564,1239.689453 459.552338,1239.965210 
	C450.339966,1240.409180 441.118134,1240.656006 431.436157,1240.896362 
z"/>
<path fill="#FDF8F6" opacity="1.000000" stroke="none" 
	d="
M510.408630,1233.943481 
	C509.985199,1230.729980 510.028137,1227.564697 509.969299,1224.401245 
	C509.948456,1223.279785 510.079834,1221.818359 509.460297,1221.098755 
	C504.914185,1215.817993 505.565643,1209.961548 505.728363,1203.404053 
	C506.610413,1167.855469 506.734314,1132.286377 506.960724,1096.723511 
	C507.109161,1073.406616 506.468658,1050.073242 507.134552,1026.774536 
	C507.804596,1003.332031 505.611633,980.673340 495.668152,959.055847 
	C490.992188,948.890076 487.472015,938.196228 483.269989,927.805725 
	C482.478149,925.847717 480.939087,924.191956 479.744843,922.396729 
	C479.233948,922.610779 478.723053,922.824829 478.212158,923.038879 
	C477.811676,927.184387 477.135956,931.325195 477.065521,935.476318 
	C476.895935,945.466797 476.946381,955.462524 477.023132,965.455261 
	C477.166779,984.149475 474.130829,1002.400818 469.871979,1020.535583 
	C466.669281,1034.173218 463.991699,1047.933350 460.982330,1061.617432 
	C457.974884,1075.292603 454.811127,1088.933350 451.777924,1102.603027 
	C447.487762,1121.937134 443.262115,1141.285522 438.993958,1160.624390 
	C436.669250,1171.157715 434.311951,1181.683838 431.972839,1192.213867 
	C430.647705,1198.179199 429.159882,1204.115112 428.060822,1210.121948 
	C427.150391,1215.097900 424.593781,1219.078735 420.569244,1221.648804 
	C416.748444,1224.088867 417.051636,1226.300049 420.083099,1228.413086 
	C423.705292,1230.937744 427.757751,1232.845093 431.845673,1235.144653 
	C431.422089,1235.867920 430.713287,1237.078125 429.997742,1238.672607 
	C427.231140,1238.319336 424.471344,1237.582153 421.319763,1236.755859 
	C417.268188,1232.696289 413.059204,1229.093506 410.091034,1224.659912 
	C406.579590,1219.415161 408.262207,1217.062744 414.490662,1217.004517 
	C416.447906,1216.986206 418.403076,1216.746216 420.527374,1216.241211 
	C425.184296,1195.427856 429.673309,1174.980835 434.161621,1154.533691 
	C437.795319,1137.979736 441.422791,1121.424438 445.062622,1104.871826 
	C449.415222,1085.077637 453.825989,1065.296143 458.122375,1045.489746 
	C462.031586,1027.468384 466.711700,1009.551025 469.366425,991.342041 
	C471.298096,978.092834 470.526917,964.444641 470.886230,950.972351 
	C471.445190,930.015076 471.940826,909.056152 472.649780,887.782104 
	C485.271423,919.366882 498.011536,951.154541 509.900757,983.257385 
	C512.473022,990.202820 512.797791,998.283203 512.781189,1005.837769 
	C512.629639,1074.585693 512.172852,1143.332886 511.806335,1212.080322 
	C511.799255,1213.409180 511.805389,1214.738037 511.805389,1216.666382 
	C513.202576,1216.824463 514.584412,1216.980713 516.402832,1217.211182 
	C516.441833,1222.692017 516.044067,1228.098633 515.410767,1233.839600 
	C513.728455,1234.113525 512.281616,1234.052979 510.408630,1233.943481 
z"/>
<path fill="#194855" opacity="1.000000" stroke="none" 
	d="
M516.299805,1236.206543 
	C520.022461,1236.581665 524.178040,1236.465942 527.286926,1238.212646 
	C537.018311,1243.680908 546.775024,1243.383057 556.936035,1240.127930 
	C560.863647,1238.869629 564.914429,1237.995850 569.269470,1236.879761 
	C581.303650,1241.989136 593.535095,1246.216431 604.474243,1252.643433 
	C613.179016,1257.757690 620.609070,1265.240723 628.002197,1272.303223 
	C631.644409,1275.782471 630.807617,1277.575562 625.732788,1278.368408 
	C618.356689,1279.520996 610.873352,1280.743530 603.446228,1280.681274 
	C572.009277,1280.418335 540.576172,1279.691040 507.878204,1279.110962 
	C512.430542,1265.526367 508.662140,1251.920532 516.147583,1240.366333 
	C516.735840,1239.458252 516.243774,1237.850464 516.299805,1236.206543 
z"/>
<path fill="#F37458" opacity="1.000000" stroke="none" 
	d="
M1247.007812,360.675781 
	C1239.328491,361.399811 1231.640991,362.237885 1224.990967,357.419159 
	C1222.131104,355.346771 1219.567383,352.865936 1217.171631,349.790100 
	C1227.523926,354.241699 1237.755981,354.885986 1248.529053,351.025513 
	C1248.312622,354.076782 1247.718506,357.189148 1247.007812,360.675781 
z"/>
</svg>