<svg version="1.1" id="Layer_1" xmlns="http://www.w3.org/2000/svg" xmlns:xlink="http://www.w3.org/1999/xlink" x="0px" y="0px"
	 width="100%" viewBox="0 0 990 958" enable-background="new 0 0 990 958" xml:space="preserve">
<path fill="#000000" opacity="000000" stroke="none" 
	d="
M991.000000,341.000000 
	C991.000000,547.333313 991.000000,753.166687 991.000000,959.000000 
	C661.000000,959.000000 331.000000,959.000000 1.000000,959.000000 
	C1.000000,639.666687 1.000000,320.333344 1.000000,1.000000 
	C331.000000,1.000000 661.000000,1.000000 991.000000,1.000000 
	C991.000000,114.166664 991.000000,227.333328 991.000000,341.000000 
M169.650055,905.117432 
	C167.482071,908.411316 165.314087,911.705139 162.260818,914.994019 
	C154.268097,915.671570 146.238831,916.065552 138.290726,917.089478 
	C124.600746,918.853088 110.923859,920.789490 97.319313,923.109680 
	C91.993515,924.018066 86.859390,926.100037 81.673187,927.757690 
	C78.765366,928.687256 79.649467,930.355164 81.325470,931.635986 
	C82.298141,932.379272 83.674744,932.618469 84.892853,933.012512 
	C102.814148,938.810730 121.530746,939.761353 140.034103,941.956238 
	C150.265640,943.169922 160.529800,944.171814 170.803207,944.954529 
	C186.049530,946.116150 201.311493,947.096802 216.577316,947.970947 
	C230.575806,948.772461 244.585297,949.402161 258.595245,949.978638 
	C276.595673,950.719299 294.599518,951.390503 312.605530,951.979370 
	C325.852539,952.412537 339.104218,952.726318 352.355957,952.984375 
	C372.269836,953.372253 392.186462,953.991089 412.100372,953.937378 
	C473.669006,953.771179 535.237305,953.384033 596.804871,952.967468 
	C613.555664,952.854126 630.304016,952.354492 647.052734,951.994263 
	C661.136902,951.691406 675.220947,951.375793 689.302856,950.984985 
	C698.390381,950.732788 707.472839,950.302551 716.559387,950.009949 
	C727.976685,949.642151 739.402039,949.470520 750.812439,948.959229 
	C761.494141,948.480591 772.160339,947.657532 782.834656,947.006775 
	C799.424438,945.995361 816.019104,945.060974 832.603943,943.974792 
	C840.783630,943.439209 848.967346,942.826782 857.110596,941.906982 
	C866.969116,940.793579 876.830444,939.576233 886.608398,937.919128 
	C894.701782,936.547363 902.701233,934.574219 910.676941,932.603394 
	C911.956299,932.287354 912.893799,930.587830 913.989380,929.527893 
	C912.912781,928.455078 911.981995,926.677002 910.736877,926.419556 
	C899.656982,924.128540 888.550415,921.934998 877.393921,920.055542 
	C867.315063,918.357666 857.163696,917.090088 847.413513,915.107544 
	C852.049438,907.096252 856.685303,899.084900 861.473389,890.810669 
	C865.299011,896.866516 869.292603,903.188232 873.192444,909.361633 
	C875.864380,905.180969 866.622192,883.954651 852.008179,861.174988 
	C851.354919,858.196411 850.701660,855.217834 850.450745,851.680115 
	C850.307434,850.727905 850.303284,849.728699 849.999817,848.830566 
	C846.001282,836.997498 841.976318,825.173279 837.927124,813.357422 
	C830.281006,791.045288 822.531982,768.767883 815.022766,746.409790 
	C813.395447,741.564697 810.091980,736.771240 813.663086,731.027100 
	C823.885315,723.741211 834.313782,716.724060 844.265503,709.085632 
	C852.478394,702.781799 860.126892,695.742737 868.852173,688.846130 
	C873.336304,688.231567 877.806946,687.484741 882.307129,687.028320 
	C893.925354,685.849976 900.416626,678.374390 904.926453,668.607483 
	C906.040039,666.195740 906.681274,663.420410 906.877869,660.763245 
	C907.213379,656.226074 907.025574,651.650330 907.701050,646.809692 
	C912.312622,640.191345 916.738647,633.434082 921.570190,626.980347 
	C936.887390,606.520569 948.215881,583.873657 957.926270,560.400391 
	C965.486267,542.125488 971.268250,523.233154 974.965637,503.768585 
	C976.807678,494.071167 979.101624,484.369019 979.813782,474.568939 
	C980.857178,460.209534 981.166199,445.749115 980.847717,431.352570 
	C980.565491,418.592773 979.883850,405.713165 977.778748,393.154633 
	C975.097107,377.156250 971.311096,361.291534 967.086731,345.615601 
	C961.093994,323.377930 951.271118,302.647003 940.105591,282.563171 
	C936.905212,276.806580 933.762390,270.961548 929.955872,265.610352 
	C922.559937,255.213089 914.712891,245.136780 906.686157,234.161545 
	C906.457703,232.593094 906.040894,231.025925 906.030273,229.455978 
	C905.934082,215.243195 905.908875,201.029953 906.004333,185.929276 
	C906.000610,170.434677 905.998840,154.940094 905.992249,139.445496 
	C905.988342,130.210098 904.775024,129.015991 895.440002,129.007355 
	C851.290649,128.966492 807.141357,128.924103 762.736267,128.240326 
	C757.502197,123.009415 752.658630,117.298790 746.949402,112.651627 
	C736.418640,104.079750 725.554016,95.887589 714.494812,88.005371 
	C706.364136,82.210411 697.986755,76.633682 689.213318,71.896790 
	C673.818726,63.585011 658.283997,55.440228 642.335205,48.278019 
	C630.389832,42.913624 617.793274,38.923847 605.316589,34.841694 
	C595.102661,31.499876 584.748352,28.413572 574.255127,26.144741 
	C562.244263,23.547766 550.061218,21.574562 537.862244,20.062357 
	C521.324036,18.012255 504.711456,15.466247 488.109222,15.301230 
	C466.539612,15.086843 444.933105,16.756290 423.375244,18.129803 
	C415.325806,18.642654 407.345520,20.478401 399.375854,21.940653 
	C390.964386,23.483965 382.540039,25.041348 374.235046,27.060450 
	C362.058380,30.020828 349.784088,32.800735 337.917114,36.755032 
	C324.575745,41.200630 311.637421,46.857388 298.529877,52.002834 
	C277.562653,60.233646 258.058167,71.321434 239.228683,83.489708 
	C226.610764,91.643860 214.561020,100.740448 202.711349,109.996925 
	C195.369324,115.732208 188.878006,122.556519 181.067444,128.992599 
	C153.492172,128.998047 125.916908,129.001465 98.341644,129.010056 
	C89.419395,129.012833 87.190269,130.802170 87.071121,139.697830 
	C86.864304,155.138901 87.113297,170.586105 87.364182,186.847305 
	C87.576492,187.437424 87.972061,188.026932 87.974045,188.617752 
	C88.013931,200.512527 88.039154,212.407654 87.966003,224.302078 
	C87.958511,225.519806 87.307419,226.733582 86.310829,228.175552 
	C84.054718,230.767914 81.553764,233.187424 79.581696,235.980347 
	C65.373749,256.102295 52.288010,276.878693 42.119171,299.412201 
	C30.212788,325.796051 20.827606,352.978516 17.116619,381.755432 
	C14.731977,400.247192 13.264591,418.885712 12.192549,437.504883 
	C11.735352,445.445496 13.194537,453.519470 14.035434,461.506287 
	C15.246858,473.012329 15.536592,484.778839 18.290758,495.922302 
	C22.902441,514.581360 28.545290,533.046448 34.868515,551.205200 
	C41.894165,571.381104 52.275063,590.070801 64.088890,607.837830 
	C71.228188,618.574707 79.311981,628.683594 87.001030,639.936279 
	C87.336655,644.669067 87.809914,649.397217 87.970131,654.135925 
	C88.138710,659.121704 87.368568,664.227234 88.199837,669.076172 
	C88.932175,673.347961 90.644119,677.801147 93.115402,681.342529 
	C96.702423,686.482788 102.929474,687.517578 108.722153,687.867981 
	C116.679451,688.349243 124.688370,687.931274 132.673355,688.036560 
	C134.402435,688.059265 136.123795,688.667786 138.123077,689.653931 
	C151.767197,699.240173 165.411316,708.826355 179.359390,719.105164 
	C179.718796,721.020508 180.360428,722.931335 180.391663,724.851990 
	C180.589554,737.021912 181.171509,749.218018 180.609558,761.358398 
	C180.078430,772.833069 178.255554,784.245483 177.082611,795.693604 
	C176.241577,803.902039 175.599350,812.130920 174.753540,820.338806 
	C173.571930,831.805359 172.239197,843.256409 171.054688,854.722717 
	C170.143021,863.547668 169.360168,872.385925 168.509125,881.333130 
	C169.514603,881.888123 170.648209,882.513855 171.967316,884.005127 
	C171.408768,890.917358 170.850204,897.829590 169.650055,905.117432 
z"/>
<path fill="#82B1FE" opacity="1.000000" stroke="none" 
	d="
M86.954987,227.949188 
	C87.307419,226.733582 87.958511,225.519806 87.966003,224.302078 
	C88.039154,212.407654 88.013931,200.512527 87.974045,188.617752 
	C87.972061,188.026932 87.576492,187.437424 87.725296,186.434647 
	C191.117493,186.019333 294.148560,186.015945 397.179626,186.020859 
	C398.841705,186.020935 400.503754,186.122894 401.898376,186.498413 
	C401.408173,188.935547 400.990814,191.051529 400.990417,193.167587 
	C400.959839,355.601379 400.962830,518.035156 400.955170,680.468933 
	C400.955048,683.298828 400.856201,686.128784 400.354248,688.935547 
	C355.314697,688.942627 310.724335,688.972778 265.939941,688.687622 
	C260.456329,673.193359 255.166824,658.014404 249.850891,642.437866 
	C249.627670,641.234436 249.281662,640.433350 249.255753,639.622131 
	C248.502930,616.069824 247.782150,592.516541 247.519180,568.973816 
	C281.707825,568.983887 315.433441,568.984192 349.159088,568.982300 
	C352.980194,568.982056 356.811554,569.137695 360.618927,568.905396 
	C363.297485,568.741943 366.099915,568.221436 366.213562,564.298523 
	C370.947296,563.730652 371.181122,560.650757 371.173920,557.259888 
	C371.137115,539.951660 371.178864,522.643250 371.152435,505.334961 
	C371.143250,499.331146 369.897461,498.122772 363.760101,498.091095 
	C352.277649,498.031830 340.794891,498.024017 329.404785,497.669006 
	C335.846619,483.994019 342.091766,470.593964 348.576416,457.310852 
	C354.367615,445.448273 359.147491,432.684387 372.877930,427.185059 
	C373.172791,427.066956 373.410675,426.792297 373.657501,426.571045 
	C375.880157,424.579102 376.199280,422.382935 374.278229,420.017639 
	C373.232666,418.730286 372.105286,417.509369 371.064270,415.785461 
	C371.102539,411.998962 371.091339,408.685486 371.284851,405.093384 
	C374.557373,402.175781 377.625183,399.536743 380.692963,396.897675 
	C380.203491,396.145020 379.714020,395.392334 379.224548,394.639679 
	C376.602325,395.432037 373.980103,396.224396 371.300598,396.551086 
	C371.212799,387.425934 371.196503,378.766357 371.146698,370.106995 
	C371.114044,364.423401 369.817200,363.048004 364.071991,363.046387 
	C285.630493,363.024719 207.188965,363.048248 128.747513,362.988251 
	C124.897629,362.985291 122.365288,364.298218 120.843109,368.017822 
	C116.815155,368.905334 116.091614,371.557800 116.100937,374.861389 
	C116.149300,392.006104 116.084244,409.151093 116.142647,426.295746 
	C116.161804,431.919586 118.110916,433.935852 123.584717,433.939697 
	C146.387405,433.955750 169.190125,433.885010 192.264679,434.059875 
	C194.310059,437.097412 196.083618,439.921204 197.879761,443.135254 
	C199.769028,447.041107 201.635712,450.556732 203.582108,454.531189 
	C203.719833,460.661804 203.777832,466.333527 203.434357,472.018555 
	C200.913834,472.374878 198.803238,472.786224 196.674377,473.050171 
	C180.421967,475.065094 166.418671,479.937317 163.102142,498.724670 
	C150.794388,498.350830 138.848618,498.016174 126.919708,498.327301 
	C124.953415,498.378601 123.060989,501.261597 120.760330,502.898315 
	C118.972145,505.023224 116.369171,507.063934 116.330788,509.151794 
	C116.003296,526.965942 116.066109,544.789185 116.197815,562.608398 
	C116.227211,566.586792 118.232185,569.084412 122.758545,569.027527 
	C134.578964,568.878906 146.401596,568.905945 158.358200,569.314941 
	C158.778595,573.567932 158.612274,577.469177 159.429474,581.152100 
	C162.628006,595.566956 166.237244,609.890259 169.501617,624.291077 
	C172.494202,637.492859 177.245667,650.504089 173.951126,664.455139 
	C173.195053,667.656860 173.325363,671.058655 172.888687,674.347168 
	C172.179230,679.690125 173.444336,684.224243 177.827209,687.952515 
	C177.699722,688.545349 177.630936,688.778381 177.124146,688.977295 
	C163.740326,688.964233 150.794525,688.985352 137.848724,689.006470 
	C136.123795,688.667786 134.402435,688.059265 132.673355,688.036560 
	C124.688370,687.931274 116.679451,688.349243 108.722153,687.867981 
	C102.929474,687.517578 96.702423,686.482788 93.115402,681.342529 
	C90.644119,677.801147 88.932175,673.347961 88.199837,669.076172 
	C87.368568,664.227234 88.138710,659.121704 87.970131,654.135925 
	C87.809914,649.397217 87.336655,644.669067 86.998291,639.032471 
	C86.982025,501.402161 86.968506,364.675690 86.954987,227.949188 
M366.623108,300.202820 
	C370.274536,299.931152 371.210022,297.686646 371.197815,294.382874 
	C371.132080,276.556976 371.202606,258.730591 371.145691,240.904663 
	C371.129028,235.683365 369.518768,234.110916 364.187073,234.109100 
	C285.718628,234.082397 207.250168,234.104507 128.781769,234.044418 
	C124.950172,234.041473 122.402679,235.365936 120.423897,239.032288 
	C116.495934,240.423935 116.131416,243.688232 116.132759,247.161484 
	C116.138924,263.156616 116.133713,279.151733 116.138634,295.146851 
	C116.141312,303.865051 117.247673,304.990570 125.814705,304.990540 
	C203.291077,304.990387 280.767426,304.988312 358.243805,304.985138 
	C359.410004,304.985077 360.922394,305.422424 361.670807,304.857513 
	C363.263977,303.655029 364.460327,301.926758 366.623108,300.202820 
z"/>
<path fill="#FEFEFE" opacity="1.000000" stroke="none" 
	d="
M400.803406,688.958679 
	C400.856201,686.128784 400.955048,683.298828 400.955170,680.468933 
	C400.962830,518.035156 400.959839,355.601379 400.990417,193.167587 
	C400.990814,191.051529 401.408173,188.935547 402.354065,186.518829 
	C568.031067,186.225143 732.984924,186.229431 897.938843,186.263107 
	C900.580261,186.263641 903.221497,186.624268 905.862854,186.816833 
	C905.908875,201.029953 905.934082,215.243195 906.030273,229.455978 
	C906.040894,231.025925 906.457703,232.593094 906.847351,235.016479 
	C907.001587,349.960571 906.990784,464.049713 906.991211,578.138855 
	C906.991272,601.122803 907.034363,624.106812 907.057617,647.090759 
	C907.025574,651.650330 907.213379,656.226074 906.877869,660.763245 
	C906.681274,663.420410 906.040039,666.195740 904.926453,668.607483 
	C900.416626,678.374390 893.925354,685.849976 882.307129,687.028320 
	C877.806946,687.484741 873.336304,688.231567 867.969238,688.923401 
	C852.464783,688.993591 837.843201,688.983948 823.221619,688.981689 
	C820.467407,688.981262 817.713135,689.010132 814.855957,688.564941 
	C815.260498,678.647217 815.768066,669.189941 816.718750,659.763794 
	C828.379944,659.797729 839.598083,659.771667 850.815918,659.819580 
	C854.584229,659.835693 857.650269,658.806030 859.435303,654.769287 
	C859.925415,653.552246 859.875732,652.139465 860.497192,651.719299 
	C866.644592,647.562378 865.957214,641.207886 865.960632,635.128662 
	C865.990601,581.709717 866.012878,528.290710 865.935425,474.871887 
	C865.925354,467.918793 865.708618,460.917175 864.795898,454.043152 
	C864.512329,451.907623 861.649719,448.473877 859.909790,448.437744 
	C848.319214,448.197235 836.712891,448.716736 824.982971,448.585693 
	C823.227051,441.073425 821.599792,433.964813 820.441528,426.820740 
	C830.951172,426.777588 841.003418,427.030518 851.025085,426.590271 
	C853.741638,426.470947 856.366150,424.256683 859.295532,422.730896 
	C860.017822,420.752380 859.983276,418.010620 861.020447,417.515961 
	C866.261719,415.016296 865.964661,410.482117 865.966064,405.994232 
	C865.984070,347.350952 866.195923,288.706299 865.821411,230.065445 
	C865.730408,215.809219 866.148682,215.123688 850.940552,215.106094 
	C721.825623,214.956650 592.710388,215.015427 463.595245,215.055954 
	C460.966797,215.056778 458.078400,215.009460 455.783844,216.038391 
	C453.523682,217.051910 451.865326,219.407486 449.583740,221.184143 
	C444.458710,222.305756 443.828003,225.774384 443.831940,229.979233 
	C443.890869,292.455627 443.872162,354.932129 443.877380,417.408600 
	C443.878021,425.120758 445.541443,426.761871 453.235168,426.761536 
	C510.713531,426.759033 568.191895,426.761505 625.670227,426.751770 
	C628.832458,426.751221 631.994629,426.655365 635.470520,426.746521 
	C643.524902,433.403229 643.587341,433.702911 637.024475,440.585876 
	C634.797241,442.921692 633.939392,445.194702 635.782593,447.932465 
	C577.265625,447.979340 519.233093,448.054352 461.201080,447.918823 
	C455.821991,447.906250 451.845642,449.449310 448.654602,454.064545 
	C444.053558,455.844177 443.837646,459.361053 443.840820,463.238922 
	C443.891541,525.190735 443.876007,587.142639 443.877472,649.094482 
	C443.877686,658.302246 445.375305,659.800354 454.547150,659.799744 
	C535.983887,659.794373 617.420593,659.787415 698.857300,659.793640 
	C700.683167,659.793823 702.509094,659.942688 704.124756,660.324097 
	C703.043823,662.769592 700.992615,665.281006 701.524292,666.987671 
	C703.104004,672.057922 707.138306,675.113403 712.505615,675.740417 
	C717.631836,676.339172 721.411011,674.114746 723.824646,669.479553 
	C725.711914,665.855103 727.780640,662.325073 729.889038,659.093140 
	C730.120667,660.199890 730.489136,661.035767 730.304321,661.722656 
	C727.854309,670.826233 725.326660,679.908936 722.361572,688.989014 
	C614.871033,688.973755 507.837219,688.966187 400.803406,688.958679 
z"/>
<path fill="#D5F1FF" opacity="1.000000" stroke="none" 
	d="
M182.004822,128.891983 
	C188.878006,122.556519 195.369324,115.732208 202.711349,109.996925 
	C214.561020,100.740448 226.610764,91.643860 239.228683,83.489708 
	C258.058167,71.321434 277.562653,60.233646 298.529877,52.002834 
	C311.637421,46.857388 324.575745,41.200630 337.917114,36.755032 
	C349.784088,32.800735 362.058380,30.020828 374.235046,27.060450 
	C382.540039,25.041348 390.964386,23.483965 399.375854,21.940653 
	C407.345520,20.478401 415.325806,18.642654 423.375244,18.129803 
	C444.933105,16.756290 466.539612,15.086843 488.109222,15.301230 
	C504.711456,15.466247 521.324036,18.012255 537.862244,20.062357 
	C550.061218,21.574562 562.244263,23.547766 574.255127,26.144741 
	C584.748352,28.413572 595.102661,31.499876 605.316589,34.841694 
	C617.793274,38.923847 630.389832,42.913624 642.335205,48.278019 
	C658.283997,55.440228 673.818726,63.585011 689.213318,71.896790 
	C697.986755,76.633682 706.364136,82.210411 714.494812,88.005371 
	C725.554016,95.887589 736.418640,104.079750 746.949402,112.651627 
	C752.658630,117.298790 757.502197,123.009415 762.398560,128.578308 
	C689.283203,128.919708 616.505554,128.929108 543.727844,128.925156 
	C423.153503,128.918625 302.579163,128.903503 182.004822,128.891983 
z"/>
<path fill="#63CCEC" opacity="1.000000" stroke="none" 
	d="
M181.536133,128.942291 
	C302.579163,128.903503 423.153503,128.918625 543.727844,128.925156 
	C616.505554,128.929108 689.283203,128.919708 762.526489,128.899292 
	C807.141357,128.924103 851.290649,128.966492 895.440002,129.007355 
	C904.775024,129.015991 905.988342,130.210098 905.992249,139.445496 
	C905.998840,154.940094 906.000610,170.434677 905.933594,186.373047 
	C903.221497,186.624268 900.580261,186.263641 897.938843,186.263107 
	C732.984924,186.229431 568.031067,186.225143 402.621521,186.197739 
	C400.503754,186.122894 398.841705,186.020935 397.179626,186.020859 
	C294.148560,186.015945 191.117493,186.019333 87.628784,186.026367 
	C87.113297,170.586105 86.864304,155.138901 87.071121,139.697830 
	C87.190269,130.802170 89.419395,129.012833 98.341644,129.010056 
	C125.916908,129.001465 153.492172,128.998047 181.536133,128.942291 
M196.922943,166.911362 
	C204.301941,164.232208 206.257812,161.380203 206.019669,153.646729 
	C205.857224,148.371185 202.653702,144.202377 197.909195,143.092438 
	C191.995636,141.709000 185.253387,143.495361 183.738770,148.083878 
	C182.438950,152.021637 181.985367,157.016632 183.262192,160.841537 
	C185.097595,166.339767 190.562683,167.472946 196.922943,166.911362 
M169.750443,151.269180 
	C167.831726,146.278564 164.240616,143.345978 158.877014,143.188522 
	C154.227539,143.052048 150.477173,145.039642 148.284882,149.313721 
	C146.036865,153.696426 146.405991,157.973465 149.276794,161.972672 
	C152.127151,165.943390 157.845673,167.532913 162.687302,165.781586 
	C168.012772,163.855240 170.417603,159.304337 169.750443,151.269180 
M116.437790,164.164078 
	C117.621162,164.756927 118.753601,165.502594 119.996490,165.916870 
	C126.269760,168.007767 133.203583,164.221298 134.866455,157.870880 
	C136.516266,151.570343 132.343231,144.741058 125.983170,143.333145 
	C121.233368,142.281708 116.002220,144.557800 113.560135,148.738434 
	C110.695114,153.643097 111.437469,158.570572 116.437790,164.164078 
z"/>
<path fill="#DEE5FC" opacity="1.000000" stroke="none" 
	d="
M847.044312,915.632690 
	C857.163696,917.090088 867.315063,918.357666 877.393921,920.055542 
	C888.550415,921.934998 899.656982,924.128540 910.736877,926.419556 
	C911.981995,926.677002 912.912781,928.455078 913.989380,929.527832 
	C912.893799,930.587830 911.956299,932.287354 910.676941,932.603394 
	C902.701233,934.574219 894.701782,936.547363 886.608398,937.919128 
	C876.830444,939.576233 866.969116,940.793579 857.110596,941.906982 
	C848.967346,942.826782 840.783630,943.439209 832.603943,943.974792 
	C816.019104,945.060974 799.424438,945.995361 782.834656,947.006775 
	C772.160339,947.657532 761.494141,948.480591 750.812439,948.959229 
	C739.402039,949.470520 727.976685,949.642151 716.559387,950.009949 
	C707.472839,950.302551 698.390381,950.732788 689.302856,950.984985 
	C675.220947,951.375793 661.136902,951.691406 647.052734,951.994263 
	C630.304016,952.354492 613.555664,952.854126 596.804871,952.967468 
	C535.237305,953.384033 473.669006,953.771179 412.100372,953.937378 
	C392.186462,953.991089 372.269836,953.372253 352.355957,952.984375 
	C339.104218,952.726318 325.852539,952.412537 312.605530,951.979370 
	C294.599518,951.390503 276.595673,950.719299 258.595245,949.978638 
	C244.585297,949.402161 230.575806,948.772461 216.577316,947.970947 
	C201.311493,947.096802 186.049530,946.116150 170.803207,944.954529 
	C160.529800,944.171814 150.265640,943.169922 140.034103,941.956238 
	C121.530746,939.761353 102.814148,938.810730 84.892853,933.012512 
	C83.674744,932.618469 82.298141,932.379272 81.325470,931.635986 
	C79.649467,930.355164 78.765366,928.687256 81.673187,927.757690 
	C86.859390,926.100037 91.993515,924.018066 97.319313,923.109680 
	C110.923859,920.789490 124.600746,918.853088 138.290726,917.089478 
	C146.238831,916.065552 154.268097,915.671570 162.845093,915.397705 
	C163.238998,916.781311 163.153183,917.795898 162.840714,918.735107 
	C161.218643,923.611206 162.624893,925.604980 168.037552,926.598389 
	C188.802460,930.409607 209.445160,934.883728 230.164551,938.952148 
	C231.770599,939.267517 233.617523,938.356018 235.352509,938.014771 
	C234.862656,936.077393 235.006821,933.375305 233.764633,932.345398 
	C229.965088,929.195618 225.801682,926.380798 221.469315,924.000977 
	C214.363327,920.097412 207.013031,916.638672 199.958557,912.668091 
	C202.454926,912.229065 204.757523,912.086792 207.062225,912.004333 
	C216.727463,911.658142 226.393890,911.344177 236.057877,910.967102 
	C236.809998,910.937805 237.546646,910.512207 238.182556,910.714600 
	C237.388077,915.068054 236.648361,918.969360 236.029404,922.889709 
	C235.364304,927.102417 237.242767,928.606079 241.487213,928.783508 
	C262.732727,929.671448 283.965210,930.871155 305.209869,931.783630 
	C306.997284,931.860413 308.841125,930.624084 310.658752,929.997864 
	C309.620148,927.941650 309.109344,925.017334 307.438324,924.001282 
	C303.369110,921.527039 298.862762,919.652405 294.349030,918.054749 
	C286.229675,915.180786 277.975861,912.686768 270.003296,909.645386 
	C275.967896,908.838257 281.701019,908.243286 287.448090,908.037537 
	C300.024536,907.587341 312.608215,907.339844 325.188660,906.999695 
	C337.269684,906.673035 349.348480,906.201233 361.431641,906.026611 
	C390.169495,905.611267 418.909729,905.032043 447.648254,905.071655 
	C490.378387,905.130554 533.108398,905.612000 575.837402,906.022278 
	C596.414734,906.219849 616.990540,906.621460 637.565369,907.015137 
	C650.480774,907.262207 663.393372,907.659607 676.306885,908.001953 
	C689.212952,908.343994 702.118591,908.701355 714.926514,909.393066 
	C703.743408,913.716125 692.619934,917.597046 681.605713,921.766541 
	C679.438354,922.587036 677.692505,924.521118 675.752258,925.941650 
	C677.930481,926.677795 680.100830,928.017639 682.288208,928.045898 
	C691.937683,928.170654 701.594910,927.712097 711.243958,927.847961 
	C726.882385,928.068115 737.886536,919.978943 747.148315,908.507019 
	C747.774475,907.731445 748.484863,907.023987 749.415833,905.998779 
	C750.818726,913.955078 752.111145,921.284973 753.403564,928.614868 
	C753.928162,928.785889 754.452759,928.956848 754.977356,929.127869 
	C755.520020,927.927795 756.522583,926.728333 756.524292,925.527405 
	C756.531189,920.711121 756.227905,915.894287 756.502930,911.040955 
	C762.858582,911.335876 768.748474,911.711487 774.643005,911.990540 
	C790.072937,912.721008 805.504883,913.409241 820.845459,914.432739 
	C814.134766,920.013367 807.452271,925.200806 800.961487,930.617981 
	C799.978333,931.438477 799.886475,933.326843 799.382385,934.721313 
	C800.895569,934.962463 802.705017,935.867126 803.876953,935.343872 
	C818.320129,928.894531 832.670227,922.236694 847.044312,915.632690 
z"/>
<path fill="#D5F1FF" opacity="1.000000" stroke="none" 
	d="
M86.632904,228.062378 
	C86.968506,364.675690 86.982025,501.402161 86.983475,638.601685 
	C79.311981,628.683594 71.228188,618.574707 64.088890,607.837830 
	C52.275063,590.070801 41.894165,571.381104 34.868515,551.205200 
	C28.545290,533.046448 22.902441,514.581360 18.290758,495.922302 
	C15.536592,484.778839 15.246858,473.012329 14.035434,461.506287 
	C13.194537,453.519470 11.735352,445.445496 12.192549,437.504883 
	C13.264591,418.885712 14.731977,400.247192 17.116619,381.755432 
	C20.827606,352.978516 30.212788,325.796051 42.119171,299.412201 
	C52.288010,276.878693 65.373749,256.102295 79.581696,235.980347 
	C81.553764,233.187424 84.054718,230.767914 86.632904,228.062378 
z"/>
<path fill="#D5F1FF" opacity="1.000000" stroke="none" 
	d="
M907.379333,646.950195 
	C907.034363,624.106812 906.991272,601.122803 906.991211,578.138855 
	C906.990784,464.049713 907.001587,349.960571 907.030640,235.399475 
	C914.712891,245.136780 922.559937,255.213089 929.955872,265.610352 
	C933.762390,270.961548 936.905212,276.806580 940.105591,282.563171 
	C951.271118,302.647003 961.093994,323.377930 967.086731,345.615601 
	C971.311096,361.291534 975.097107,377.156250 977.778748,393.154633 
	C979.883850,405.713165 980.565491,418.592773 980.847717,431.352570 
	C981.166199,445.749115 980.857178,460.209534 979.813782,474.568939 
	C979.101624,484.369019 976.807678,494.071167 974.965637,503.768585 
	C971.268250,523.233154 965.486267,542.125488 957.926270,560.400391 
	C948.215881,583.873657 936.887390,606.520569 921.570190,626.980347 
	C916.738647,633.434082 912.312622,640.191345 907.379333,646.950195 
z"/>
<path fill="#242568" opacity="1.000000" stroke="none" 
	d="
M177.562149,689.011475 
	C177.630936,688.778381 177.699722,688.545349 178.218750,688.064819 
	C180.888184,688.447144 183.074158,689.434570 185.332352,689.644226 
	C194.506836,690.496277 198.664963,685.200317 195.698410,676.718689 
	C194.332657,672.813904 192.759369,668.953369 191.799728,664.948242 
	C191.393707,663.253784 191.794754,660.790344 192.851105,659.540222 
	C193.469757,658.808167 196.128036,659.658020 197.822739,660.014893 
	C199.679474,660.405884 201.483215,661.048584 203.310043,661.581604 
	C203.703232,660.907349 204.096420,660.233154 204.489609,659.558899 
	C201.656494,657.068298 199.061600,654.209900 195.929489,652.180786 
	C192.075455,649.683960 189.927292,646.667236 190.778931,642.034058 
	C203.859909,642.370544 216.492004,642.779541 229.127380,642.993713 
	C236.041138,643.110962 242.960480,642.898987 249.877304,642.835449 
	C255.166824,658.014404 260.456329,673.193359 265.924225,689.061646 
	C267.271057,693.015503 268.465515,696.270935 269.603699,699.545898 
	C276.570496,719.592285 284.441010,739.491333 279.858765,761.453125 
	C279.827423,761.603333 279.912384,761.777893 279.651611,762.208862 
	C278.841431,767.053406 278.341644,771.632507 277.800049,776.206604 
	C276.523560,786.987854 275.171417,797.760376 273.955353,808.548340 
	C272.847870,818.373474 271.932770,828.220215 270.837006,838.046753 
	C269.250153,852.277344 267.456207,866.486267 266.023773,880.731873 
	C265.657288,884.376404 264.655548,886.946533 260.437561,887.804993 
	C253.384659,887.613342 246.787155,887.464050 239.756927,887.202576 
	C237.722443,886.906006 236.120651,886.721619 234.553101,886.541199 
	C234.020355,877.561584 233.388046,868.987915 233.033127,860.402710 
	C232.573868,849.294678 232.316849,838.177917 232.007797,827.063965 
	C231.643265,813.953247 231.303864,800.841797 230.976151,787.730164 
	C230.610947,773.118469 230.271164,758.506165 229.866470,743.530945 
	C228.253479,739.056396 226.694305,734.945007 225.135132,730.833557 
	C224.777145,730.935242 224.419174,731.036987 224.061188,731.138672 
	C224.061188,735.055542 224.061188,738.972412 224.024567,743.322754 
	C222.539642,753.031616 221.180664,762.321960 219.624268,771.579102 
	C216.458054,790.411133 213.156387,809.220337 209.964539,828.048096 
	C206.775162,846.861084 203.651718,865.685181 200.408539,885.046631 
	C197.817993,885.046631 195.363754,885.046631 192.493698,885.012329 
	C185.312515,884.365234 178.547165,883.752441 171.781799,883.139587 
	C170.648209,882.513855 169.514603,881.888123 168.509125,881.333130 
	C169.360168,872.385925 170.143021,863.547668 171.054688,854.722717 
	C172.239197,843.256409 173.571930,831.805359 174.753540,820.338806 
	C175.599350,812.130920 176.241577,803.902039 177.082611,795.693604 
	C178.255554,784.245483 180.078430,772.833069 180.609558,761.358398 
	C181.171509,749.218018 180.589554,737.021912 180.391663,724.851990 
	C180.360428,722.931335 179.718796,721.020508 179.355438,718.280884 
	C178.755051,707.974915 178.158600,698.493225 177.562149,689.011475 
z"/>
<path fill="#242568" opacity="1.000000" stroke="none" 
	d="
M722.818359,688.996826 
	C725.326660,679.908936 727.854309,670.826233 730.304321,661.722656 
	C730.489136,661.035767 730.120667,660.199890 730.005371,658.754700 
	C731.990479,654.693787 733.366821,650.654785 736.117249,648.088501 
	C739.906494,644.553040 744.733948,642.130310 749.534973,639.364380 
	C772.248108,638.955017 794.542847,638.412170 816.915894,638.340637 
	C816.935059,642.702820 816.876038,646.593689 816.631104,650.800842 
	C816.388611,653.988953 816.332092,656.860840 816.275635,659.732727 
	C815.768066,669.189941 815.260498,678.647217 814.743958,688.963745 
	C814.140564,703.629517 813.546143,717.435852 812.951782,731.242249 
	C810.091980,736.771240 813.395447,741.564697 815.022766,746.409790 
	C822.531982,768.767883 830.281006,791.045288 837.927124,813.357422 
	C841.976318,825.173279 846.001282,836.997498 849.999817,848.830566 
	C850.303284,849.728699 850.307434,850.727905 849.877930,851.876465 
	C843.885742,854.354980 838.466248,856.637024 832.665649,858.979919 
	C830.648010,859.040710 829.011475,859.040710 826.909119,859.040710 
	C821.423584,847.333923 815.876038,835.377808 810.229065,823.468689 
	C799.814514,801.504883 789.356812,779.561462 778.863647,757.635132 
	C778.049988,755.934937 776.816101,754.435852 775.683594,752.516235 
	C768.573975,740.320679 770.475708,726.740356 768.152405,713.816711 
	C765.738953,719.854004 762.891479,725.833496 762.091431,732.075562 
	C760.958252,740.916260 761.335205,749.950500 761.045044,759.342590 
	C760.670044,762.559204 760.099731,765.327515 760.001343,768.112610 
	C759.586060,779.866699 759.266296,791.624817 758.996277,803.383362 
	C758.611877,820.128845 758.075317,836.876343 758.099243,853.622314 
	C758.106323,858.578125 756.821472,860.746338 751.368713,860.182068 
	C745.365967,860.242920 739.819885,860.266174 733.863525,860.185608 
	C732.303711,859.042725 730.333496,858.135620 730.141724,856.942688 
	C729.124084,850.611328 728.570374,844.206177 727.823303,837.830444 
	C726.234741,824.272766 724.695862,810.708679 722.995972,797.164917 
	C722.144653,790.382263 720.984741,783.638367 719.974487,776.455200 
	C719.125793,768.117737 718.106812,760.215271 717.445923,752.283020 
	C716.458923,740.437927 713.882874,728.637146 716.777161,716.672119 
	C718.996643,707.496765 720.819214,698.225464 722.818359,688.996826 
z"/>
<path fill="#241E5F" opacity="1.000000" stroke="none" 
	d="
M847.228882,915.370117 
	C832.670227,922.236694 818.320129,928.894531 803.876953,935.343872 
	C802.705017,935.867126 800.895569,934.962463 799.382385,934.721313 
	C799.886475,933.326843 799.978333,931.438477 800.961487,930.617981 
	C807.452271,925.200806 814.134766,920.013367 821.211060,914.384338 
	C828.912354,910.384644 832.982300,904.055786 836.435791,896.795898 
	C843.138062,887.375977 847.476379,877.218079 850.087463,866.276184 
	C850.450012,864.756775 851.467712,863.393738 852.182129,861.958252 
	C866.622192,883.954651 875.864380,905.180969 873.192444,909.361633 
	C869.292603,903.188232 865.299011,896.866516 861.473389,890.810669 
	C856.685303,899.084900 852.049438,907.096252 847.228882,915.370117 
z"/>
<path fill="#251E60" opacity="1.000000" stroke="none" 
	d="
M199.765747,912.992371 
	C207.013031,916.638672 214.363327,920.097412 221.469315,924.000977 
	C225.801682,926.380798 229.965088,929.195618 233.764633,932.345398 
	C235.006821,933.375305 234.862656,936.077393 235.352509,938.014771 
	C233.617523,938.356018 231.770599,939.267517 230.164551,938.952148 
	C209.445160,934.883728 188.802460,930.409607 168.037552,926.598389 
	C162.624893,925.604980 161.218643,923.611206 162.840714,918.735107 
	C163.153183,917.795898 163.238998,916.781311 163.287720,915.400208 
	C165.314087,911.705139 167.482071,908.411316 170.308594,905.052002 
	C176.150497,908.517395 181.653259,910.018005 188.069122,907.847656 
	C192.168854,909.708008 195.967300,911.350220 199.765747,912.992371 
z"/>
<path fill="#D4F0FD" opacity="1.000000" stroke="none" 
	d="
M813.307434,731.134644 
	C813.546143,717.435852 814.140564,703.629517 814.846924,689.424316 
	C817.713135,689.010132 820.467407,688.981262 823.221619,688.981689 
	C837.843201,688.983948 852.464783,688.993591 867.555908,689.015076 
	C860.126892,695.742737 852.478394,702.781799 844.265503,709.085632 
	C834.313782,716.724060 823.885315,723.741211 813.307434,731.134644 
z"/>
<path fill="#D5F0FD" opacity="1.000000" stroke="none" 
	d="
M177.124146,688.977295 
	C178.158600,698.493225 178.755051,707.974915 179.203461,717.934570 
	C165.411316,708.826355 151.767197,699.240173 137.985901,689.330200 
	C150.794525,688.985352 163.740326,688.964233 177.124146,688.977295 
z"/>
<path fill="#FB9867" opacity="1.000000" stroke="none" 
	d="
M187.767822,907.629578 
	C181.653259,910.018005 176.150497,908.517395 170.629379,904.864197 
	C170.850204,897.829590 171.408768,890.917358 171.874557,883.572388 
	C178.547165,883.752441 185.312515,884.365234 192.526489,885.414551 
	C191.239334,893.110474 189.503571,900.370056 187.767822,907.629578 
z"/>
<path fill="#F89767" opacity="1.000000" stroke="none" 
	d="
M852.095154,861.566650 
	C851.467712,863.393738 850.450012,864.756775 850.087463,866.276184 
	C847.476379,877.218079 843.138062,887.375977 836.386475,896.364075 
	C836.538452,892.740784 837.199219,889.398804 837.479919,886.025208 
	C838.260742,876.638672 839.807617,867.086792 833.046753,858.919067 
	C838.466248,856.637024 843.885742,854.354980 849.676758,852.156067 
	C850.701660,855.217834 851.354919,858.196411 852.095154,861.566650 
z"/>
<path fill="#D5F1FF" opacity="1.000000" stroke="none" 
	d="
M722.361572,688.989014 
	C720.819214,698.225464 718.996643,707.496765 716.777161,716.672119 
	C713.882874,728.637146 716.458923,740.437927 717.445923,752.283020 
	C718.106812,760.215271 719.125793,768.117737 719.559692,776.507324 
	C718.168152,777.100830 717.161377,777.086060 716.241028,777.360840 
	C706.705505,780.208252 697.310425,783.662598 687.628296,785.850708 
	C673.452759,789.054199 659.148132,791.882751 644.763489,793.915405 
	C626.836853,796.448486 608.811768,798.985107 590.756775,799.705872 
	C573.973572,800.375793 557.074524,798.981689 540.265625,797.892700 
	C527.902527,797.091675 515.469543,796.041992 503.304749,793.810730 
	C483.693176,790.213745 464.155975,786.087830 445.311615,779.213135 
	C441.141022,777.691650 436.397278,777.031677 431.944672,777.136169 
	C421.764648,777.375000 411.608948,778.535706 401.428223,778.908630 
	C396.527618,779.088135 391.589203,778.004578 386.673920,778.057068 
	C367.744293,778.259094 348.972290,776.682861 330.436401,772.944824 
	C313.552246,769.539856 296.770142,765.628967 279.943054,761.941040 
	C279.912384,761.777893 279.827423,761.603333 279.858765,761.453125 
	C284.441010,739.491333 276.570496,719.592285 269.603699,699.545898 
	C268.465515,696.270935 267.271057,693.015503 266.118286,689.376953 
	C310.724335,688.972778 355.314697,688.942627 400.354218,688.935547 
	C507.837219,688.966187 614.871033,688.973755 722.361572,688.989014 
z"/>
<path fill="#FEFEFF" opacity="1.000000" stroke="none" 
	d="
M121.176537,239.027802 
	C122.402679,235.365936 124.950172,234.041473 128.781769,234.044418 
	C207.250168,234.104507 285.718628,234.082397 364.187073,234.109100 
	C369.518768,234.110916 371.129028,235.683365 371.145691,240.904663 
	C371.202606,258.730591 371.132080,276.556976 371.197815,294.382874 
	C371.210022,297.686646 370.274536,299.931152 365.767334,300.262634 
	C287.022827,300.313080 209.134079,300.305481 131.245316,300.292114 
	C121.896126,300.290497 121.248970,299.599091 121.240067,289.953156 
	C121.224388,272.978027 121.198273,256.002930 121.176537,239.027802 
z"/>
<path fill="#11B9A2" opacity="1.000000" stroke="none" 
	d="
M249.850891,642.437866 
	C242.960480,642.898987 236.041138,643.110962 229.127380,642.993713 
	C216.492004,642.779541 203.859909,642.370544 190.685822,641.610229 
	C188.498718,628.480042 186.775314,615.791809 185.231750,603.081787 
	C184.131134,594.018982 182.315430,584.902527 182.545074,575.853821 
	C182.839249,564.261169 184.871689,552.713074 186.142319,541.144409 
	C186.347549,539.275940 186.486313,537.400269 186.668900,535.383240 
	C174.893921,537.064575 168.468155,536.181458 159.278336,531.396729 
	C160.624191,520.309021 162.046982,509.644318 163.469788,498.979584 
	C166.418671,479.937317 180.421967,475.065094 196.674377,473.050171 
	C198.803238,472.786224 200.913834,472.374878 203.534210,472.358124 
	C205.574310,474.567596 206.954498,476.611969 208.677841,478.307587 
	C219.188980,488.650269 225.479980,487.139282 230.427124,473.349335 
	C232.727768,473.875916 234.745834,474.095032 236.586273,474.786774 
	C249.276642,479.556458 261.954529,484.361877 274.578461,489.303955 
	C277.881927,490.597229 280.980591,492.413574 284.202942,494.403809 
	C287.320099,504.433380 283.503571,512.653137 278.564941,520.908752 
	C267.265259,520.000366 256.394531,518.916016 244.708298,517.750305 
	C245.467560,533.499573 246.210144,548.902527 246.918198,564.692688 
	C246.941177,566.374390 246.998688,567.668884 247.056183,568.963379 
	C247.782150,592.516541 248.502930,616.069824 249.255753,639.622131 
	C249.281662,640.433350 249.627670,641.234436 249.850891,642.437866 
z"/>
<path fill="#FEFEFE" opacity="1.000000" stroke="none" 
	d="
M121.232353,368.027710 
	C122.365288,364.298218 124.897629,362.985291 128.747513,362.988251 
	C207.188965,363.048248 285.630493,363.024719 364.071991,363.046387 
	C369.817200,363.048004 371.114044,364.423401 371.146698,370.106995 
	C371.196503,378.766357 371.212799,387.425934 371.074524,396.834961 
	C368.806244,398.906311 366.839020,400.540680 364.583954,401.494843 
	C355.763367,405.227051 351.445099,411.821930 350.635712,421.292694 
	C350.401459,424.033691 348.472168,426.629822 346.824585,429.221436 
	C319.255035,429.155426 292.180908,429.160339 265.013977,428.817596 
	C263.540131,426.435364 262.517944,423.978180 260.711700,422.444092 
	C254.909317,417.515839 252.461472,411.355499 251.607834,403.886688 
	C251.197876,400.299805 248.433609,396.981964 246.951630,393.312775 
	C251.404602,389.159515 256.200317,385.677185 259.736389,381.199982 
	C264.119232,375.650574 261.996704,370.380646 255.241592,368.082977 
	C253.379013,367.449432 251.371948,367.072083 249.406387,366.936523 
	C234.044418,365.876953 220.345535,370.729218 208.960770,380.596069 
	C201.153961,387.361969 193.368500,393.648590 183.971283,398.128754 
	C177.412704,401.255585 176.322342,405.663422 179.543503,412.178406 
	C182.398087,417.951904 185.794678,423.457458 188.486969,429.106415 
	C168.329224,429.146362 148.635254,429.267914 128.945404,429.037231 
	C126.557259,429.009247 124.191368,427.082428 121.856979,425.791504 
	C121.862480,425.192596 121.694740,424.918121 121.363068,424.405609 
	C121.295685,423.448425 121.260826,422.809601 121.385948,421.919617 
	C121.435417,420.725250 121.324921,419.781982 121.231583,418.380554 
	C121.243286,401.290802 121.237816,384.659271 121.232353,368.027710 
z"/>
<path fill="#FEFEFE" opacity="1.000000" stroke="none" 
	d="
M246.952698,564.305542 
	C246.210144,548.902527 245.467560,533.499573 244.708298,517.750305 
	C256.394531,518.916016 267.265259,520.000366 278.975098,520.988525 
	C287.142151,522.140991 294.472900,523.373718 301.797272,524.643188 
	C307.988403,525.716248 313.317200,524.691467 316.817108,518.805115 
	C320.952179,511.850525 325.144714,504.930084 329.312317,497.994812 
	C340.794891,498.024017 352.277649,498.031830 363.760101,498.091095 
	C369.897461,498.122772 371.143250,499.331146 371.152435,505.334961 
	C371.178864,522.643250 371.137115,539.951660 371.173920,557.259888 
	C371.181122,560.650757 370.947296,563.730652 365.760132,564.249634 
	C327.308899,564.322083 289.708649,564.336182 251.801849,564.267212 
	C251.293365,564.247986 251.091461,564.311829 250.496155,564.350098 
	C249.052750,564.318115 248.002716,564.311829 246.952698,564.305542 
z"/>
<path fill="#FB9969" opacity="1.000000" stroke="none" 
	d="
M159.355286,531.819702 
	C168.468155,536.181458 174.893921,537.064575 186.668900,535.383240 
	C186.486313,537.400269 186.347549,539.275940 186.142319,541.144409 
	C184.871689,552.713074 182.839249,564.261169 182.545074,575.853821 
	C182.315430,584.902527 184.131134,594.018982 185.231750,603.081787 
	C186.775314,615.791809 188.498718,628.480042 190.238297,641.601318 
	C189.927292,646.667236 192.075455,649.683960 195.929489,652.180786 
	C199.061600,654.209900 201.656494,657.068298 204.489609,659.558899 
	C204.096420,660.233154 203.703232,660.907349 203.310043,661.581604 
	C201.483215,661.048584 199.679474,660.405884 197.822739,660.014893 
	C196.128036,659.658020 193.469757,658.808167 192.851105,659.540222 
	C191.794754,660.790344 191.393707,663.253784 191.799728,664.948242 
	C192.759369,668.953369 194.332657,672.813904 195.698410,676.718689 
	C198.664963,685.200317 194.506836,690.496277 185.332352,689.644226 
	C183.074158,689.434570 180.888184,688.447144 178.277451,687.705078 
	C173.444336,684.224243 172.179230,679.690125 172.888687,674.347168 
	C173.325363,671.058655 173.195053,667.656860 173.951126,664.455139 
	C177.245667,650.504089 172.494202,637.492859 169.501617,624.291077 
	C166.237244,609.890259 162.628006,595.566956 159.429474,581.152100 
	C158.612274,577.469177 158.778595,573.567932 158.482452,568.950195 
	C158.515488,566.864868 158.559143,565.596436 158.683258,563.845215 
	C158.960922,552.848206 159.158112,542.333984 159.355286,531.819702 
z"/>
<path fill="#FDAC81" opacity="1.000000" stroke="none" 
	d="
M246.735519,393.542297 
	C248.433609,396.981964 251.197876,400.299805 251.607834,403.886688 
	C252.461472,411.355499 254.909317,417.515839 260.711700,422.444092 
	C262.517944,423.978180 263.540131,426.435364 264.832275,429.124146 
	C261.885651,430.993347 259.027985,432.208344 255.828156,433.564331 
	C255.022522,436.286346 254.340088,438.850006 254.133484,441.451477 
	C253.245789,452.629517 243.260742,464.821411 232.574249,467.913361 
	C231.406387,468.251312 230.627136,469.932343 229.470764,470.695251 
	C228.060242,469.575439 226.950485,468.456787 225.612503,467.983948 
	C222.240860,466.792358 218.273651,466.619720 215.447083,464.706329 
	C211.071213,461.744141 207.445923,457.673157 203.502380,454.072327 
	C201.635712,450.556732 199.769028,447.041107 198.100281,442.858765 
	C199.833969,434.770508 201.487701,427.370758 202.864822,419.919891 
	C203.815353,414.777100 205.441574,410.016846 210.591766,407.889557 
	C222.571228,402.941376 234.679459,398.305023 246.735519,393.542297 
z"/>
<path fill="#FC9A6A" opacity="1.000000" stroke="none" 
	d="
M329.404785,497.669006 
	C325.144714,504.930084 320.952179,511.850525 316.817108,518.805115 
	C313.317200,524.691467 307.988403,525.716248 301.797272,524.643188 
	C294.472900,523.373718 287.142151,522.140991 279.404053,520.812500 
	C283.503571,512.653137 287.320099,504.433380 284.585388,494.429749 
	C289.253510,495.205780 293.617676,496.218414 297.867249,497.586853 
	C300.775208,498.523224 302.481598,497.691010 304.029999,495.172516 
	C306.720856,490.795898 309.718567,486.609070 312.540863,482.311951 
	C323.088837,466.251740 333.617828,450.179047 344.427490,433.932495 
	C345.574036,432.266754 346.446991,430.779541 347.319946,429.292358 
	C348.472168,426.629822 350.401459,424.033691 350.635712,421.292694 
	C351.445099,411.821930 355.763367,405.227051 364.583954,401.494843 
	C366.839020,400.540680 368.806244,398.906311 371.131775,397.300598 
	C373.980103,396.224396 376.602325,395.432037 379.224548,394.639679 
	C379.714020,395.392334 380.203491,396.145020 380.692963,396.897675 
	C377.625183,399.536743 374.557373,402.175781 370.992981,405.236206 
	C365.432587,411.666565 365.437592,411.769409 371.014832,416.258484 
	C372.105286,417.509369 373.232666,418.730286 374.278229,420.017639 
	C376.199280,422.382935 375.880157,424.579102 373.657501,426.571045 
	C373.410675,426.792297 373.172791,427.066956 372.877930,427.185059 
	C359.147491,432.684387 354.367615,445.448273 348.576416,457.310852 
	C342.091766,470.593964 335.846619,483.994019 329.404785,497.669006 
z"/>
<path fill="#FDFEFE" opacity="1.000000" stroke="none" 
	d="
M159.278351,531.396729 
	C159.158112,542.333984 158.960922,552.848206 158.243683,563.834106 
	C148.420807,564.294067 139.117966,564.285583 129.815140,564.269531 
	C122.528816,564.256897 121.245682,562.970886 121.234871,555.500366 
	C121.211067,539.054260 121.218620,522.608215 121.342133,506.017578 
	C121.505310,505.748901 121.595482,505.607178 121.562904,505.504303 
	C121.488220,505.268433 121.353668,505.051544 121.254440,504.494110 
	C121.221786,503.719513 121.178108,503.277710 121.134430,502.835938 
	C123.060989,501.261597 124.953415,498.378601 126.919708,498.327301 
	C138.848618,498.016174 150.794388,498.350830 163.102142,498.724670 
	C162.046982,509.644318 160.624191,520.309021 159.278351,531.396729 
z"/>
<path fill="#090550" opacity="1.000000" stroke="none" 
	d="
M246.951630,393.312775 
	C234.679459,398.305023 222.571228,402.941376 210.591766,407.889557 
	C205.441574,410.016846 203.815353,414.777100 202.864822,419.919891 
	C201.487701,427.370758 199.833969,434.770508 198.077698,442.468506 
	C196.083618,439.921204 194.310059,437.097412 192.190216,433.756836 
	C190.879959,431.853790 189.915985,430.467529 188.951996,429.081299 
	C185.794678,423.457458 182.398087,417.951904 179.543503,412.178406 
	C176.322342,405.663422 177.412704,401.255585 183.971283,398.128754 
	C193.368500,393.648590 201.153961,387.361969 208.960770,380.596069 
	C220.345535,370.729218 234.044418,365.876953 249.406387,366.936523 
	C251.371948,367.072083 253.379013,367.449432 255.241592,368.082977 
	C261.996704,370.380646 264.119232,375.650574 259.736389,381.199982 
	C256.200317,385.677185 251.404602,389.159515 246.951630,393.312775 
z"/>
<path fill="#2D7EFB" opacity="1.000000" stroke="none" 
	d="
M120.800217,239.030045 
	C121.198273,256.002930 121.224388,272.978027 121.240067,289.953156 
	C121.248970,299.599091 121.896126,300.290497 131.245316,300.292114 
	C209.134079,300.305481 287.022827,300.313080 365.365448,300.368195 
	C364.460327,301.926758 363.263977,303.655029 361.670807,304.857513 
	C360.922394,305.422424 359.410004,304.985077 358.243805,304.985138 
	C280.767426,304.988312 203.291077,304.990387 125.814705,304.990540 
	C117.247673,304.990570 116.141312,303.865051 116.138634,295.146851 
	C116.133713,279.151733 116.138924,263.156616 116.132759,247.161484 
	C116.131416,243.688232 116.495934,240.423935 120.800217,239.030045 
z"/>
<path fill="#3181F9" opacity="1.000000" stroke="none" 
	d="
M188.486984,429.106415 
	C189.915985,430.467529 190.879959,431.853790 191.918396,433.543091 
	C169.190125,433.885010 146.387405,433.955750 123.584717,433.939697 
	C118.110916,433.935852 116.161804,431.919586 116.142647,426.295746 
	C116.084244,409.151093 116.149300,392.006104 116.100937,374.861389 
	C116.091614,371.557800 116.815155,368.905334 120.843109,368.017822 
	C121.237816,384.659271 121.243286,401.290802 121.129242,418.791260 
	C121.081802,420.497009 121.153885,421.333893 121.225967,422.170746 
	C121.260826,422.809601 121.295685,423.448425 121.309525,424.651733 
	C121.464058,425.489319 121.639618,425.762482 121.815170,426.035614 
	C124.191368,427.082428 126.557259,429.009247 128.945404,429.037231 
	C148.635254,429.267914 168.329224,429.146362 188.486984,429.106415 
z"/>
<path fill="#2A7DFA" opacity="1.000000" stroke="none" 
	d="
M246.918182,564.692749 
	C248.002716,564.311829 249.052750,564.318115 250.623764,564.484619 
	C251.465973,564.546570 251.787201,564.448425 252.108429,564.350342 
	C289.708649,564.336182 327.308899,564.322083 365.362549,564.356812 
	C366.099915,568.221436 363.297485,568.741943 360.618927,568.905396 
	C356.811554,569.137695 352.980194,568.982056 349.159088,568.982300 
	C315.433441,568.984192 281.707825,568.983887 247.519196,568.973816 
	C246.998688,567.668884 246.941177,566.374390 246.918182,564.692749 
z"/>
<path fill="#3080FA" opacity="1.000000" stroke="none" 
	d="
M121.213371,506.162140 
	C121.218620,522.608215 121.211067,539.054260 121.234871,555.500366 
	C121.245682,562.970886 122.528816,564.256897 129.815140,564.269531 
	C139.117966,564.285583 148.420807,564.294067 158.163208,564.316895 
	C158.559143,565.596436 158.515488,566.864868 158.347595,568.498108 
	C146.401596,568.905945 134.578964,568.878906 122.758545,569.027527 
	C118.232185,569.084412 116.227211,566.586792 116.197815,562.608398 
	C116.066109,544.789185 116.003296,526.965942 116.330788,509.151794 
	C116.369171,507.063934 118.972145,505.023224 120.760330,502.898315 
	C121.178108,503.277710 121.221786,503.719513 121.179840,504.826416 
	C121.133942,505.715088 121.173660,505.938599 121.213371,506.162140 
z"/>
<path fill="#FB9969" opacity="1.000000" stroke="none" 
	d="
M203.582108,454.531189 
	C207.445923,457.673157 211.071213,461.744141 215.447083,464.706329 
	C218.273651,466.619720 222.240860,466.792358 225.612503,467.983948 
	C226.950485,468.456787 228.060242,469.575439 229.558594,471.069336 
	C229.916290,472.245941 229.989319,472.753265 230.062332,473.260620 
	C225.479980,487.139282 219.188980,488.650269 208.677841,478.307587 
	C206.954498,476.611969 205.574310,474.567596 203.935684,472.344849 
	C203.777832,466.333527 203.719833,460.661804 203.582108,454.531189 
z"/>
<path fill="#FCFCFD" opacity="1.000000" stroke="none" 
	d="
M371.064270,415.785461 
	C365.437592,411.769409 365.432587,411.666565 370.788269,405.514771 
	C371.091339,408.685486 371.102539,411.998962 371.064270,415.785461 
z"/>
<path fill="#DEE6FD" opacity="1.000000" stroke="none" 
	d="
M449.942871,221.174194 
	C451.865326,219.407486 453.523682,217.051910 455.783844,216.038391 
	C458.078400,215.009460 460.966797,215.056778 463.595245,215.055954 
	C592.710388,215.015427 721.825623,214.956650 850.940552,215.106094 
	C866.148682,215.123688 865.730408,215.809219 865.821411,230.065445 
	C866.195923,288.706299 865.984070,347.350952 865.966064,405.994232 
	C865.964661,410.482117 866.261719,415.016296 861.020447,417.515961 
	C859.983276,418.010620 860.017822,420.752380 859.290527,422.281799 
	C858.935120,420.734406 858.847290,419.363098 858.760437,418.007446 
	C843.136719,418.007446 828.123474,418.007446 812.787292,417.882538 
	C810.082581,416.250000 807.844604,414.413910 805.291931,413.296692 
	C797.798096,410.016907 794.274475,404.663574 793.858704,396.309998 
	C793.322632,385.539276 788.016602,377.014191 778.674927,371.381378 
	C768.419739,365.197815 757.202087,363.289581 745.571838,365.719269 
	C736.944092,367.521698 731.048889,372.600189 728.798218,381.798309 
	C725.340698,395.928833 729.313721,407.620483 738.596802,417.821472 
	C645.159180,417.828827 552.195129,417.840759 459.231049,417.833496 
	C452.033447,417.832947 450.080353,415.820984 450.079285,408.597382 
	C450.072418,361.615509 450.087067,314.633667 450.070343,267.651794 
	C450.064850,252.159241 449.987427,236.666733 449.942871,221.174194 
M506.749695,260.149384 
	C499.087830,267.029053 491.978729,274.158386 486.971008,283.517609 
	C475.763123,304.464783 476.165222,325.725708 486.457642,346.068329 
	C495.557251,364.053436 510.853607,376.145874 531.146423,380.510986 
	C551.790344,384.951538 570.837830,381.016418 587.615845,368.080109 
	C601.019897,357.745178 609.805298,343.986572 612.434448,327.326660 
	C614.124695,316.615601 613.997192,305.522827 610.494751,294.802063 
	C606.126282,281.430450 598.335022,270.659485 587.434265,261.839569 
	C577.111145,253.486954 565.241333,249.233704 552.283936,248.073563 
	C536.009277,246.616394 520.963440,250.579758 506.749695,260.149384 
M699.500000,259.017883 
	C683.177185,259.017883 666.854431,259.018158 650.531616,259.017761 
	C637.221252,259.017426 636.825562,259.416870 637.022583,272.667969 
	C637.133362,280.114227 638.027161,281.019989 645.326660,281.020233 
	C710.451355,281.022247 775.576172,281.065186 840.700745,280.987885 
	C854.944275,280.970978 854.020996,283.553070 854.009766,267.689545 
	C854.004395,260.111206 852.929077,259.021973 845.406677,259.021118 
	C797.104431,259.015594 748.802246,259.018066 699.500000,259.017883 
M814.500000,310.986877 
	C758.536133,310.986786 702.572327,310.986511 646.608459,310.986816 
	C638.310364,310.986877 636.816345,312.513031 637.054382,320.985596 
	C637.100403,322.624512 637.482727,324.260193 637.779175,325.884766 
	C639.075989,332.993958 639.085266,332.998810 646.228638,332.998962 
	C712.519165,333.000549 778.809692,333.000000 845.100220,332.997620 
	C846.432251,332.997559 847.781799,333.100433 849.092896,332.927063 
	C852.299927,332.502960 854.236938,330.978790 854.044678,327.342346 
	C853.860229,323.854401 853.906616,320.345276 854.034668,316.852173 
	C854.192200,312.553986 852.167053,310.903473 847.978577,310.948242 
	C837.153442,311.063995 826.326355,310.986908 814.500000,310.986877 
z"/>
<path fill="#DDE5FC" opacity="1.000000" stroke="none" 
	d="
M448.985657,453.923828 
	C451.845642,449.449310 455.821991,447.906250 461.201080,447.918823 
	C519.233093,448.054352 577.265625,447.979340 636.080566,448.066528 
	C645.127991,452.264801 650.353760,458.820160 653.962952,467.314636 
	C659.351257,479.996246 665.343811,492.432709 671.420654,504.805817 
	C675.001221,512.096191 678.846619,519.329224 683.381470,526.041870 
	C685.154846,528.666809 689.216431,531.426758 692.106995,531.295166 
	C700.173401,530.928040 708.172363,529.080811 716.494629,528.008057 
	C719.193665,528.675354 721.596069,529.152527 723.998657,530.051086 
	C723.993591,557.017151 724.113892,583.563049 723.870483,610.105530 
	C723.825195,615.047363 725.433594,616.556152 730.091248,616.045532 
	C733.041992,615.722046 736.057129,615.985596 739.086243,616.408203 
	C738.987610,618.233093 738.846130,619.635620 738.258240,621.027710 
	C735.992004,621.011536 734.172119,621.001160 732.352295,621.000732 
	C723.005432,620.998535 723.002258,620.999817 724.158997,630.513123 
	C724.195862,630.815674 724.450928,631.091675 724.630981,631.430237 
	C728.172058,631.665405 731.739929,631.902405 735.108398,632.421814 
	C729.903931,637.809204 723.784241,639.948120 716.684692,640.182251 
	C713.388977,640.290955 710.129395,641.493225 706.853394,642.199768 
	C706.925476,642.900513 706.997498,643.601196 707.069580,644.301941 
	C709.043152,644.720154 711.026306,645.098206 712.988098,645.565796 
	C716.156982,646.320923 717.259766,647.923218 714.623535,650.650269 
	C713.080383,650.472717 711.915771,650.408997 710.751160,650.408997 
	C627.439819,650.406494 544.128479,650.408386 460.817139,650.411987 
	C451.005096,650.412415 450.071960,649.471436 450.071503,639.467590 
	C450.068817,579.650024 450.078857,519.832458 450.021393,460.014923 
	C450.019470,457.984222 449.346069,455.954193 448.985657,453.923828 
M457.854767,576.915344 
	C458.477936,586.221191 462.574493,594.058655 468.229828,601.199768 
	C483.859650,620.936157 515.865662,625.399780 535.023621,610.201111 
	C552.316589,599.170837 560.438110,575.878784 554.184448,555.248779 
	C547.784607,534.136536 528.218872,519.637329 505.936920,520.052917 
	C485.808716,520.148865 467.076447,533.047424 460.243195,551.875854 
	C457.414032,559.671326 455.507782,567.718567 457.854767,576.915344 
M660.014954,521.688416 
	C660.401978,518.444092 659.427490,516.795532 655.695129,516.923767 
	C648.548401,517.169373 641.386047,517.072937 634.232727,516.958435 
	C631.436157,516.913696 629.957886,517.534302 629.967102,520.787964 
	C630.053223,551.072266 630.041626,581.356995 629.987427,611.641418 
	C629.981628,614.892517 631.371094,616.065918 634.510376,616.013855 
	C641.164490,615.903442 647.835083,615.726318 654.472900,616.073853 
	C658.848083,616.302979 660.144287,614.966858 660.114502,610.507812 
	C659.918884,581.222900 660.014465,551.936157 660.014954,521.688416 
M707.014648,608.414490 
	C707.014832,585.756104 706.889587,563.096375 707.121033,540.440369 
	C707.167236,535.918152 705.762573,534.686584 701.437622,534.904907 
	C694.790283,535.240417 688.111145,535.101440 681.450439,534.948914 
	C678.394348,534.878967 676.937927,535.598755 676.954895,539.075623 
	C677.073364,563.399536 677.059265,587.724487 676.966370,612.048584 
	C676.954468,615.171265 678.146606,616.091492 681.095398,616.025818 
	C687.589783,615.881165 694.089661,615.986816 700.587280,615.981873 
	C706.988770,615.976929 706.988770,615.972351 707.014648,608.414490 
M540.198120,494.934326 
	C547.418396,494.801514 550.977051,492.115570 551.031555,486.757568 
	C551.080322,481.963043 547.377625,478.277222 541.904480,478.253662 
	C520.109497,478.159882 498.312134,478.089874 476.520508,478.378510 
	C473.899048,478.413177 470.402832,480.055389 468.961273,482.109741 
	C467.574921,484.085419 467.147217,488.441345 468.429901,490.167297 
	C470.191803,492.538116 473.938599,494.678436 476.874847,494.732147 
	C497.665100,495.112549 518.465576,494.934021 540.198120,494.934326 
M583.018066,608.414429 
	C583.087402,616.748474 582.148621,615.944092 590.455200,615.980164 
	C596.617798,616.006958 602.783325,615.878662 608.942200,616.032349 
	C611.917542,616.106628 613.089661,615.126587 613.059143,612.033569 
	C612.937683,599.709351 612.946899,587.382568 613.058228,575.058105 
	C613.085083,572.087952 612.155090,570.880432 609.055603,570.948364 
	C601.730408,571.108948 594.395325,571.144165 587.072510,570.937317 
	C583.566895,570.838318 582.935486,572.428955 582.970154,575.459473 
	C583.092102,586.117920 583.018005,596.778625 583.018066,608.414429 
M612.909485,630.156860 
	C612.943970,629.162598 612.863708,628.148438 613.032104,627.177368 
	C613.927368,622.015442 611.684021,620.553711 606.707153,620.899353 
	C600.597534,621.323608 594.425171,621.224304 588.300842,620.924683 
	C584.222473,620.725098 582.802429,621.971191 582.881226,626.191650 
	C582.958862,630.356995 583.992004,632.336304 588.528870,632.051453 
	C593.486877,631.740112 598.483215,632.095459 603.455872,631.939453 
	C606.519043,631.843445 609.569214,631.334534 612.909485,630.156860 
M687.527893,621.000000 
	C685.202515,621.002075 682.869507,621.124329 680.553711,620.976379 
	C677.549500,620.784546 676.691223,622.378662 677.037231,624.948486 
	C677.393250,627.592407 675.478333,631.697571 680.302917,631.873108 
	C688.098755,632.156677 695.920105,632.154114 703.716064,631.870178 
	C708.532349,631.694763 706.646484,627.599365 706.993469,624.948730 
	C707.329956,622.378479 706.470154,620.877319 703.468262,620.967651 
	C698.489990,621.117615 693.503662,621.003113 687.527893,621.000000 
M630.013611,624.607849 
	C630.037231,631.364319 630.546509,631.914307 637.343323,631.968872 
	C643.657288,632.019470 649.976318,631.833008 656.284790,632.024902 
	C661.100403,632.171387 659.883850,628.813354 659.995850,626.211914 
	C660.110840,623.541504 660.523987,620.818359 656.231567,620.943176 
	C648.760437,621.160461 641.274109,620.877869 633.804871,621.126648 
	C632.519897,621.169495 631.287964,622.807190 630.013611,624.607849 
z"/>
<path fill="#DEE5FC" opacity="1.000000" stroke="none" 
	d="
M816.817017,650.484619 
	C816.876038,646.593689 816.935059,642.702820 816.973633,637.914673 
	C815.636108,623.332153 814.318909,609.646851 813.195557,595.676758 
	C814.866089,592.091614 817.150635,588.915283 817.679993,585.469360 
	C819.994934,570.401428 821.800720,555.255310 824.120361,539.827942 
	C824.545593,534.650879 824.641663,529.783508 824.947266,524.644897 
	C840.987549,505.304993 843.163940,488.214417 827.315063,468.749146 
	C826.134705,467.299469 825.174438,465.249847 825.071838,463.425140 
	C824.802124,458.629089 825.062500,453.803253 825.111694,448.989319 
	C836.712891,448.716736 848.319214,448.197235 859.909790,448.437744 
	C861.649719,448.473877 864.512329,451.907623 864.795898,454.043152 
	C865.708618,460.917175 865.925354,467.918793 865.935425,474.871887 
	C866.012878,528.290710 865.990601,581.709717 865.960632,635.128662 
	C865.957214,641.207886 866.644592,647.562378 860.497192,651.719299 
	C859.875732,652.139465 859.925415,653.552246 859.391846,654.345337 
	C859.604492,650.986877 857.979126,650.323425 855.100586,650.355408 
	C842.340515,650.497070 829.578430,650.458130 816.817017,650.484619 
z"/>
<path fill="#080450" opacity="1.000000" stroke="none" 
	d="
M824.982971,448.585663 
	C825.062500,453.803253 824.802124,458.629089 825.071838,463.425140 
	C825.174438,465.249847 826.134705,467.299469 827.315063,468.749146 
	C843.163940,488.214417 840.987549,505.304993 824.758667,524.317871 
	C822.599792,516.854004 821.094421,509.373108 819.006653,502.058441 
	C816.904480,494.692902 811.630920,490.499969 804.134399,489.005219 
	C797.788696,487.739990 791.464722,486.366119 785.103027,484.568085 
	C785.121033,479.713501 785.167114,475.331085 785.380676,470.659119 
	C787.664917,466.620911 790.421082,463.077850 791.711548,459.063599 
	C792.903748,455.355286 793.841614,450.643341 792.559509,447.256195 
	C790.004822,440.507202 785.971985,434.291687 782.258850,428.028229 
	C781.469238,426.696198 779.449463,425.317505 777.974854,425.293579 
	C768.585510,425.141266 760.781982,420.808899 753.006042,416.355072 
	C746.496277,412.626434 746.109070,412.697662 742.461914,419.435333 
	C741.121643,418.804626 740.095947,418.312897 739.070312,417.821136 
	C729.313721,407.620483 725.340698,395.928833 728.798218,381.798309 
	C731.048889,372.600189 736.944092,367.521698 745.571838,365.719269 
	C757.202087,363.289581 768.419739,365.197815 778.674927,371.381378 
	C788.016602,377.014191 793.322632,385.539276 793.858704,396.309998 
	C794.274475,404.663574 797.798096,410.016907 805.291931,413.296692 
	C807.844604,414.413910 810.082581,416.250000 812.908569,418.185730 
	C815.559448,421.361298 817.765991,424.108734 819.972595,426.856201 
	C821.599792,433.964813 823.227051,441.073425 824.982971,448.585663 
z"/>
<path fill="#307FFB" opacity="1.000000" stroke="none" 
	d="
M448.654602,454.064545 
	C449.346069,455.954193 450.019470,457.984222 450.021393,460.014923 
	C450.078857,519.832458 450.068817,579.650024 450.071503,639.467590 
	C450.071960,649.471436 451.005096,650.412415 460.817139,650.411987 
	C544.128479,650.408386 627.439819,650.406494 710.751160,650.408997 
	C711.915771,650.408997 713.080383,650.472717 714.512817,650.982544 
	C711.298706,654.312927 707.816833,657.167542 704.334961,660.022217 
	C702.509094,659.942688 700.683167,659.793823 698.857300,659.793640 
	C617.420593,659.787415 535.983887,659.794373 454.547150,659.799744 
	C445.375305,659.800354 443.877686,658.302246 443.877472,649.094482 
	C443.876007,587.142639 443.891541,525.190735 443.840820,463.238922 
	C443.837646,459.361053 444.053558,455.844177 448.654602,454.064545 
z"/>
<path fill="#3180FC" opacity="1.000000" stroke="none" 
	d="
M738.596802,417.821472 
	C740.095947,418.312897 741.121643,418.804626 742.461060,419.760864 
	C742.305786,422.465149 741.836670,424.704926 740.867188,426.875061 
	C732.718567,426.789948 725.070251,426.744324 717.421997,426.764557 
	C693.484131,426.827942 669.546326,426.916199 645.290039,426.899719 
	C640.771118,424.586182 636.570618,422.367798 632.370056,420.149384 
	C632.067200,420.628265 631.764343,421.107117 631.461487,421.585999 
	C632.693298,423.258636 633.925049,424.931244 635.156860,426.603882 
	C631.994629,426.655365 628.832458,426.751221 625.670227,426.751770 
	C568.191895,426.761505 510.713531,426.759033 453.235168,426.761536 
	C445.541443,426.761871 443.878021,425.120758 443.877380,417.408600 
	C443.872162,354.932129 443.890869,292.455627 443.831940,229.979233 
	C443.828003,225.774384 444.458710,222.305756 449.583740,221.184143 
	C449.987427,236.666733 450.064850,252.159241 450.070343,267.651794 
	C450.087067,314.633667 450.072418,361.615509 450.079285,408.597382 
	C450.080353,415.820984 452.033447,417.832947 459.231049,417.833496 
	C552.195129,417.840759 645.159180,417.828827 738.596802,417.821472 
z"/>
<path fill="#FD9969" opacity="1.000000" stroke="none" 
	d="
M704.124756,660.324097 
	C707.816833,657.167542 711.298706,654.312927 714.891357,651.126099 
	C717.259766,647.923218 716.156982,646.320923 712.988098,645.565796 
	C711.026306,645.098206 709.043152,644.720154 707.069580,644.301941 
	C706.997498,643.601196 706.925476,642.900513 706.853394,642.199768 
	C710.129395,641.493225 713.388977,640.290955 716.684692,640.182251 
	C723.784241,639.948120 729.903931,637.809204 735.402710,632.344727 
	C736.657410,631.311768 737.418274,630.638367 738.508972,629.908325 
	C742.341370,627.112305 745.856079,624.388245 749.344604,621.630981 
	C764.044495,610.012268 778.789124,598.448608 793.362366,586.672913 
	C795.095276,585.272644 796.660461,582.806213 796.967346,580.644287 
	C798.524963,569.673767 799.947937,558.663147 800.759277,547.618164 
	C801.075500,543.314087 802.846497,543.175659 806.293945,542.900757 
	C812.162476,542.432739 817.962524,541.104431 823.791321,540.137573 
	C821.800720,555.255310 819.994934,570.401428 817.679993,585.469360 
	C817.150635,588.915283 814.866089,592.091614 812.879028,595.812500 
	C798.327454,605.651855 784.257751,615.028870 770.256775,624.507263 
	C763.146240,629.320923 756.159424,634.317261 749.116699,639.230957 
	C744.733948,642.130310 739.906494,644.553040 736.117249,648.088501 
	C733.366821,650.654785 731.990479,654.693787 729.885071,658.414551 
	C727.780640,662.325073 725.711914,665.855103 723.824646,669.479553 
	C721.411011,674.114746 717.631836,676.339172 712.505615,675.740417 
	C707.138306,675.113403 703.104004,672.057922 701.524292,666.987671 
	C700.992615,665.281006 703.043823,662.769592 704.124756,660.324097 
z"/>
<path fill="#FC9A6A" opacity="1.000000" stroke="none" 
	d="
M635.470520,426.746521 
	C633.925049,424.931244 632.693298,423.258636 631.461487,421.585999 
	C631.764343,421.107117 632.067200,420.628265 632.370056,420.149384 
	C636.570618,422.367798 640.771118,424.586182 645.520386,427.180786 
	C652.396851,430.477448 655.020630,435.716675 655.613403,442.386383 
	C655.783020,444.294434 656.644775,446.140930 657.269348,448.340271 
	C669.713440,467.949066 682.031128,487.263489 694.552917,506.444580 
	C695.328186,507.632202 697.829651,508.505615 699.321106,508.261444 
	C703.887085,507.513977 708.352051,506.149933 712.823486,505.436218 
	C710.254944,513.739807 712.951843,520.821411 716.197998,527.817871 
	C708.172363,529.080811 700.173401,530.928040 692.106995,531.295166 
	C689.216431,531.426758 685.154846,528.666809 683.381470,526.041870 
	C678.846619,519.329224 675.001221,512.096191 671.420654,504.805817 
	C665.343811,492.432709 659.351257,479.996246 653.962952,467.314636 
	C650.353760,458.820160 645.127991,452.264801 636.565186,448.037109 
	C633.939392,445.194702 634.797241,442.921692 637.024475,440.585876 
	C643.587341,433.702911 643.524902,433.403229 635.470520,426.746521 
z"/>
<path fill="#317FF9" opacity="1.000000" stroke="none" 
	d="
M816.631104,650.800781 
	C829.578430,650.458130 842.340515,650.497070 855.100586,650.355408 
	C857.979126,650.323425 859.604492,650.986877 859.163513,654.610168 
	C857.650269,658.806030 854.584229,659.835693 850.815918,659.819580 
	C839.598083,659.771667 828.379944,659.797729 816.718750,659.763794 
	C816.332092,656.860840 816.388611,653.988953 816.631104,650.800781 
z"/>
<path fill="#3280FA" opacity="1.000000" stroke="none" 
	d="
M820.441528,426.820740 
	C817.765991,424.108734 815.559448,421.361298 813.231567,418.310638 
	C828.123474,418.007446 843.136719,418.007446 858.760437,418.007446 
	C858.847290,419.363098 858.935120,420.734406 859.027954,422.554810 
	C856.366150,424.256683 853.741638,426.470947 851.025085,426.590271 
	C841.003418,427.030518 830.951172,426.777588 820.441528,426.820740 
z"/>
<path fill="#67B350" opacity="1.000000" stroke="none" 
	d="
M196.505310,166.946701 
	C190.562683,167.472946 185.097595,166.339767 183.262192,160.841537 
	C181.985367,157.016632 182.438950,152.021637 183.738770,148.083878 
	C185.253387,143.495361 191.995636,141.709000 197.909195,143.092438 
	C202.653702,144.202377 205.857224,148.371185 206.019669,153.646729 
	C206.257812,161.380203 204.301941,164.232208 196.505310,166.946701 
z"/>
<path fill="#F9B545" opacity="1.000000" stroke="none" 
	d="
M169.843018,151.667053 
	C170.417603,159.304337 168.012772,163.855240 162.687302,165.781586 
	C157.845673,167.532913 152.127151,165.943390 149.276794,161.972672 
	C146.405991,157.973465 146.036865,153.696426 148.284882,149.313721 
	C150.477173,145.039642 154.227539,143.052048 158.877014,143.188522 
	C164.240616,143.345978 167.831726,146.278564 169.843018,151.667053 
z"/>
<path fill="#E5728F" opacity="1.000000" stroke="none" 
	d="
M116.128586,163.949203 
	C111.437469,158.570572 110.695114,153.643097 113.560135,148.738434 
	C116.002220,144.557800 121.233368,142.281708 125.983170,143.333145 
	C132.343231,144.741058 136.516266,151.570343 134.866455,157.870880 
	C133.203583,164.221298 126.269760,168.007767 119.996490,165.916870 
	C118.753601,165.502594 117.621162,164.756927 116.128586,163.949203 
z"/>
<path fill="#000000" opacity="000000" stroke="none" 
	d="
M279.651611,762.208862 
	C296.770142,765.628967 313.552246,769.539856 330.436401,772.944824 
	C348.972290,776.682861 367.744293,778.259094 386.673920,778.057068 
	C391.589203,778.004578 396.527618,779.088135 401.428223,778.908630 
	C411.608948,778.535706 421.764648,777.375000 431.944672,777.136169 
	C436.397278,777.031677 441.141022,777.691650 445.311615,779.213135 
	C464.155975,786.087830 483.693176,790.213745 503.304749,793.810730 
	C515.469543,796.041992 527.902527,797.091675 540.265625,797.892700 
	C557.074524,798.981689 573.973572,800.375793 590.756775,799.705872 
	C608.811768,798.985107 626.836853,796.448486 644.763489,793.915405 
	C659.148132,791.882751 673.452759,789.054199 687.628296,785.850708 
	C697.310425,783.662598 706.705505,780.208252 716.241028,777.360840 
	C717.161377,777.086060 718.168152,777.100830 719.549622,776.929077 
	C720.984741,783.638367 722.144653,790.382263 722.995972,797.164917 
	C724.695862,810.708679 726.234741,824.272766 727.823303,837.830444 
	C728.570374,844.206177 729.124084,850.611328 730.141724,856.942688 
	C730.333496,858.135620 732.303711,859.042725 733.775574,860.592102 
	C734.131165,862.586060 733.895142,864.136108 734.242310,865.542236 
	C736.206726,873.498962 736.089233,881.126587 731.905518,888.514343 
	C729.068848,893.523254 726.713623,898.804749 723.943970,904.255737 
	C720.838013,906.048767 717.931213,907.550354 715.024414,909.051941 
	C702.118591,908.701355 689.212952,908.343994 676.306885,908.001953 
	C663.393372,907.659607 650.480774,907.262207 637.565369,907.015137 
	C616.990540,906.621460 596.414734,906.219849 575.837402,906.022278 
	C533.108398,905.612000 490.378387,905.130554 447.648254,905.071655 
	C418.909729,905.032043 390.169495,905.611267 361.431641,906.026611 
	C349.348480,906.201233 337.269684,906.673035 325.188660,906.999695 
	C312.608215,907.339844 300.024536,907.587341 287.448090,908.037537 
	C281.701019,908.243286 275.967896,908.838257 269.613007,909.615540 
	C265.654816,908.990601 262.312042,908.006897 258.984528,906.570740 
	C259.630829,900.027954 260.261902,893.937683 260.892975,887.847351 
	C264.655548,886.946533 265.657288,884.376404 266.023773,880.731873 
	C267.456207,866.486267 269.250153,852.277344 270.837006,838.046753 
	C271.932770,828.220215 272.847870,818.373474 273.955353,808.548340 
	C275.171417,797.760376 276.523560,786.987854 277.800049,776.206604 
	C278.341644,771.632507 278.841431,767.053406 279.651611,762.208862 
z"/>
<path fill="#000000" opacity="000000" stroke="none" 
	d="
M832.665649,858.979858 
	C839.807617,867.086792 838.260742,876.638672 837.479919,886.025208 
	C837.199219,889.398804 836.538452,892.740784 836.100525,896.528931 
	C832.982300,904.055786 828.912354,910.384644 821.301636,914.065918 
	C805.504883,913.409241 790.072937,912.721008 774.643005,911.990540 
	C768.748474,911.711487 762.858582,911.335876 756.184326,910.757324 
	C755.244507,908.067017 755.270142,905.595215 754.896362,903.185303 
	C753.578247,894.685547 752.123230,886.207031 750.807739,877.306580 
	C751.205444,871.309937 751.515442,865.727234 751.825439,860.144470 
	C756.821472,860.746338 758.106323,858.578125 758.099243,853.622314 
	C758.075317,836.876343 758.611877,820.128845 758.996277,803.383362 
	C759.266296,791.624817 759.586060,779.866699 760.001343,768.112610 
	C760.099731,765.327515 760.670044,762.559204 761.426208,759.374634 
	C766.478577,756.925232 771.128052,754.884277 775.777527,752.843262 
	C776.816101,754.435852 778.049988,755.934937 778.863647,757.635132 
	C789.356812,779.561462 799.814514,801.504883 810.229065,823.468689 
	C815.876038,835.377808 821.423584,847.333923 826.909119,859.040710 
	C829.011475,859.040710 830.648010,859.040710 832.665649,858.979858 
z"/>
<path fill="#000000" opacity="000000" stroke="none" 
	d="
M188.069122,907.847656 
	C189.503571,900.370056 191.239334,893.110474 192.942307,885.448792 
	C195.363754,885.046631 197.817993,885.046631 200.408539,885.046631 
	C203.651718,865.685181 206.775162,846.861084 209.964539,828.048096 
	C213.156387,809.220337 216.458054,790.411133 219.624268,771.579102 
	C221.180664,762.321960 222.539642,753.031616 224.404968,743.381897 
	C226.521439,743.303040 228.220886,743.598572 229.920319,743.894104 
	C230.271164,758.506165 230.610947,773.118469 230.976151,787.730164 
	C231.303864,800.841797 231.643265,813.953247 232.007797,827.063965 
	C232.316849,838.177917 232.573868,849.294678 233.033127,860.402710 
	C233.388046,868.987915 234.020355,877.561584 234.553101,886.541199 
	C236.120651,886.721619 237.722443,886.906006 239.718811,887.597168 
	C240.410477,889.810303 240.890152,891.508240 240.969330,893.224670 
	C241.179138,897.772766 241.215820,902.328918 241.167633,907.154175 
	C240.106079,908.374573 239.198257,909.322632 238.290466,910.270752 
	C237.546646,910.512207 236.809998,910.937805 236.057877,910.967102 
	C226.393890,911.344177 216.727463,911.658142 207.062225,912.004333 
	C204.757523,912.086792 202.454926,912.229065 199.958557,912.668091 
	C195.967300,911.350220 192.168854,909.708008 188.069122,907.847656 
z"/>
<path fill="#251E5F" opacity="1.000000" stroke="none" 
	d="
M750.720093,877.720459 
	C752.123230,886.207031 753.578247,894.685547 754.896362,903.185303 
	C755.270142,905.595215 755.244507,908.067017 755.720703,910.794067 
	C756.227905,915.894287 756.531189,920.711121 756.524292,925.527405 
	C756.522583,926.728333 755.520020,927.927795 754.977356,929.127869 
	C754.452759,928.956848 753.928162,928.785889 753.403564,928.614868 
	C752.111145,921.284973 750.818726,913.955078 749.415833,905.998779 
	C748.484863,907.023987 747.774475,907.731445 747.148315,908.507019 
	C737.886536,919.978943 726.882385,928.068115 711.243958,927.847961 
	C701.594910,927.712097 691.937683,928.170654 682.288208,928.045898 
	C680.100830,928.017639 677.930481,926.677795 675.752258,925.941650 
	C677.692505,924.521118 679.438354,922.587036 681.605713,921.766541 
	C692.619934,917.597046 703.743408,913.716125 714.926514,909.393066 
	C717.931213,907.550354 720.838013,906.048767 724.258911,904.159546 
	C733.833313,897.497803 741.440247,889.792664 747.672119,880.700012 
	C748.459900,879.550415 749.693237,878.706177 750.720093,877.720459 
z"/>
<path fill="#251F60" opacity="1.000000" stroke="none" 
	d="
M238.182541,910.714539 
	C239.198257,909.322632 240.106079,908.374573 241.530518,907.215271 
	C247.684769,909.725220 253.324844,910.302124 258.969269,907.023193 
	C262.312042,908.006897 265.654816,908.990601 269.387878,910.004150 
	C277.975861,912.686768 286.229675,915.180786 294.349030,918.054749 
	C298.862762,919.652405 303.369110,921.527039 307.438324,924.001282 
	C309.109344,925.017334 309.620148,927.941650 310.658752,929.997864 
	C308.841125,930.624084 306.997284,931.860413 305.209869,931.783630 
	C283.965210,930.871155 262.732727,929.671448 241.487213,928.783508 
	C237.242767,928.606079 235.364304,927.102417 236.029404,922.889709 
	C236.648361,918.969360 237.388077,915.068054 238.182541,910.714539 
z"/>
<path fill="#FB9867" opacity="1.000000" stroke="none" 
	d="
M258.984528,906.570740 
	C253.324844,910.302124 247.684769,909.725220 241.684250,906.942993 
	C241.215820,902.328918 241.179138,897.772766 240.969330,893.224670 
	C240.890152,891.508240 240.410477,889.810303 240.151505,887.709351 
	C246.787155,887.464050 253.384659,887.613342 260.437561,887.804993 
	C260.261902,893.937683 259.630829,900.027954 258.984528,906.570740 
z"/>
<path fill="#B7CBDF" opacity="1.000000" stroke="none" 
	d="
M229.866486,743.530945 
	C228.220886,743.598572 226.521439,743.303040 224.441589,742.948364 
	C224.061188,738.972412 224.061188,735.055542 224.061188,731.138672 
	C224.419174,731.036987 224.777145,730.935242 225.135132,730.833557 
	C226.694305,734.945007 228.253479,739.056396 229.866486,743.530945 
z"/>
<path fill="#FC4E89" opacity="1.000000" stroke="none" 
	d="
M749.535034,639.364380 
	C756.159424,634.317261 763.146240,629.320923 770.256775,624.507263 
	C784.257751,615.028870 798.327454,605.651855 812.685242,596.097229 
	C814.318909,609.646851 815.636108,623.332153 816.895447,637.443481 
	C794.542847,638.412170 772.248108,638.955017 749.535034,639.364380 
z"/>
<path fill="#F99767" opacity="1.000000" stroke="none" 
	d="
M750.807800,877.306641 
	C749.693237,878.706177 748.459900,879.550415 747.672119,880.700012 
	C741.440247,889.792664 733.833313,897.497803 724.458008,903.868164 
	C726.713623,898.804749 729.068848,893.523254 731.905518,888.514343 
	C736.089233,881.126587 736.206726,873.498962 734.242310,865.542236 
	C733.895142,864.136108 734.131165,862.586060 734.185913,860.695984 
	C739.819885,860.266174 745.365967,860.242920 751.368713,860.182068 
	C751.515442,865.727234 751.205444,871.309937 750.807800,877.306641 
z"/>
<path fill="#D1EBF8" opacity="1.000000" stroke="none" 
	d="
M775.683594,752.516235 
	C771.128052,754.884277 766.478577,756.925232 761.447998,758.934082 
	C761.335205,749.950500 760.958252,740.916260 762.091431,732.075562 
	C762.891479,725.833496 765.738953,719.854004 768.152405,713.816711 
	C770.475708,726.740356 768.573975,740.320679 775.683594,752.516235 
z"/>
<path fill="#82B1FD" opacity="1.000000" stroke="none" 
	d="
M230.427124,473.349335 
	C229.989319,472.753265 229.916290,472.245941 229.755432,471.364502 
	C230.627136,469.932343 231.406387,468.251312 232.574249,467.913361 
	C243.260742,464.821411 253.245789,452.629517 254.133484,441.451477 
	C254.340088,438.850006 255.022522,436.286346 256.184723,433.737305 
	C258.704773,433.845490 260.525970,433.984802 262.347473,433.988251 
	C289.616302,434.039734 316.885132,434.073273 344.153992,434.111023 
	C333.617828,450.179047 323.088837,466.251740 312.540863,482.311951 
	C309.718567,486.609070 306.720856,490.795898 304.029999,495.172516 
	C302.481598,497.691010 300.775208,498.523224 297.867249,497.586853 
	C293.617676,496.218414 289.253510,495.205780 284.555786,494.015594 
	C280.980591,492.413574 277.881927,490.597229 274.578461,489.303955 
	C261.954529,484.361877 249.276642,479.556458 236.586273,474.786774 
	C234.745834,474.095032 232.727768,473.875916 230.427124,473.349335 
z"/>
<path fill="#3985F8" opacity="1.000000" stroke="none" 
	d="
M344.427521,433.932495 
	C316.885132,434.073273 289.616302,434.039734 262.347473,433.988251 
	C260.525970,433.984802 258.704773,433.845490 256.526855,433.596375 
	C259.027985,432.208344 261.885651,430.993347 264.925049,429.471771 
	C292.180908,429.160339 319.255035,429.155426 346.824585,429.221436 
	C346.446991,430.779541 345.574036,432.266754 344.427521,433.932495 
z"/>
<path fill="#82B1FE" opacity="1.000000" stroke="none" 
	d="
M121.385941,421.919617 
	C121.153885,421.333893 121.081802,420.497009 121.112068,419.249451 
	C121.324921,419.781982 121.435417,420.725250 121.385941,421.919617 
z"/>
<path fill="#82B1FE" opacity="1.000000" stroke="none" 
	d="
M121.856995,425.791504 
	C121.639618,425.762482 121.464058,425.489319 121.342056,424.970062 
	C121.694740,424.918121 121.862480,425.192596 121.856995,425.791504 
z"/>
<path fill="#82B1FE" opacity="1.000000" stroke="none" 
	d="
M251.801849,564.267212 
	C251.787201,564.448425 251.465973,564.546570 251.017151,564.510254 
	C251.091461,564.311829 251.293365,564.247986 251.801849,564.267212 
z"/>
<path fill="#82B1FE" opacity="1.000000" stroke="none" 
	d="
M121.342133,506.017578 
	C121.173660,505.938599 121.133942,505.715088 121.168823,505.159241 
	C121.353668,505.051544 121.488220,505.268433 121.562904,505.504303 
	C121.595482,505.607178 121.505310,505.748901 121.342133,506.017578 
z"/>
<path fill="#FEFEFE" opacity="1.000000" stroke="none" 
	d="
M507.072205,259.986664 
	C520.963440,250.579758 536.009277,246.616394 552.283936,248.073563 
	C565.241333,249.233704 577.111145,253.486954 587.434265,261.839569 
	C598.335022,270.659485 606.126282,281.430450 610.494751,294.802063 
	C613.997192,305.522827 614.124695,316.615601 612.434448,327.326660 
	C609.805298,343.986572 601.019897,357.745178 587.615845,368.080109 
	C570.837830,381.016418 551.790344,384.951538 531.146423,380.510986 
	C510.853607,376.145874 495.557251,364.053436 486.457642,346.068329 
	C476.165222,325.725708 475.763123,304.464783 486.971008,283.517609 
	C491.978729,274.158386 499.087830,267.029053 507.072205,259.986664 
M576.745422,331.753784 
	C573.572937,329.343689 570.572754,326.633301 567.145935,324.666321 
	C565.706543,323.840149 562.968323,323.891541 561.496277,324.730133 
	C551.118835,330.642059 541.006592,330.774658 530.785095,324.410950 
	C529.632935,323.693634 527.490417,323.357330 526.395020,323.943329 
	C513.857422,330.650238 506.595337,341.155060 504.048065,355.590149 
	C532.241821,355.590149 559.946533,355.590149 588.114807,355.590149 
	C587.308167,346.177673 583.107666,338.852112 576.745422,331.753784 
M565.368225,283.223511 
	C563.373779,281.480835 561.573120,279.424286 559.350281,278.051300 
	C551.007568,272.898163 542.316956,272.569244 533.882263,277.615326 
	C524.908447,282.983978 520.933228,291.219391 522.038147,301.624969 
	C523.018616,310.858673 528.244324,317.348877 536.554504,320.966797 
	C546.888062,325.465607 558.421936,322.525330 565.030823,314.322723 
	C572.276611,305.329620 572.552551,294.346802 565.368225,283.223511 
z"/>
<path fill="#FEFEFE" opacity="1.000000" stroke="none" 
	d="
M700.000000,259.017883 
	C748.802246,259.018066 797.104431,259.015594 845.406677,259.021118 
	C852.929077,259.021973 854.004395,260.111206 854.009766,267.689545 
	C854.020996,283.553070 854.944275,280.970978 840.700745,280.987885 
	C775.576172,281.065186 710.451355,281.022247 645.326660,281.020233 
	C638.027161,281.019989 637.133362,280.114227 637.022583,272.667969 
	C636.825562,259.416870 637.221252,259.017426 650.531616,259.017761 
	C666.854431,259.018158 683.177185,259.017883 700.000000,259.017883 
z"/>
<path fill="#FFFEFE" opacity="1.000000" stroke="none" 
	d="
M815.000000,310.986877 
	C826.326355,310.986908 837.153442,311.063995 847.978577,310.948242 
	C852.167053,310.903473 854.192200,312.553986 854.034668,316.852173 
	C853.906616,320.345276 853.860229,323.854401 854.044678,327.342346 
	C854.236938,330.978790 852.299927,332.502960 849.092896,332.927063 
	C847.781799,333.100433 846.432251,332.997559 845.100220,332.997620 
	C778.809692,333.000000 712.519165,333.000549 646.228638,332.998962 
	C639.085266,332.998810 639.075989,332.993958 637.779175,325.884766 
	C637.482727,324.260193 637.100403,322.624512 637.054382,320.985596 
	C636.816345,312.513031 638.310364,310.986877 646.608459,310.986816 
	C702.572327,310.986511 758.536133,310.986786 815.000000,310.986877 
z"/>
<path fill="#FE4E89" opacity="1.000000" stroke="none" 
	d="
M716.494629,528.008057 
	C712.951843,520.821411 710.254944,513.739807 713.011475,505.118896 
	C716.231140,503.082886 719.166504,501.597015 722.240173,500.497467 
	C735.409729,495.786072 748.619995,491.188446 761.892456,486.934631 
	C762.752441,489.139191 763.090271,491.445984 764.423096,492.663116 
	C766.409119,494.476532 769.502380,497.094086 771.411987,496.602356 
	C777.543640,495.023438 782.790405,491.532257 785.131104,485.040283 
	C791.464722,486.366119 797.788696,487.739990 804.134399,489.005219 
	C811.630920,490.499969 816.904480,494.692902 819.006653,502.058441 
	C821.094421,509.373108 822.599792,516.854004 824.549194,524.589050 
	C824.641663,529.783508 824.545593,534.650879 824.120361,539.827942 
	C817.962524,541.104431 812.162476,542.432739 806.293945,542.900757 
	C802.846497,543.175659 801.075500,543.314087 800.759277,547.618164 
	C799.947937,558.663147 798.524963,569.673767 796.967346,580.644287 
	C796.660461,582.806213 795.095276,585.272644 793.362366,586.672913 
	C778.789124,598.448608 764.044495,610.012268 749.344604,621.630981 
	C745.856079,624.388245 742.341370,627.112305 738.465881,629.491089 
	C738.296875,626.433044 738.500732,623.735596 738.704651,621.038147 
	C738.846130,619.635620 738.987610,618.233093 739.248718,616.036255 
	C742.312134,585.734680 745.255981,556.227417 748.255188,526.165527 
	C739.450745,527.422913 731.724548,528.526306 723.998413,529.629700 
	C721.596069,529.152527 719.193665,528.675354 716.494629,528.008057 
z"/>
<path fill="#FEFEFE" opacity="1.000000" stroke="none" 
	d="
M660.015015,522.169189 
	C660.014465,551.936157 659.918884,581.222900 660.114502,610.507812 
	C660.144287,614.966858 658.848083,616.302979 654.472900,616.073853 
	C647.835083,615.726318 641.164490,615.903442 634.510376,616.013855 
	C631.371094,616.065918 629.981628,614.892517 629.987427,611.641418 
	C630.041626,581.356995 630.053223,551.072266 629.967102,520.787964 
	C629.957886,517.534302 631.436157,516.913696 634.232727,516.958435 
	C641.386047,517.072937 648.548401,517.169373 655.695129,516.923767 
	C659.427490,516.795532 660.401978,518.444092 660.015015,522.169189 
z"/>
<path fill="#FEFEFE" opacity="1.000000" stroke="none" 
	d="
M707.014648,608.900391 
	C706.988770,615.972351 706.988770,615.976929 700.587280,615.981873 
	C694.089661,615.986816 687.589783,615.881165 681.095398,616.025818 
	C678.146606,616.091492 676.954468,615.171265 676.966370,612.048584 
	C677.059265,587.724487 677.073364,563.399536 676.954895,539.075623 
	C676.937927,535.598755 678.394348,534.878967 681.450439,534.948914 
	C688.111145,535.101440 694.790283,535.240417 701.437622,534.904907 
	C705.762573,534.686584 707.167236,535.918152 707.121033,540.440369 
	C706.889587,563.096375 707.014832,585.756104 707.014648,608.900391 
z"/>
<path fill="#FEFDFD" opacity="1.000000" stroke="none" 
	d="
M723.998657,530.051086 
	C731.724548,528.526306 739.450745,527.422913 748.255188,526.165527 
	C745.255981,556.227417 742.312134,585.734680 739.205872,615.613892 
	C736.057129,615.985596 733.041992,615.722046 730.091248,616.045532 
	C725.433594,616.556152 723.825195,615.047363 723.870483,610.105530 
	C724.113892,583.563049 723.993591,557.017151 723.998657,530.051086 
z"/>
<path fill="#E7728E" opacity="1.000000" stroke="none" 
	d="
M506.781555,520.120728 
	C528.218872,519.637329 547.784607,534.136536 554.184448,555.248779 
	C560.438110,575.878784 552.316589,599.170837 534.506104,609.992004 
	C531.807617,606.478394 529.626648,603.173950 527.684326,599.606323 
	C539.422668,589.850037 545.226196,577.895081 542.337036,562.922180 
	C538.963318,545.438477 526.277527,535.074768 506.799103,532.513306 
	C506.799011,528.075256 506.790283,524.098022 506.781555,520.120728 
z"/>
<path fill="#8286EF" opacity="1.000000" stroke="none" 
	d="
M539.730469,494.934021 
	C518.465576,494.934021 497.665100,495.112549 476.874847,494.732147 
	C473.938599,494.678436 470.191803,492.538116 468.429901,490.167297 
	C467.147217,488.441345 467.574921,484.085419 468.961273,482.109741 
	C470.402832,480.055389 473.899048,478.413177 476.520508,478.378510 
	C498.312134,478.089874 520.109497,478.159882 541.904480,478.253662 
	C547.377625,478.277222 551.080322,481.963043 551.031555,486.757568 
	C550.977051,492.115570 547.418396,494.801514 539.730469,494.934021 
z"/>
<path fill="#FEFEFE" opacity="1.000000" stroke="none" 
	d="
M583.018188,607.926453 
	C583.018005,596.778625 583.092102,586.117920 582.970154,575.459473 
	C582.935486,572.428955 583.566895,570.838318 587.072510,570.937317 
	C594.395325,571.144165 601.730408,571.108948 609.055603,570.948364 
	C612.155090,570.880432 613.085083,572.087952 613.058228,575.058105 
	C612.946899,587.382568 612.937683,599.709351 613.059143,612.033569 
	C613.089661,615.126587 611.917542,616.106628 608.942200,616.032349 
	C602.783325,615.878662 596.617798,616.006958 590.455200,615.980164 
	C582.148621,615.944092 583.087402,616.748474 583.018188,607.926453 
z"/>
<path fill="#2E7EFA" opacity="1.000000" stroke="none" 
	d="
M527.445618,599.869507 
	C529.626648,603.173950 531.807617,606.478394 534.189453,610.121765 
	C515.865662,625.399780 483.859650,620.936157 468.229828,601.199768 
	C462.574493,594.058655 458.477936,586.221191 458.375122,576.507263 
	C462.694702,575.643738 466.493927,575.188354 470.481018,575.057007 
	C474.303070,592.090454 485.149567,602.889221 501.202728,605.637939 
	C510.703461,607.264832 519.291748,604.495544 527.445618,599.869507 
z"/>
<path fill="#65CBEB" opacity="1.000000" stroke="none" 
	d="
M470.293121,574.732971 
	C466.493927,575.188354 462.694702,575.643738 458.447968,576.092651 
	C455.507782,567.718567 457.414032,559.671326 460.243195,551.875854 
	C467.076447,533.047424 485.808716,520.148865 506.359222,520.086792 
	C506.790283,524.098022 506.799011,528.075256 506.402344,532.549438 
	C481.103882,534.935669 468.521698,554.565186 470.293121,574.732971 
z"/>
<path fill="#FCFCFD" opacity="1.000000" stroke="none" 
	d="
M612.767334,630.583984 
	C609.569214,631.334534 606.519043,631.843445 603.455872,631.939453 
	C598.483215,632.095459 593.486877,631.740112 588.528870,632.051453 
	C583.992004,632.336304 582.958862,630.356995 582.881226,626.191650 
	C582.802429,621.971191 584.222473,620.725098 588.300842,620.924683 
	C594.425171,621.224304 600.597534,621.323608 606.707153,620.899353 
	C611.684021,620.553711 613.927368,622.015442 613.032104,627.177368 
	C612.863708,628.148438 612.943970,629.162598 612.767334,630.583984 
z"/>
<path fill="#FCFCFD" opacity="1.000000" stroke="none" 
	d="
M688.024292,621.000000 
	C693.503662,621.003113 698.489990,621.117615 703.468262,620.967651 
	C706.470154,620.877319 707.329956,622.378479 706.993469,624.948730 
	C706.646484,627.599365 708.532349,631.694763 703.716064,631.870178 
	C695.920105,632.154114 688.098755,632.156677 680.302917,631.873108 
	C675.478333,631.697571 677.393250,627.592407 677.037231,624.948486 
	C676.691223,622.378662 677.549500,620.784546 680.553711,620.976379 
	C682.869507,621.124329 685.202515,621.002075 688.024292,621.000000 
z"/>
<path fill="#FCFCFD" opacity="1.000000" stroke="none" 
	d="
M630.022583,624.157959 
	C631.287964,622.807190 632.519897,621.169495 633.804871,621.126648 
	C641.274109,620.877869 648.760437,621.160461 656.231567,620.943176 
	C660.523987,620.818359 660.110840,623.541504 659.995850,626.211914 
	C659.883850,628.813354 661.100403,632.171387 656.284790,632.024902 
	C649.976318,631.833008 643.657288,632.019470 637.343323,631.968872 
	C630.546509,631.914307 630.037231,631.364319 630.022583,624.157959 
z"/>
<path fill="#FCFCFD" opacity="1.000000" stroke="none" 
	d="
M738.258240,621.027710 
	C738.500732,623.735596 738.296875,626.433044 738.136047,629.547729 
	C737.418274,630.638367 736.657410,631.311768 735.602173,632.062256 
	C731.739929,631.902405 728.172058,631.665405 724.630981,631.430237 
	C724.450928,631.091675 724.195862,630.815674 724.158997,630.513123 
	C723.002258,620.999817 723.005432,620.998535 732.352295,621.000732 
	C734.172119,621.001160 735.992004,621.011536 738.258240,621.027710 
z"/>
<path fill="#F6B59A" opacity="1.000000" stroke="none" 
	d="
M741.367493,426.944702 
	C741.836670,424.704926 742.305786,422.465149 742.775696,419.899841 
	C746.109070,412.697662 746.496277,412.626434 753.006042,416.355072 
	C760.781982,420.808899 768.585510,425.141266 777.974854,425.293579 
	C779.449463,425.317505 781.469238,426.696198 782.258850,428.028229 
	C785.971985,434.291687 790.004822,440.507202 792.559509,447.256195 
	C793.841614,450.643341 792.903748,455.355286 791.711548,459.063599 
	C790.421082,463.077850 787.664917,466.620911 785.064697,470.812561 
	C779.851013,474.400665 775.266357,477.804474 770.329285,480.581909 
	C767.850952,481.976196 764.731384,482.230743 761.607666,482.798462 
	C760.772522,482.219116 760.267456,481.583862 759.685303,481.502899 
	C747.834839,479.855072 743.382629,470.335114 740.726440,461.069092 
	C738.944031,454.851135 739.051758,449.050049 731.126343,448.024475 
	C730.740601,447.974518 730.428772,447.353821 730.129517,446.651245 
	C731.965149,443.833923 733.999451,441.502350 735.484131,438.861786 
	C737.652283,435.005829 739.425781,430.927948 741.367493,426.944702 
z"/>
<path fill="#FD9969" opacity="1.000000" stroke="none" 
	d="
M761.901794,483.000671 
	C764.731384,482.230743 767.850952,481.976196 770.329285,480.581909 
	C775.266357,477.804474 779.851013,474.400665 784.897217,471.102142 
	C785.167114,475.331085 785.121033,479.713501 785.103027,484.568115 
	C782.790405,491.532257 777.543640,495.023438 771.411987,496.602356 
	C769.502380,497.094086 766.409119,494.476532 764.423096,492.663116 
	C763.090271,491.445984 762.752441,489.139191 761.901123,486.583374 
	C761.855774,484.898102 761.878784,483.949371 761.901794,483.000671 
z"/>
<path fill="#FEFEFE" opacity="1.000000" stroke="none" 
	d="
M740.867188,426.875061 
	C739.425781,430.927948 737.652283,435.005829 735.484131,438.861786 
	C733.999451,441.502350 731.965149,443.833923 729.812927,446.932922 
	C727.644165,447.711761 725.839233,447.988953 724.033936,447.991516 
	C701.752319,448.022827 679.470764,448.014069 657.189148,448.015656 
	C656.644775,446.140930 655.783020,444.294434 655.613403,442.386383 
	C655.020630,435.716675 652.396851,430.477448 645.838745,427.275879 
	C669.546326,426.916199 693.484131,426.827942 717.421997,426.764557 
	C725.070251,426.744324 732.718567,426.789948 740.867188,426.875061 
z"/>
<path fill="#DFE5FC" opacity="1.000000" stroke="none" 
	d="
M657.269348,448.340271 
	C679.470764,448.014069 701.752319,448.022827 724.033936,447.991516 
	C725.839233,447.988953 727.644165,447.711761 729.765869,447.280548 
	C730.428772,447.353821 730.740601,447.974518 731.126343,448.024475 
	C739.051758,449.050049 738.944031,454.851135 740.726440,461.069092 
	C743.382629,470.335114 747.834839,479.855072 759.685303,481.502899 
	C760.267456,481.583862 760.772522,482.219116 761.607666,482.798462 
	C761.878784,483.949371 761.855774,484.898102 761.824097,486.198090 
	C748.619995,491.188446 735.409729,495.786072 722.240173,500.497467 
	C719.166504,501.597015 716.231140,503.082886 713.044250,504.708344 
	C708.352051,506.149933 703.887085,507.513977 699.321106,508.261444 
	C697.829651,508.505615 695.328186,507.632202 694.552917,506.444580 
	C682.031128,487.263489 669.713440,467.949066 657.269348,448.340271 
z"/>
<path fill="#84B2FD" opacity="1.000000" stroke="none" 
	d="
M576.966553,332.032135 
	C583.107666,338.852112 587.308167,346.177673 588.114807,355.590149 
	C559.946533,355.590149 532.241821,355.590149 504.048065,355.590149 
	C506.595337,341.155060 513.857422,330.650238 526.395020,323.943329 
	C527.490417,323.357330 529.632935,323.693634 530.785095,324.410950 
	C541.006592,330.774658 551.118835,330.642059 561.496277,324.730133 
	C562.968323,323.891541 565.706543,323.840149 567.145935,324.666321 
	C570.572754,326.633301 573.572937,329.343689 576.966553,332.032135 
z"/>
<path fill="#83B2FD" opacity="1.000000" stroke="none" 
	d="
M565.582886,283.516968 
	C572.552551,294.346802 572.276611,305.329620 565.030823,314.322723 
	C558.421936,322.525330 546.888062,325.465607 536.554504,320.966797 
	C528.244324,317.348877 523.018616,310.858673 522.038147,301.624969 
	C520.933228,291.219391 524.908447,282.983978 533.882263,277.615326 
	C542.316956,272.569244 551.007568,272.898163 559.350281,278.051300 
	C561.573120,279.424286 563.373779,281.480835 565.582886,283.516968 
z"/>
<path fill="#DDE5FC" opacity="1.000000" stroke="none" 
	d="
M470.481018,575.057007 
	C468.521698,554.565186 481.103882,534.935669 506.393677,533.010132 
	C526.277527,535.074768 538.963318,545.438477 542.337036,562.922180 
	C545.226196,577.895081 539.422668,589.850037 527.684326,599.606323 
	C519.291748,604.495544 510.703461,607.264832 501.202728,605.637939 
	C485.149567,602.889221 474.303070,592.090454 470.481018,575.057007 
z"/>
</svg>